<svg width="98" height="103" viewBox="0 0 98 103" fill="none" xmlns="http://www.w3.org/2000/svg">
<path d="M28.8242 91.1851C31.9465 91.1851 34.4774 93.6996 34.4775 96.8003C34.4775 99.9011 31.9466 102.417 28.8242 102.417C25.702 102.416 23.1719 99.901 23.1719 96.8003C23.1721 93.6998 25.7021 91.1853 28.8242 91.1851Z" fill="#FF5436" stroke="#FF5436" stroke-width="0.172082"/>
<path d="M6.42773 83.4956C9.55003 83.4956 12.0809 86.0102 12.0811 89.1108C12.0811 92.2116 9.55013 94.7271 6.42773 94.7271C3.30552 94.7268 0.775391 92.2115 0.775391 89.1108C0.775567 86.0103 3.30563 83.4958 6.42773 83.4956Z" fill="#FF5436" stroke="#FF5436" stroke-width="0.172082"/>
<path d="M6.53125 17.9824C6.53125 17.9824 17.3346 3.89865 23.3307 4.52193C29.3268 5.1452 38.2622 17.9824 44.007 17.9824C49.7517 17.9824 60.8265 4.52191 67.5262 4.52193C74.226 4.52194 85.618 19.6069 85.618 19.6069C94.855 33.9157 93.8073 48.0407 92.3638 54.5161C90.6295 62.296 88.1479 69.08 76.9583 75.3878C61.5977 84.0469 23.3307 86.9561 6.53125 68.0262" stroke="#FF5436" stroke-width="8.60411" stroke-linecap="round" stroke-linejoin="round"/>
<path d="M61.2058 76.4844C60.5424 74.1205 56.3581 63.7315 68.0848 59.1722C78.0078 55.3142 84.1157 62.7672 86.1396 66.8151" stroke="#FF5436" stroke-width="4.99038" stroke-linecap="round" stroke-linejoin="round"/>
<path d="M70.9316 67.0563L75.2957 74.8358" stroke="#FF5436" stroke-width="4.99038" stroke-linecap="round" stroke-linejoin="round"/>
</svg>
