<svg width="125" height="107" viewBox="0 0 125 107" fill="none" xmlns="http://www.w3.org/2000/svg">
<circle cx="70.7124" cy="86.2466" r="17.6714" fill="#F6B545" stroke="#FFCB5B" stroke-width="6.06643"/>
<mask id="path-2-inside-1_757_4593" fill="white">
<path d="M68.6947 67.0012C68.6168 66.2576 67.9496 65.7135 67.2127 65.8399C63.053 66.5532 59.1986 68.5235 56.1776 71.5015C53.1566 74.4794 51.1311 78.3051 50.3581 82.4542C50.2211 83.1892 50.7556 83.8641 51.498 83.9527C52.2404 84.0413 52.9089 83.5098 53.0531 82.7762C53.7486 79.2367 55.4946 75.9765 58.0783 73.4297C60.662 70.8828 63.9469 69.1838 67.496 68.5392C68.2316 68.4056 68.7727 67.7448 68.6947 67.0012Z"/>
</mask>
<path d="M68.6947 67.0012C68.6168 66.2576 67.9496 65.7135 67.2127 65.8399C63.053 66.5532 59.1986 68.5235 56.1776 71.5015C53.1566 74.4794 51.1311 78.3051 50.3581 82.4542C50.2211 83.1892 50.7556 83.8641 51.498 83.9527C52.2404 84.0413 52.9089 83.5098 53.0531 82.7762C53.7486 79.2367 55.4946 75.9765 58.0783 73.4297C60.662 70.8828 63.9469 69.1838 67.496 68.5392C68.2316 68.4056 68.7727 67.7448 68.6947 67.0012Z" fill="#F6B545" stroke="#FFE27A" stroke-width="10.7848" mask="url(#path-2-inside-1_757_4593)"/>
<mask id="path-3-inside-2_757_4593" fill="white">
<path d="M73.4326 105.405C73.5377 106.145 74.2243 106.665 74.9561 106.512C79.087 105.647 82.8668 103.537 85.7768 100.45C88.6869 97.3638 90.5711 93.4666 91.1918 89.292C91.3018 88.5525 90.743 87.8976 89.9978 87.8361C89.2527 87.7747 88.6041 88.3304 88.4868 89.0688C87.9212 92.6313 86.2957 95.9532 83.8069 98.5928C81.3181 101.232 78.0974 103.05 74.5743 103.824C73.8441 103.985 73.3275 104.665 73.4326 105.405Z"/>
</mask>
<path d="M73.4326 105.405C73.5377 106.145 74.2243 106.665 74.9561 106.512C79.087 105.647 82.8668 103.537 85.7768 100.45C88.6869 97.3638 90.5711 93.4666 91.1918 89.292C91.3018 88.5525 90.743 87.8976 89.9978 87.8361C89.2527 87.7747 88.6041 88.3304 88.4868 89.0688C87.9212 92.6313 86.2957 95.9532 83.8069 98.5928C81.3181 101.232 78.0974 103.05 74.5743 103.824C73.8441 103.985 73.3275 104.665 73.4326 105.405Z" fill="#F6B545" stroke="#F6B545" stroke-width="10.7848" mask="url(#path-3-inside-2_757_4593)"/>
<mask id="path-4-inside-3_757_4593" fill="white">
<path d="M75.5023 96.7687C75.8937 97.596 76.8886 97.9575 77.6625 97.4691C79.052 96.5921 80.2762 95.4697 81.2731 94.1523C82.2699 92.8348 83.0173 91.3516 83.4835 89.776C83.7432 88.8984 83.1248 88.0393 82.2222 87.8875C81.3197 87.7357 80.4775 88.3511 80.1841 89.2181C79.8281 90.2699 79.3044 91.2612 78.6301 92.1524C77.9557 93.0436 77.1441 93.8171 76.2287 94.4456C75.4742 94.9636 75.1109 95.9414 75.5023 96.7687Z"/>
</mask>
<path d="M75.5023 96.7687C75.8937 97.596 76.8886 97.9575 77.6625 97.4691C79.052 96.5921 80.2762 95.4697 81.2731 94.1523C82.2699 92.8348 83.0173 91.3516 83.4835 89.776C83.7432 88.8984 83.1248 88.0393 82.2222 87.8875C81.3197 87.7357 80.4775 88.3511 80.1841 89.2181C79.8281 90.2699 79.3044 91.2612 78.6301 92.1524C77.9557 93.0436 77.1441 93.8171 76.2287 94.4456C75.4742 94.9636 75.1109 95.9414 75.5023 96.7687Z" fill="#F6B545" stroke="#FFCB5B" stroke-width="10.7848" mask="url(#path-4-inside-3_757_4593)"/>
<path d="M68.261 80.8043C68.9206 78.7744 71.7924 78.7744 72.4519 80.8043C72.7469 81.7121 73.5929 82.3267 74.5474 82.3267C76.6818 82.3267 77.5692 85.058 75.8425 86.3125C75.0702 86.8736 74.7471 87.8681 75.0421 88.7759C75.7016 90.8058 73.3783 92.4938 71.6515 91.2393C70.8793 90.6782 69.8336 90.6782 69.0614 91.2393C67.3346 92.4938 65.0113 90.8058 65.6709 88.7759C65.9658 87.8681 65.6427 86.8736 64.8705 86.3125C63.1437 85.058 64.0311 82.3267 66.1655 82.3267C67.1201 82.3267 67.966 81.7121 68.261 80.8043Z" fill="#F19C23"/>
<circle cx="20.7124" cy="51.2466" r="17.6714" fill="#F6B545" stroke="#FFCB5B" stroke-width="6.06643"/>
<mask id="path-7-inside-4_757_4593" fill="white">
<path d="M18.6947 32.0012C18.6168 31.2576 17.9496 30.7135 17.2127 30.8399C13.053 31.5532 9.19857 33.5235 6.17757 36.5015C3.15657 39.4794 1.13106 43.3051 0.358083 47.4542C0.221148 48.1892 0.755626 48.8641 1.49802 48.9527C2.24041 49.0413 2.90893 48.5098 3.05309 47.7762C3.7486 44.2367 5.4946 40.9765 8.07828 38.4297C10.662 35.8828 13.9469 34.1838 17.496 33.5392C18.2316 33.4056 18.7727 32.7448 18.6947 32.0012Z"/>
</mask>
<path d="M18.6947 32.0012C18.6168 31.2576 17.9496 30.7135 17.2127 30.8399C13.053 31.5532 9.19857 33.5235 6.17757 36.5015C3.15657 39.4794 1.13106 43.3051 0.358083 47.4542C0.221148 48.1892 0.755626 48.8641 1.49802 48.9527C2.24041 49.0413 2.90893 48.5098 3.05309 47.7762C3.7486 44.2367 5.4946 40.9765 8.07828 38.4297C10.662 35.8828 13.9469 34.1838 17.496 33.5392C18.2316 33.4056 18.7727 32.7448 18.6947 32.0012Z" fill="#F6B545" stroke="#FFE27A" stroke-width="10.7848" mask="url(#path-7-inside-4_757_4593)"/>
<mask id="path-8-inside-5_757_4593" fill="white">
<path d="M23.4326 70.4053C23.5377 71.1455 24.2243 71.6648 24.9561 71.5116C29.087 70.6466 32.8668 68.5366 35.7768 65.4502C38.6869 62.3638 40.5711 58.4666 41.1918 54.292C41.3018 53.5525 40.743 52.8976 39.9978 52.8361C39.2527 52.7747 38.6041 53.3304 38.4868 54.0688C37.9212 57.6313 36.2957 60.9532 33.8069 63.5928C31.3181 66.2324 28.0974 68.0504 24.5743 68.8244C23.8441 68.9849 23.3275 69.665 23.4326 70.4053Z"/>
</mask>
<path d="M23.4326 70.4053C23.5377 71.1455 24.2243 71.6648 24.9561 71.5116C29.087 70.6466 32.8668 68.5366 35.7768 65.4502C38.6869 62.3638 40.5711 58.4666 41.1918 54.292C41.3018 53.5525 40.743 52.8976 39.9978 52.8361C39.2527 52.7747 38.6041 53.3304 38.4868 54.0688C37.9212 57.6313 36.2957 60.9532 33.8069 63.5928C31.3181 66.2324 28.0974 68.0504 24.5743 68.8244C23.8441 68.9849 23.3275 69.665 23.4326 70.4053Z" fill="#F6B545" stroke="#F6B545" stroke-width="10.7848" mask="url(#path-8-inside-5_757_4593)"/>
<mask id="path-9-inside-6_757_4593" fill="white">
<path d="M25.5023 61.7687C25.8937 62.596 26.8886 62.9575 27.6625 62.4691C29.052 61.5921 30.2762 60.4697 31.2731 59.1523C32.2699 57.8348 33.0173 56.3516 33.4835 54.776C33.7432 53.8984 33.1248 53.0393 32.2222 52.8875C31.3197 52.7357 30.4775 53.3511 30.1841 54.2181C29.8281 55.2699 29.3044 56.2612 28.6301 57.1524C27.9557 58.0436 27.1441 58.8171 26.2287 59.4456C25.4742 59.9636 25.1109 60.9414 25.5023 61.7687Z"/>
</mask>
<path d="M25.5023 61.7687C25.8937 62.596 26.8886 62.9575 27.6625 62.4691C29.052 61.5921 30.2762 60.4697 31.2731 59.1523C32.2699 57.8348 33.0173 56.3516 33.4835 54.776C33.7432 53.8984 33.1248 53.0393 32.2222 52.8875C31.3197 52.7357 30.4775 53.3511 30.1841 54.2181C29.8281 55.2699 29.3044 56.2612 28.6301 57.1524C27.9557 58.0436 27.1441 58.8171 26.2287 59.4456C25.4742 59.9636 25.1109 60.9414 25.5023 61.7687Z" fill="#F6B545" stroke="#FFCB5B" stroke-width="10.7848" mask="url(#path-9-inside-6_757_4593)"/>
<path d="M18.261 45.8043C18.9206 43.7744 21.7924 43.7744 22.4519 45.8043C22.7469 46.7121 23.5929 47.3267 24.5474 47.3267C26.6818 47.3267 27.5692 50.058 25.8425 51.3125C25.0702 51.8736 24.7471 52.8681 25.0421 53.7759C25.7016 55.8058 23.3783 57.4938 21.6515 56.2393C20.8793 55.6782 19.8336 55.6782 19.0614 56.2393C17.3346 57.4938 15.0113 55.8058 15.6709 53.7759C15.9658 52.8681 15.6427 51.8736 14.8705 51.3125C13.1437 50.058 14.0311 47.3267 16.1655 47.3267C17.1201 47.3267 17.966 46.7121 18.261 45.8043Z" fill="#F19C23"/>
<circle cx="103.712" cy="21.2466" r="17.6714" fill="#F6B545" stroke="#FFCB5B" stroke-width="6.06643"/>
<mask id="path-12-inside-7_757_4593" fill="white">
<path d="M101.695 2.00123C101.617 1.25764 100.95 0.713526 100.213 0.839889C96.053 1.55319 92.1986 3.52354 89.1776 6.50146C86.1566 9.47937 84.1311 13.3051 83.3581 17.4542C83.2211 18.1892 83.7556 18.8641 84.498 18.9527C85.2404 19.0413 85.9089 18.5098 86.0531 17.7762C86.7486 14.2367 88.4946 10.9765 91.0783 8.42967C93.662 5.88283 96.9469 4.18384 100.496 3.53925C101.232 3.40564 101.773 2.74482 101.695 2.00123Z"/>
</mask>
<path d="M101.695 2.00123C101.617 1.25764 100.95 0.713526 100.213 0.839889C96.053 1.55319 92.1986 3.52354 89.1776 6.50146C86.1566 9.47937 84.1311 13.3051 83.3581 17.4542C83.2211 18.1892 83.7556 18.8641 84.498 18.9527C85.2404 19.0413 85.9089 18.5098 86.0531 17.7762C86.7486 14.2367 88.4946 10.9765 91.0783 8.42967C93.662 5.88283 96.9469 4.18384 100.496 3.53925C101.232 3.40564 101.773 2.74482 101.695 2.00123Z" fill="#F6B545" stroke="#FFE27A" stroke-width="10.7848" mask="url(#path-12-inside-7_757_4593)"/>
<mask id="path-13-inside-8_757_4593" fill="white">
<path d="M106.433 40.4053C106.538 41.1455 107.224 41.6648 107.956 41.5116C112.087 40.6466 115.867 38.5366 118.777 35.4502C121.687 32.3638 123.571 28.4666 124.192 24.292C124.302 23.5525 123.743 22.8976 122.998 22.8361C122.253 22.7747 121.604 23.3304 121.487 24.0688C120.921 27.6313 119.296 30.9532 116.807 33.5928C114.318 36.2324 111.097 38.0504 107.574 38.8244C106.844 38.9849 106.328 39.665 106.433 40.4053Z"/>
</mask>
<path d="M106.433 40.4053C106.538 41.1455 107.224 41.6648 107.956 41.5116C112.087 40.6466 115.867 38.5366 118.777 35.4502C121.687 32.3638 123.571 28.4666 124.192 24.292C124.302 23.5525 123.743 22.8976 122.998 22.8361C122.253 22.7747 121.604 23.3304 121.487 24.0688C120.921 27.6313 119.296 30.9532 116.807 33.5928C114.318 36.2324 111.097 38.0504 107.574 38.8244C106.844 38.9849 106.328 39.665 106.433 40.4053Z" fill="#F6B545" stroke="#F6B545" stroke-width="10.7848" mask="url(#path-13-inside-8_757_4593)"/>
<mask id="path-14-inside-9_757_4593" fill="white">
<path d="M108.502 31.7687C108.894 32.596 109.889 32.9575 110.663 32.4691C112.052 31.5921 113.276 30.4697 114.273 29.1523C115.27 27.8348 116.017 26.3516 116.483 24.776C116.743 23.8984 116.125 23.0393 115.222 22.8875C114.32 22.7357 113.477 23.3511 113.184 24.2181C112.828 25.2699 112.304 26.2612 111.63 27.1524C110.956 28.0436 110.144 28.8171 109.229 29.4456C108.474 29.9636 108.111 30.9414 108.502 31.7687Z"/>
</mask>
<path d="M108.502 31.7687C108.894 32.596 109.889 32.9575 110.663 32.4691C112.052 31.5921 113.276 30.4697 114.273 29.1523C115.27 27.8348 116.017 26.3516 116.483 24.776C116.743 23.8984 116.125 23.0393 115.222 22.8875C114.32 22.7357 113.477 23.3511 113.184 24.2181C112.828 25.2699 112.304 26.2612 111.63 27.1524C110.956 28.0436 110.144 28.8171 109.229 29.4456C108.474 29.9636 108.111 30.9414 108.502 31.7687Z" fill="#F6B545" stroke="#FFCB5B" stroke-width="10.7848" mask="url(#path-14-inside-9_757_4593)"/>
<path d="M101.261 15.8043C101.921 13.7744 104.792 13.7744 105.452 15.8043C105.747 16.7121 106.593 17.3267 107.547 17.3267C109.682 17.3267 110.569 20.058 108.842 21.3125C108.07 21.8736 107.747 22.8681 108.042 23.7759C108.702 25.8058 106.378 27.4938 104.652 26.2393C103.879 25.6782 102.834 25.6782 102.061 26.2393C100.335 27.4938 98.0113 25.8058 98.6709 23.7759C98.9658 22.8681 98.6427 21.8736 97.8705 21.3125C96.1437 20.058 97.0311 17.3267 99.1655 17.3267C100.12 17.3267 100.966 16.7121 101.261 15.8043Z" fill="#F19C23"/>
</svg>
