<svg width="137" height="91" viewBox="0 0 137 91" fill="none" xmlns="http://www.w3.org/2000/svg">
<g filter="url(#filter0_d_802_457)">
<circle cx="109.83" cy="46.7659" r="17.6714" fill="#F6B545" stroke="#FFCB5B" stroke-width="6.06643"/>
<mask id="path-2-inside-1_802_457" fill="white">
<path d="M107.812 27.5205C107.734 26.7769 107.067 26.2328 106.33 26.3592C102.171 27.0725 98.3162 29.0428 95.2952 32.0207C92.2742 34.9987 90.2487 38.8244 89.4758 42.9734C89.3388 43.7085 89.8733 44.3834 90.6157 44.472C91.3581 44.5606 92.0266 44.0291 92.1708 43.2955C92.8663 39.756 94.6123 36.4958 97.196 33.949C99.7796 31.4021 103.065 29.7031 106.614 29.0585C107.349 28.9249 107.89 28.2641 107.812 27.5205Z"/>
</mask>
<path d="M107.812 27.5205C107.734 26.7769 107.067 26.2328 106.33 26.3592C102.171 27.0725 98.3162 29.0428 95.2952 32.0207C92.2742 34.9987 90.2487 38.8244 89.4758 42.9734C89.3388 43.7085 89.8733 44.3834 90.6157 44.472C91.3581 44.5606 92.0266 44.0291 92.1708 43.2955C92.8663 39.756 94.6123 36.4958 97.196 33.949C99.7796 31.4021 103.065 29.7031 106.614 29.0585C107.349 28.9249 107.89 28.2641 107.812 27.5205Z" fill="#F6B545" stroke="#FFE27A" stroke-width="10.7848" mask="url(#path-2-inside-1_802_457)"/>
<mask id="path-3-inside-2_802_457" fill="white">
<path d="M112.55 65.9245C112.655 66.6648 113.342 67.1841 114.074 67.0309C118.205 66.1659 121.984 64.0559 124.895 60.9695C127.805 57.8831 129.689 53.9858 130.309 49.8113C130.419 49.0717 129.861 48.4168 129.116 48.3554C128.37 48.294 127.722 48.8496 127.605 49.5881C127.039 53.1506 125.413 56.4725 122.925 59.1121C120.436 61.7517 117.215 63.5697 113.692 64.3437C112.962 64.5041 112.445 65.1843 112.55 65.9245Z"/>
</mask>
<path d="M112.55 65.9245C112.655 66.6648 113.342 67.1841 114.074 67.0309C118.205 66.1659 121.984 64.0559 124.895 60.9695C127.805 57.8831 129.689 53.9858 130.309 49.8113C130.419 49.0717 129.861 48.4168 129.116 48.3554C128.37 48.294 127.722 48.8496 127.605 49.5881C127.039 53.1506 125.413 56.4725 122.925 59.1121C120.436 61.7517 117.215 63.5697 113.692 64.3437C112.962 64.5041 112.445 65.1843 112.55 65.9245Z" fill="#F6B545" stroke="#F6B545" stroke-width="10.7848" mask="url(#path-3-inside-2_802_457)"/>
<mask id="path-4-inside-3_802_457" fill="white">
<path d="M114.62 57.288C115.011 58.1153 116.006 58.4768 116.78 57.9883C118.17 57.1114 119.394 55.989 120.391 54.6715C121.388 53.3541 122.135 51.8709 122.601 50.2953C122.861 49.4177 122.242 48.5586 121.34 48.4068C120.437 48.255 119.595 48.8704 119.302 49.7374C118.946 50.7892 118.422 51.7805 117.748 52.6717C117.073 53.5629 116.262 54.3364 115.346 54.9649C114.592 55.4829 114.229 56.4607 114.62 57.288Z"/>
</mask>
<path d="M114.62 57.288C115.011 58.1153 116.006 58.4768 116.78 57.9883C118.17 57.1114 119.394 55.989 120.391 54.6715C121.388 53.3541 122.135 51.8709 122.601 50.2953C122.861 49.4177 122.242 48.5586 121.34 48.4068C120.437 48.255 119.595 48.8704 119.302 49.7374C118.946 50.7892 118.422 51.7805 117.748 52.6717C117.073 53.5629 116.262 54.3364 115.346 54.9649C114.592 55.4829 114.229 56.4607 114.62 57.288Z" fill="#F6B545" stroke="#FFCB5B" stroke-width="10.7848" mask="url(#path-4-inside-3_802_457)"/>
<path d="M107.379 41.3236C108.038 39.2936 110.91 39.2936 111.57 41.3236C111.865 42.2314 112.711 42.846 113.665 42.846C115.799 42.846 116.687 45.5773 114.96 46.8318C114.188 47.3929 113.865 48.3874 114.16 49.2952C114.819 51.3251 112.496 53.0131 110.769 51.7586C109.997 51.1975 108.951 51.1975 108.179 51.7586C106.452 53.0131 104.129 51.3251 104.789 49.2952C105.084 48.3874 104.76 47.3929 103.988 46.8318C102.261 45.5773 103.149 42.846 105.283 42.846C106.238 42.846 107.084 42.2314 107.379 41.3236Z" fill="#F19C23"/>
</g>
<g filter="url(#filter1_d_802_457)">
<rect x="17.6041" y="34.365" width="78.4695" height="35.8774" rx="3.34107" transform="rotate(-9.6046 17.6041 34.365)" fill="#3BB54A" stroke="#0E9347" stroke-width="5.01161"/>
<circle cx="59.2815" cy="45.5059" r="14.007" transform="rotate(-9.6046 59.2815 45.5059)" fill="#0E9347"/>
<circle cx="36.9582" cy="49.2834" r="3.22851" transform="rotate(-9.6046 36.9582 49.2834)" fill="#0E9347"/>
<circle cx="81.6042" cy="41.7284" r="3.22851" transform="rotate(-9.6046 81.6042 41.7284)" fill="#0E9347"/>
<path d="M58.3399 42.8653L58.8228 50.6168C58.8753 51.5993 58.2064 51.6799 57.4638 51.8056L56.0577 52.0435C55.3152 52.1692 54.7151 52.3683 54.3913 51.4155L51.0527 41.482C50.8325 40.853 50.9631 40.3758 51.8369 40.0655C53.0317 39.6357 53.4663 39.611 53.7106 40.3822C54.6345 43.2486 55.6368 46.9631 56.2955 49.1268L56.5167 49.0894C56.4333 47.3483 56.1862 43.2948 56.1371 40.5079C56.1225 39.9415 56.4455 39.5456 57.1249 39.4306L58.452 39.2061C59.1314 39.0911 59.5667 39.3587 59.755 39.8956C60.6415 42.5409 61.7391 46.4342 62.2201 48.1242L62.4255 48.0895C62.3514 45.8268 62.06 41.9921 62.0024 38.9628C61.982 38.1699 62.4479 38.0423 63.6703 38.063C64.5818 38.0713 64.8751 38.4604 64.8768 39.1427L64.9924 49.6215C65.0002 50.6278 64.368 50.6373 63.6096 50.7656L62.2035 51.0035C61.4768 51.1265 60.8186 51.2704 60.5449 50.3254C60.2287 49.225 58.9743 44.7894 58.4505 42.8466L58.3399 42.8653Z" fill="#89C763"/>
<g filter="url(#filter2_d_802_457)">
<rect x="6.60909" y="32.082" width="78.4695" height="35.8774" rx="3.34107" transform="rotate(-19.6256 6.60909 32.082)" fill="#3BB54A" stroke="#0E9347" stroke-width="5.01161"/>
<circle cx="49.5903" cy="35.8006" r="14.007" transform="rotate(-19.6256 49.5903 35.8006)" fill="#0E9347"/>
<circle cx="28.2645" cy="43.4048" r="3.22851" transform="rotate(-19.6256 28.2645 43.4048)" fill="#0E9347"/>
<circle cx="70.9154" cy="28.1963" r="3.22851" transform="rotate(-19.6256 70.9154 28.1963)" fill="#0E9347"/>
<path d="M48.2031 33.3645L50.0274 40.9137C50.2501 41.872 49.6054 42.0679 48.896 42.3208L47.5528 42.7998C46.8434 43.0528 46.2871 43.3532 45.8025 42.4713L40.7863 33.2703C40.46 32.6892 40.5056 32.1967 41.312 31.739C42.4139 31.1079 42.8376 31.0078 43.2123 31.7248C44.6208 34.3867 46.2542 37.8701 47.2794 39.8862L47.4907 39.8109C47.1056 38.1109 46.1569 34.1622 45.6236 31.4263C45.5107 30.8712 45.7599 30.4251 46.4089 30.1937L47.6767 29.7416C48.3257 29.5102 48.8009 29.6979 49.0799 30.1939C50.413 32.6445 52.1714 36.2875 52.9391 37.868L53.1353 37.798C52.6686 35.5828 51.7144 31.8572 51.1306 28.8842C50.9725 28.107 51.4092 27.9003 52.6165 27.7079C53.5155 27.5575 53.8721 27.8896 53.9925 28.5612L55.9297 38.86C56.1125 39.8496 55.4916 39.9689 54.7671 40.2273L53.4239 40.7063C52.7296 40.9538 52.1065 41.2101 51.6725 40.3271C51.1697 39.2985 49.1626 35.1489 48.3087 33.3269L48.2031 33.3645Z" fill="#89C763"/>
</g>
</g>
<g filter="url(#filter3_d_802_457)">
<circle cx="88.4238" cy="64.1094" r="17.6714" fill="#F6B545" stroke="#FFCB5B" stroke-width="6.06643"/>
<mask id="path-17-inside-4_802_457" fill="white">
<path d="M86.4062 44.864C86.3282 44.1204 85.6611 43.5763 84.9242 43.7027C80.7644 44.416 76.91 46.3863 73.889 49.3642C70.868 52.3422 68.8425 56.1679 68.0695 60.3169C67.9326 61.052 68.4671 61.7269 69.2094 61.8155C69.9518 61.9041 70.6204 61.3726 70.7645 60.639C71.46 57.0995 73.206 53.8393 75.7897 51.2925C78.3734 48.7456 81.6584 47.0466 85.2074 46.402C85.9431 46.2684 86.4841 45.6076 86.4062 44.864Z"/>
</mask>
<path d="M86.4062 44.864C86.3282 44.1204 85.6611 43.5763 84.9242 43.7027C80.7644 44.416 76.91 46.3863 73.889 49.3642C70.868 52.3422 68.8425 56.1679 68.0695 60.3169C67.9326 61.052 68.4671 61.7269 69.2094 61.8155C69.9518 61.9041 70.6204 61.3726 70.7645 60.639C71.46 57.0995 73.206 53.8393 75.7897 51.2925C78.3734 48.7456 81.6584 47.0466 85.2074 46.402C85.9431 46.2684 86.4841 45.6076 86.4062 44.864Z" fill="#F6B545" stroke="#FFE27A" stroke-width="10.7848" mask="url(#path-17-inside-4_802_457)"/>
<mask id="path-18-inside-5_802_457" fill="white">
<path d="M91.1441 83.2681C91.2492 84.0083 91.9358 84.5276 92.6676 84.3744C96.7984 83.5094 100.578 81.3994 103.488 78.313C106.398 75.2266 108.283 71.3293 108.903 67.1548C109.013 66.4153 108.454 65.7604 107.709 65.6989C106.964 65.6375 106.315 66.1931 106.198 66.9316C105.633 70.4941 104.007 73.816 101.518 76.4556C99.0295 79.0952 95.8088 80.9132 92.2857 81.6872C91.5555 81.8476 91.0389 82.5278 91.1441 83.2681Z"/>
</mask>
<path d="M91.1441 83.2681C91.2492 84.0083 91.9358 84.5276 92.6676 84.3744C96.7984 83.5094 100.578 81.3994 103.488 78.313C106.398 75.2266 108.283 71.3293 108.903 67.1548C109.013 66.4153 108.454 65.7604 107.709 65.6989C106.964 65.6375 106.315 66.1931 106.198 66.9316C105.633 70.4941 104.007 73.816 101.518 76.4556C99.0295 79.0952 95.8088 80.9132 92.2857 81.6872C91.5555 81.8476 91.0389 82.5278 91.1441 83.2681Z" fill="#F6B545" stroke="#F6B545" stroke-width="10.7848" mask="url(#path-18-inside-5_802_457)"/>
<mask id="path-19-inside-6_802_457" fill="white">
<path d="M93.2137 74.6315C93.6052 75.4588 94.6 75.8203 95.374 75.3319C96.7635 74.4549 97.9877 73.3325 98.9845 72.015C99.9814 70.6976 100.729 69.2144 101.195 67.6388C101.455 66.7612 100.836 65.9021 99.9337 65.7503C99.0311 65.5985 98.1889 66.2139 97.8955 67.0809C97.5395 68.1327 97.0158 69.124 96.3415 70.0152C95.6671 70.9064 94.8555 71.6799 93.9401 72.3084C93.1856 72.8264 92.8223 73.8042 93.2137 74.6315Z"/>
</mask>
<path d="M93.2137 74.6315C93.6052 75.4588 94.6 75.8203 95.374 75.3319C96.7635 74.4549 97.9877 73.3325 98.9845 72.015C99.9814 70.6976 100.729 69.2144 101.195 67.6388C101.455 66.7612 100.836 65.9021 99.9337 65.7503C99.0311 65.5985 98.1889 66.2139 97.8955 67.0809C97.5395 68.1327 97.0158 69.124 96.3415 70.0152C95.6671 70.9064 94.8555 71.6799 93.9401 72.3084C93.1856 72.8264 92.8223 73.8042 93.2137 74.6315Z" fill="#F6B545" stroke="#FFCB5B" stroke-width="10.7848" mask="url(#path-19-inside-6_802_457)"/>
<path d="M85.9724 58.6671C86.632 56.6372 89.5038 56.6372 90.1634 58.6671C90.4583 59.5749 91.3043 60.1895 92.2588 60.1895C94.3932 60.1895 95.2807 62.9208 93.5539 64.1753C92.7817 64.7364 92.4585 65.7309 92.7535 66.6387C93.4131 68.6686 91.0897 70.3566 89.363 69.1021C88.5907 68.541 87.5451 68.541 86.7728 69.1021C85.0461 70.3566 82.7227 68.6686 83.3823 66.6387C83.6773 65.7309 83.3541 64.7364 82.5819 64.1753C80.8551 62.9208 81.7426 60.1895 83.877 60.1895C84.8315 60.1895 85.6775 59.5749 85.9724 58.6671Z" fill="#F19C23"/>
</g>
<defs>
<filter id="filter0_d_802_457" x="87.1255" y="24.0613" width="49.4092" height="49.4092" filterUnits="userSpaceOnUse" color-interpolation-filters="sRGB">
<feFlood flood-opacity="0" result="BackgroundImageFix"/>
<feColorMatrix in="SourceAlpha" type="matrix" values="0 0 0 0 0 0 0 0 0 0 0 0 0 0 0 0 0 0 127 0" result="hardAlpha"/>
<feOffset dx="2" dy="2"/>
<feGaussianBlur stdDeviation="2"/>
<feComposite in2="hardAlpha" operator="out"/>
<feColorMatrix type="matrix" values="0 0 0 0 0 0 0 0 0 0 0 0 0 0 0 0 0 0 0.25 0"/>
<feBlend mode="normal" in2="BackgroundImageFix" result="effect1_dropShadow_802_457"/>
<feBlend mode="normal" in="SourceGraphic" in2="effect1_dropShadow_802_457" result="shape"/>
</filter>
<filter id="filter1_d_802_457" x="4.12979" y="3.24685" width="105.726" height="75.3887" filterUnits="userSpaceOnUse" color-interpolation-filters="sRGB">
<feFlood flood-opacity="0" result="BackgroundImageFix"/>
<feColorMatrix in="SourceAlpha" type="matrix" values="0 0 0 0 0 0 0 0 0 0 0 0 0 0 0 0 0 0 127 0" result="hardAlpha"/>
<feOffset dx="3" dy="3"/>
<feGaussianBlur stdDeviation="1.95"/>
<feComposite in2="hardAlpha" operator="out"/>
<feColorMatrix type="matrix" values="0 0 0 0 0 0 0 0 0 0 0 0 0 0 0 0 0 0 0.33 0"/>
<feBlend mode="normal" in2="BackgroundImageFix" result="effect1_dropShadow_802_457"/>
<feBlend mode="normal" in="SourceGraphic" in2="effect1_dropShadow_802_457" result="shape"/>
</filter>
<filter id="filter2_d_802_457" x="4.19452" y="4.14685" width="95.8018" height="69.9898" filterUnits="userSpaceOnUse" color-interpolation-filters="sRGB">
<feFlood flood-opacity="0" result="BackgroundImageFix"/>
<feColorMatrix in="SourceAlpha" type="matrix" values="0 0 0 0 0 0 0 0 0 0 0 0 0 0 0 0 0 0 127 0" result="hardAlpha"/>
<feOffset dx="2.5058" dy="3.34107"/>
<feGaussianBlur stdDeviation="1.67054"/>
<feComposite in2="hardAlpha" operator="out"/>
<feColorMatrix type="matrix" values="0 0 0 0 0 0 0 0 0 0 0 0 0 0 0 0 0 0 0.25 0"/>
<feBlend mode="normal" in2="BackgroundImageFix" result="effect1_dropShadow_802_457"/>
<feBlend mode="normal" in="SourceGraphic" in2="effect1_dropShadow_802_457" result="shape"/>
</filter>
<filter id="filter3_d_802_457" x="66.7192" y="41.4048" width="49.4092" height="49.4092" filterUnits="userSpaceOnUse" color-interpolation-filters="sRGB">
<feFlood flood-opacity="0" result="BackgroundImageFix"/>
<feColorMatrix in="SourceAlpha" type="matrix" values="0 0 0 0 0 0 0 0 0 0 0 0 0 0 0 0 0 0 127 0" result="hardAlpha"/>
<feOffset dx="3" dy="2"/>
<feGaussianBlur stdDeviation="2"/>
<feComposite in2="hardAlpha" operator="out"/>
<feColorMatrix type="matrix" values="0 0 0 0 0 0 0 0 0 0 0 0 0 0 0 0 0 0 0.25 0"/>
<feBlend mode="normal" in2="BackgroundImageFix" result="effect1_dropShadow_802_457"/>
<feBlend mode="normal" in="SourceGraphic" in2="effect1_dropShadow_802_457" result="shape"/>
</filter>
</defs>
</svg>
