<svg width="376" height="372" viewBox="0 0 376 372" fill="none" xmlns="http://www.w3.org/2000/svg">
<path d="M177.288 180.531C170.685 179.083 169.284 182.824 169.409 184.875C163.106 196.023 174.536 198.569 181.039 198.448C186.041 198.93 195.483 197.471 193.232 187.77C190.981 178.07 181.665 178.902 177.288 180.531Z" fill="#E9E8E6" fill-opacity="0.8"/>
<path d="M158.951 182.254C162.319 178.2 160.231 175.891 158.766 175.242C153.306 166.884 147.448 173.886 145.201 178.432C143.075 181.723 140.703 188.783 148.226 190.7C155.749 192.617 158.511 185.868 158.951 182.254Z" fill="#E9E8E6" fill-opacity="0.8"/>
<path d="M226.839 133.143C226.068 125.664 221.655 125.472 219.545 126.311C205.654 123.49 206.947 136.45 209.33 143.283C210.559 148.737 215.367 158.215 224.771 152.492C234.174 146.77 230.068 137.208 226.839 133.143Z" fill="#E9E8E6" fill-opacity="0.8"/>
<path d="M222.075 285.673C233.549 288.075 235.927 281.611 235.682 278.079C246.461 258.783 226.597 254.557 215.318 254.855C206.634 254.094 190.275 256.741 194.315 273.423C198.354 290.105 214.504 288.54 222.075 285.673Z" fill="#E9E8E6" fill-opacity="0.8"/>
<path d="M183.074 371.028C159.558 372.988 157.876 360.841 154.893 354.78C142.88 346.228 137.49 325.72 157.573 312.528C167.882 305.757 175.495 309.707 179.074 312.528C182.534 307.094 192.172 297.028 213.074 297.028C233.976 297.028 245.207 303.023 247.236 308.77C255.348 311.592 268.574 315.227 268.574 331.528C268.574 351.905 256.314 355.522 244.574 357.528C232.834 359.535 216.057 354.395 213.074 350.528C212.835 355.544 201.074 369.528 183.074 371.028Z" fill="#E9E8E6" fill-opacity="0.8"/>
<path d="M325.501 124.907C320.096 146.767 295.752 144.945 284.255 141.302C272.396 145.789 248.84 122.79 267.545 104.413C267.544 100.889 269.889 93.4284 279.277 91.7828C282.406 83.5914 292.907 81.5334 297.767 81.5283C327.065 81.5283 328.464 110.447 325.501 124.907Z" fill="#E9E8E6" fill-opacity="0.8"/>
<path d="M84.9357 279.095C106.183 277.127 111.604 298.655 111.659 309.665C119.138 318.523 105.266 345.79 83.2966 335.242C80.124 336.311 72.7278 336.552 68.5233 328.961C60.2414 328.748 55.3428 320.323 53.9287 316.138C45.4305 290.894 71.0591 280.924 84.9357 279.095Z" fill="#E9E8E6" fill-opacity="0.8"/>
<path d="M7.64501 92.0035C-9.23918 135.493 30.3848 154.73 53.3845 156.73C65.3127 156.898 97.0844 154.33 91.8844 124.73C98.2177 121.396 108.984 110.63 101.384 94.2299C115.031 72.9065 108.884 41.7299 78.8844 37.7299C51.3372 34.0569 40.0354 47.1505 37.5842 62.9701C22.877 65.6501 11.4968 83.4424 7.64501 92.0035Z" fill="#E9E8E6" fill-opacity="0.8"/>
<path d="M208.769 47.1127C213.671 22.9181 208.769 3.53534 176.573 0.5326C147.201 -2.20683 135.073 28.533 152.573 48.5285C128.173 72.5285 144.737 87.5818 158.073 92.0035C171.409 96.4253 191.073 88.0283 193.304 75.6406C213.894 69.8339 212.971 56.4183 208.769 47.1127Z" fill="#E9E8E6" fill-opacity="0.8"/>
<path d="M89.5252 188.777C74.1287 179.892 66.4489 186.846 64.5336 191.434C61.367 192.488 53.0031 203.55 70.2896 212.387C87.5761 221.224 93.3342 213.82 94.8614 213.033C96.3886 212.246 108.771 199.883 89.5252 188.777Z" fill="#E9E8E6" fill-opacity="0.8"/>
<path d="M293.171 231.763C301.889 226.013 299.842 219.935 297.729 217.614C297.904 215.62 293.715 208.017 284.566 214.794C275.417 221.571 278.182 226.746 278.255 227.786C278.327 228.827 282.273 238.951 293.171 231.763Z" fill="#E9E8E6" fill-opacity="0.8"/>
<path d="M281.189 172.723C273.371 168.76 269.791 172.78 268.979 175.286C267.452 175.988 263.652 182.204 272.398 186.054C281.144 189.904 283.766 185.736 284.494 185.25C285.223 184.765 290.961 177.677 281.189 172.723Z" fill="#E9E8E6" fill-opacity="0.8"/>
<path d="M211.189 107.723C203.371 103.76 199.791 107.78 198.979 110.286C197.452 110.988 193.652 117.204 202.398 121.054C211.144 124.904 213.766 120.736 214.494 120.25C215.223 119.765 220.961 112.677 211.189 107.723Z" fill="#E9E8E6" fill-opacity="0.8"/>
<path d="M257.831 98.3087C263.393 81.2268 254.847 75.1008 249.88 74.1731C248.16 71.2656 235.386 65.3275 230.273 84.2667C225.161 103.206 233.745 107.338 234.852 108.682C235.959 110.026 250.878 119.661 257.831 98.3087Z" fill="#E9E8E6" fill-opacity="0.8"/>
<path d="M353.5 253.701C358.716 245.942 366.619 226.337 355.546 211.385C338.335 188.354 308.27 219.647 311.167 227.392C302.664 233.153 303.312 242.481 304.7 246.424C303.446 277.082 342.562 269.972 353.5 253.701Z" fill="#E9E8E6" fill-opacity="0.8"/>
<path d="M298.27 137.295C308.543 139.433 316.973 135.037 318.54 132.17C327.986 114.887 320.573 92.5283 305.899 86.4616C326.045 114.52 307.658 133.736 298.27 137.295Z" fill="#C7C4C2" fill-opacity="0.8"/>
<path d="M45.0732 139.028C16.2103 131.85 12.5732 115.528 10.0737 105.53C3.57324 120.028 19.9337 138.569 29.9267 143.842C68.9567 160.149 81.6314 144.358 87.9863 137.091C81.7805 141.694 73.9362 146.207 45.0732 139.028Z" fill="#C7C4C2" fill-opacity="0.8"/>
<path d="M158.657 81.9647C144.905 75.8917 146.065 68.866 146.073 63.0279C140.916 70.7897 145.939 79.9572 150.343 83.6389C168.095 95.5896 176.555 87.525 180.714 83.8499C176.971 86.0265 172.408 88.0377 158.657 81.9647Z" fill="#C7C4C2" fill-opacity="0.8"/>
</svg>
