<svg width="311" height="328" viewBox="0 0 311 328" fill="none" xmlns="http://www.w3.org/2000/svg">
<path d="M129.426 0.300781C138.112 0.300781 147.748 4.07607 156.477 10.542C164.864 16.7547 172.568 25.5625 177.974 36.2861C183.476 36.3262 191.175 37.3833 198.31 40.4824C205.564 43.6339 212.457 49.0085 215.595 57.7441C224.383 55.5191 236.736 54.6708 247.883 58.874C254.029 61.1915 259.816 65.0509 264.375 71.0488C268.931 77.0423 272.165 85.0446 273.408 95.5059C273.42 95.6037 273.426 95.7022 273.426 95.8008C273.426 99.2408 273.144 104.769 272.297 110.28C271.634 114.593 270.583 119.185 268.888 122.748C284.084 130.88 310.426 153.627 310.426 189.801C310.426 213.845 297.316 230.902 281.616 241.969C267.19 252.138 250.357 257.423 238.817 258.589C240.199 268.545 240.057 282.399 235.427 294.647C232.879 301.387 228.944 307.715 223.085 312.601C217.208 317.501 209.522 320.845 199.664 321.789C199.615 321.794 199.566 321.797 199.517 321.799C194.731 321.973 187.152 321.508 179.793 319.541C173.83 317.948 167.661 315.274 163.366 310.843C158.675 318.064 147.201 327.301 126.426 327.301C104.004 327.301 94.0489 314.632 91.1699 305.956C78.0619 309.544 52.0958 310.281 35.8965 287.761C25.0815 272.725 25.3793 256.885 28.7012 244.705C30.3597 238.624 32.7794 233.411 34.9854 229.577C36.0886 227.66 37.1505 226.067 38.0547 224.866C38.3601 224.461 38.654 224.092 38.9307 223.766C36.7622 218.827 34.4359 211.562 33.7002 203.941C32.9692 196.369 33.7796 188.066 38.2979 181.424C34.8336 178.952 30.8815 175.151 28.2002 170.297C25.0992 164.683 23.706 157.638 26.7471 149.837C22.238 147.047 16.4033 142.422 11.4258 136.317C5.67723 129.267 0.925891 120.06 0.925781 109.301C0.925781 83.8644 18.681 62.8912 38.5264 56.4189C38.948 50.9252 40.5685 43.3601 44.2432 36.4404C48.3621 28.6844 55.1847 21.5427 65.9258 19.3506C83.2801 15.8089 95.2609 17.0838 100.904 18.7744C103.094 15.5609 106.488 11.491 110.722 7.99707C115.739 3.85643 122.207 0.300781 129.426 0.300781ZM107.555 203.196C102.036 210.686 96.4775 211.792 94.542 211.5C94.54 211.5 94.5381 211.499 94.5361 211.499H94.5332L94.3779 212.487C99.2013 213.259 101.86 215.893 103.254 218.868C104.661 221.871 104.786 225.242 104.463 227.42L104.345 228.215L105.11 227.969C112.002 225.754 118.537 226.242 123.438 227.049C124.664 227.25 125.785 227.472 126.786 227.676C127.782 227.879 128.67 228.066 129.409 228.196C130.139 228.325 130.775 228.408 131.255 228.382C131.495 228.369 131.742 228.328 131.955 228.218C132.188 228.097 132.372 227.896 132.442 227.614C132.473 227.494 132.576 227.27 132.783 226.932C132.983 226.606 133.256 226.212 133.589 225.766C134.254 224.873 135.14 223.791 136.112 222.655C138.055 220.385 140.324 217.916 141.82 216.337L142.705 215.402L141.422 215.494C124.813 216.68 112.421 207.742 108.33 203.16L107.92 202.701L107.555 203.196ZM167.083 124.825C167.787 125.618 168.251 126.9 168.5 128.54C168.747 130.167 168.774 132.079 168.658 134.064C168.427 138.034 167.633 142.227 166.972 144.872L166.784 145.624L167.547 145.485C169.492 145.132 171.538 146.306 173.382 148.112C175.202 149.896 176.699 152.175 177.515 153.726L178.454 153.437C176.881 139.671 185.678 128.656 190.274 124.88L189.663 124.089C181.111 130.309 171.492 126.692 167.742 124.083L167.083 124.825Z" fill="#E9E8E6" fill-opacity="0.8"/>
<path d="M70.957 126.185C32.0644 135.381 14.3872 118.138 10.8515 105.493C3.77985 129.633 40.3139 151.475 61.5285 146.877L70.957 126.185Z" fill="#C7C4C2" fill-opacity="0.8"/>
<path d="M40.9572 191.993C50.5572 210.793 86.2905 204.16 102.957 198.493C101.357 204.893 93.6238 207.493 89.957 207.993V215.993C103.157 218.793 100.457 228.16 97.457 232.493C88.257 218.493 58.9571 219.66 45.4572 221.993C36.6572 205.593 38.7905 195.16 40.9572 191.993Z" fill="#C7C4C2" fill-opacity="0.8"/>
<path d="M229.957 125.994C205.557 121.594 189.124 141.494 183.957 151.994C179.557 144.394 190.457 129.827 196.457 123.493L194.457 119.494C259.957 125.994 267.457 112.994 266.957 114.494C266.457 115.994 260.457 131.494 229.957 125.994Z" fill="#C7C4C2" fill-opacity="0.8"/>
<path d="M173.457 154.993C167.457 196.193 131.124 204.493 114.957 202.993C121.957 211.993 141.624 212.66 150.457 210.993C147.657 201.393 161.957 190.326 169.457 185.993C167.057 179.593 176.124 163.993 180.957 156.993C176.157 159.793 173.957 156.826 173.457 154.993Z" fill="#C7C4C2" fill-opacity="0.8"/>
<path d="M94.9566 283.493C44.9566 285.093 36.1247 246.993 39.958 229.993C36.9593 232.993 19.4562 264.993 41.9562 288.993C59.9562 308.193 84.1229 304.66 93.9562 300.493C95.9562 312.093 105.79 318.326 110.456 319.993C133.656 327.993 150.123 314.326 155.456 306.493C117.856 324.893 99.4565 298.826 94.9566 283.493Z" fill="#C7C4C2" fill-opacity="0.8"/>
<path d="M205.957 231.993C209.957 247.593 227.624 252.826 235.957 253.493C288.757 249.893 303.29 212.993 303.957 194.993C281.957 240.193 229.457 238.493 205.957 231.993Z" fill="#C7C4C2" fill-opacity="0.8"/>
</svg>
