<svg width="412" height="440" viewBox="0 0 412 440" fill="none" xmlns="http://www.w3.org/2000/svg">
<path d="M157.61 213.347C145.42 210.68 142.834 217.57 143.065 221.348C131.429 241.885 152.531 246.574 164.536 246.352C173.771 247.241 191.202 244.551 187.046 226.682C182.89 208.813 165.69 210.347 157.61 213.347Z" fill="#E9E8E6" fill-opacity="0.8"/>
<path d="M226.47 159.703C225.439 149.696 219.534 149.439 216.71 150.562C198.122 146.787 199.852 164.129 203.041 173.272C204.685 180.57 211.12 193.252 223.703 185.595C236.286 177.938 230.791 165.144 226.47 159.703Z" fill="#E9E8E6" fill-opacity="0.8"/>
<path d="M216.177 316.644C227.652 319.047 230.03 312.583 229.784 309.051C240.563 289.755 220.7 285.528 209.421 285.827C200.736 285.066 184.378 287.713 188.417 304.395C192.457 321.076 208.607 319.512 216.177 316.644Z" fill="#E9E8E6" fill-opacity="0.8"/>
<path d="M177.581 439C147.081 437.24 142.782 421.357 138.92 413.5C123.366 402.413 110.58 370.955 136.581 353.852C149.927 345.074 164.869 348.976 169.503 352.633C173.982 345.589 189.707 331.5 216.769 331.5C243.83 331.5 255.848 346.402 258.473 353.852C268.977 357.51 289.984 370.109 289.984 391.242C289.984 417.659 266.351 427.006 247.352 430.257C232.153 432.858 220.63 423.484 216.769 418.472C216.46 424.974 203.581 440.5 177.581 439Z" fill="#E9E8E6" fill-opacity="0.8"/>
<path d="M350.147 159.629C342.116 191.946 305.945 189.252 288.863 183.866C271.242 190.5 236.242 156.5 264.034 129.332C264.033 124.121 267.517 113.092 281.466 110.66C286.115 98.5499 301.718 95.5075 308.939 95.5C352.471 95.5 354.549 138.252 350.147 159.629Z" fill="#E9E8E6" fill-opacity="0.8"/>
<path d="M72.6231 320.384C100.664 317.786 107.818 346.198 107.891 360.728C117.762 372.418 99.4544 408.403 70.4599 394.483C66.273 395.894 56.5119 396.211 50.963 386.194C40.033 385.912 33.5682 374.794 31.702 369.27C20.4865 335.954 54.3096 322.798 72.6231 320.384Z" fill="#E9E8E6" fill-opacity="0.8"/>
<path d="M4.43638 110.278C-12.4478 153.768 31.3774 179.685 59.3911 179.499C109.396 179.499 118.53 122.225 119.755 105.103C121.015 113.589 136.873 118.759 151.184 120.765C171.138 123.562 188.87 111.968 190.096 93.9151C210.686 88.1084 209.763 74.6928 205.561 65.3872C210.463 41.1926 215.484 5.31019 170.942 0.843495C126.4 -3.6232 114.565 36.5771 114.214 57.2355C113.164 50.9079 104.13 37.8059 76.396 36.0193C48.6625 34.2326 36.8267 65.425 34.3755 81.2446C19.6684 83.9246 8.28812 101.717 4.43638 110.278Z" fill="#E9E8E6" fill-opacity="0.8"/>
<path d="M90.7566 224.833C65.6729 210.357 53.1612 221.688 50.0408 229.162C44.8819 230.878 31.2556 248.901 59.4184 263.298C87.5812 277.696 96.962 265.632 99.4501 264.35C101.938 263.067 122.111 242.927 90.7566 224.833Z" fill="#E9E8E6" fill-opacity="0.8"/>
<path d="M295.192 270.557C306.716 262.957 304.01 254.923 301.217 251.856C301.448 249.219 295.911 239.169 283.819 248.128C271.726 257.086 275.38 263.925 275.476 265.301C275.572 266.677 280.787 280.058 295.192 270.557Z" fill="#E9E8E6" fill-opacity="0.8"/>
<path d="M294.291 217.695C286.473 213.731 282.894 217.752 282.081 220.257C280.555 220.959 276.755 227.175 285.5 231.025C294.246 234.876 296.868 230.708 297.597 230.222C298.325 229.736 304.064 222.649 294.291 217.695Z" fill="#E9E8E6" fill-opacity="0.8"/>
<path d="M256.815 124.856C264.179 102.237 252.865 94.1259 246.287 92.8974C244.01 89.0476 227.095 81.1849 220.325 106.263C213.556 131.34 224.922 136.812 226.388 138.591C227.853 140.37 247.609 153.129 256.815 124.856Z" fill="#E9E8E6" fill-opacity="0.8"/>
<path d="M377.937 320.591C385.833 308.845 397.798 279.166 381.034 256.532C354.979 221.665 309.466 269.038 313.852 280.763C300.979 289.485 301.961 303.605 304.061 309.575C302.163 355.986 361.379 345.222 377.937 320.591Z" fill="#E9E8E6" fill-opacity="0.8"/>
<path d="M83.5062 258.591C65.6379 258.591 49.0852 250.227 46.6776 242.5C43.4069 252.95 74.6746 270 88.1758 265.5L83.5062 258.591Z" fill="#C7C4C2" fill-opacity="0.8"/>
<path d="M158.774 239.278C151.496 239.278 144.753 235.755 143.773 232.5C142.441 236.902 155.176 244.084 160.676 242.188L158.774 239.278Z" fill="#C7C4C2" fill-opacity="0.8"/>
<path d="M345.373 332.636C358.05 331.96 370.681 322.648 373.77 318C392.398 289.973 383.644 266.508 373.77 257.5C389.99 290.153 358.954 324.169 345.373 332.636Z" fill="#C7C4C2" fill-opacity="0.8"/>
<path d="M311.373 183.206C323.414 183.274 334.933 175.263 337.62 171.087C353.819 145.902 344.181 123.471 334.275 114.5C351.533 145.937 323.844 176.038 311.373 183.206Z" fill="#C7C4C2" fill-opacity="0.8"/>
<path d="M58.982 160.8C23.9881 163.584 11.3712 139.76 9.43704 127.5C3.72374 152.55 31.6198 168.32 44.7128 171.634C94.347 177.995 103.073 147.707 107.676 133.518C102.307 143.549 93.9759 158.017 58.982 160.8Z" fill="#C7C4C2" fill-opacity="0.8"/>
<path d="M150.177 399C136.177 397.4 129.343 385.333 127.677 379.5C125.677 394.3 136.51 406.333 142.177 410.5C146.977 422.9 155.34 428.965 159.177 430.5C189.177 442.5 205.343 427.5 208.177 420.5C166.577 436.5 152.177 412.833 150.177 399Z" fill="#C7C4C2" fill-opacity="0.8"/>
<path d="M73.1758 383.5C67.9758 388.7 59.3424 384.667 55.6758 382C56.8758 391.6 66.5091 391.667 71.1758 390.5C90.3758 398.9 101.176 385.667 104.176 378C93.3758 390.4 79.0091 386.833 73.1758 383.5Z" fill="#C7C4C2" fill-opacity="0.8"/>
</svg>
