<svg width="115" height="126" viewBox="0 0 115 126" fill="none" xmlns="http://www.w3.org/2000/svg">
<path d="M0.683795 42.3191C-2.1162 53.5191 8.18335 62.8193 16.6834 65.3193L24.1836 66.8193C18.5169 69.986 12.1838 79.0193 12.1838 91.8193C12.1838 104.619 25.1838 108.819 31.6838 109.319C32.0171 114.319 35.7838 124.519 48.1838 125.319C60.5838 126.119 65.6838 115.319 66.6838 109.819C81.4838 111.419 81.8504 100.153 80.1838 94.3193C95.1838 92.8193 114.684 84.8193 114.684 63.8191C114.684 47.0189 97.0171 42.4857 88.1838 42.3191C89.6838 41.3192 92.4838 36.6193 91.6838 25.8191C90.8838 15.0189 81.6838 11.319 77.1838 10.8191C76.3504 7.6525 72.1838 1.11932 62.1838 0.31932C52.1838 -0.48068 47.6838 4.98584 46.6838 7.8191C38.6838 -0.580904 32.0171 6.3191 29.6838 10.8191C19.6838 12.4191 20.8505 21.4858 22.6838 25.8191C16.5171 26.6524 3.48379 31.1191 0.683795 42.3191Z" fill="#E9E8E6" fill-opacity="0.8"/>
<path d="M29.7148 54.0117C13.2148 58.0117 5.7154 50.5117 4.2154 45.0117C1.2153 55.5117 16.7146 65.0117 25.7148 63.0117L29.7148 54.0117Z" fill="#C7C4C2" fill-opacity="0.8"/>
<path d="M62.2148 102.012L64.2148 106.512C69.8148 106.912 73.8815 105.678 75.2148 105.012C70.0148 106.212 64.3815 103.512 62.2148 102.012Z" fill="#C7C4C2" fill-opacity="0.8"/>
<path d="M70.2148 87.0117C70.2148 88.2117 74.5482 90.3451 76.7148 91.5117C99.5148 88.3117 107.215 78.6784 108.215 74.0117C97.0148 86.4117 78.2148 87.8451 70.2148 87.0117Z" fill="#E9E8E6" fill-opacity="0.8"/>
</svg>
