<svg width="262" height="270" viewBox="0 0 262 270" fill="none" xmlns="http://www.w3.org/2000/svg">
<path d="M0.348623 81.5508C-2.85138 103.551 17.0153 121.384 27.3486 127.551C10.1486 150.751 30.182 174.217 42.3486 183.051C33.9486 187.051 31.8486 202.051 31.8486 209.051C31.8486 245.051 62.8486 255.717 78.3486 256.551C81.0153 260.884 91.0486 269.551 109.849 269.551C128.649 269.551 138.349 256.551 140.849 250.051C143.389 254.451 149.574 256.217 152.349 256.551C191.149 259.751 201.849 238.217 202.349 227.051V212.551C222.015 205.717 261.349 184.351 261.349 153.551C261.349 122.751 239.349 107.384 228.349 103.551C234.349 99.9508 236.849 91.7174 237.349 88.0508C239.749 56.4508 211.015 44.5508 196.349 42.5508H181.849C178.249 30.5508 163.349 28.5508 156.349 29.0508C151.849 19.3841 138.349 0.0507812 120.349 0.0507812C102.349 0.0507812 92.182 6.38411 89.3486 9.55078H75.8486C45.8486 9.95078 33.3486 36.7174 30.8486 50.0508C22.0153 51.3841 3.54862 59.5508 0.348623 81.5508Z" fill="#E9E8E6" fill-opacity="0.8"/>
<path d="M47.8789 100.935C19.8252 110.131 7.07441 92.8881 4.52407 80.2432C-0.576763 104.383 25.7756 126.225 41.078 121.627L47.8789 100.935Z" fill="#C7C4C2" fill-opacity="0.8"/>
<path d="M26.5657 157.429C37.7525 174.583 88.4891 164.287 104.793 158.743C103.193 165.143 95.4598 167.743 91.793 168.243V176.243C104.993 179.043 102.293 188.41 99.2931 192.743C90.0931 178.743 60.7931 179.91 47.2932 182.243C33.8774 173.248 28.8891 161.797 26.5657 157.429C26.317 157.047 26.0877 156.652 25.8789 156.243C26.0799 156.541 26.3062 156.941 26.5657 157.429Z" fill="#C7C4C2" fill-opacity="0.8"/>
<path d="M194.899 102.865C170.499 98.465 154.065 118.365 148.899 128.865C144.499 121.266 155.399 106.698 161.399 100.364L159.399 96.3647C224.899 102.865 232.399 89.8647 231.899 91.3647C231.399 92.8647 225.399 108.365 194.899 102.865Z" fill="#C7C4C2" fill-opacity="0.8"/>
<path d="M84.8809 240.743C50.0284 241.868 34.7083 211.698 37.3803 199.743C35.2901 201.853 32.1972 221.865 47.8808 238.743C60.4277 252.245 73.3808 250.041 81.3808 252.243C82.8809 258.243 92.628 262.571 95.8809 263.743C112.052 269.369 125.163 263.752 128.881 258.243C102.672 271.183 88.0175 251.526 84.8809 240.743Z" fill="#C7C4C2" fill-opacity="0.8"/>
<path d="M177.379 191.243C181.379 206.843 198.379 207.547 204.879 205.243C244.379 191.243 255.379 169.743 255.379 158.743C231.879 195.278 200.879 197.743 177.379 191.243Z" fill="#C7C4C2" fill-opacity="0.8"/>
</svg>
