<svg width="360" height="399" viewBox="0 0 360 399" fill="none" xmlns="http://www.w3.org/2000/svg">
<path d="M142.688 166.141C126.943 162.712 123.603 171.57 123.901 176.428C108.871 202.832 136.128 208.861 151.635 208.575C163.563 209.718 186.078 206.26 180.71 183.286C175.342 160.311 153.126 162.283 142.688 166.141Z" fill="#E9E8E6" fill-opacity="0.8"/>
<path d="M213.878 123.004C212.481 109.449 204.483 109.101 200.659 110.622C175.481 105.509 177.825 128.998 182.144 141.382C184.371 151.267 193.086 168.445 210.13 158.073C227.173 147.702 219.73 130.372 213.878 123.004Z" fill="#E9E8E6" fill-opacity="0.8"/>
<path d="M106.104 342.305C65.6465 355.052 48.8596 332.014 45.5233 318.901C40.6066 320.395 30.0358 320.296 27.0858 307.947C24.1358 295.598 33.5833 286.203 37.0952 283.548C39.2023 243.214 97.6756 245.704 109.791 256.659C124.963 245.903 139.291 252.177 144.559 256.659C149.651 248.028 167.527 230.766 198.291 230.766C229.056 230.766 242.717 249.024 245.702 258.152C257.642 262.634 281.523 278.07 281.523 303.963C281.523 336.329 254.657 347.782 233.059 351.766C215.781 354.952 202.681 343.467 198.291 337.325C197.94 345.292 189.441 362.222 158.256 366.206C127.07 370.19 110.494 351.932 106.104 342.305Z" fill="#E9E8E6" fill-opacity="0.8"/>
<path d="M315.928 125.894C307.898 158.211 271.726 155.518 254.644 150.132C237.023 156.766 202.023 122.766 229.816 95.5973C229.814 90.387 233.298 79.3581 247.248 76.9254C251.897 64.8155 267.5 61.7731 274.72 61.7656C318.253 61.7656 320.331 104.518 315.928 125.894Z" fill="#E9E8E6" fill-opacity="0.8"/>
<path d="M4.4449 98.8918C-12.4775 137.766 31.447 160.932 59.524 160.766C109.642 160.766 118.796 109.571 120.025 94.2656C121.288 101.852 137.181 106.473 151.525 108.266C171.525 110.766 189.296 100.402 190.525 84.2656C211.161 79.0752 210.236 67.0835 206.025 58.7656C210.938 37.139 215.97 5.06526 171.328 1.07266C126.685 -2.91994 114.823 33.0135 114.472 51.4792C113.419 45.8232 104.364 34.1119 76.5675 32.5148C48.7712 30.9178 36.9086 58.7994 34.4519 72.9399C19.7114 75.3355 8.30536 91.2393 4.4449 98.8918Z" fill="#E9E8E6" fill-opacity="0.8"/>
<path d="M88.7566 187.099C63.6729 172.623 51.1612 183.953 48.0408 191.428C42.8819 193.144 29.2556 211.167 57.4184 225.564C85.5812 239.961 94.962 227.898 97.4501 226.616C99.9382 225.333 120.111 205.193 88.7566 187.099Z" fill="#E9E8E6" fill-opacity="0.8"/>
<path d="M262.723 186.57C276.449 185.098 277.728 176.717 276.651 172.711C278.065 170.474 277.752 159.004 262.898 161.422C248.044 163.84 248.156 171.594 247.611 172.86C247.065 174.127 245.566 188.41 262.723 186.57Z" fill="#E9E8E6" fill-opacity="0.8"/>
<path d="M299.022 264.766C315.473 263.025 350.909 252.597 358.049 225.098C368.872 182.564 292.021 179.266 285.021 190.266C267.421 186.266 255.689 196.266 252.022 201.766C209.522 230.766 264.521 268.415 299.022 264.766Z" fill="#E9E8E6" fill-opacity="0.8"/>
<path d="M79.3503 219.857C61.4819 219.857 49.3104 213.493 46.9027 205.766C43.632 216.216 61.9515 225.766 84.5234 225.766L79.3503 219.857Z" fill="#C7C4C2" fill-opacity="0.8"/>
<path d="M156.347 199.857C138.479 199.857 126.308 193.493 123.9 185.766C120.629 196.216 134.022 208.766 163.521 203.766L156.347 199.857Z" fill="#C7C4C2" fill-opacity="0.8"/>
<path d="M109.889 327.507C129.39 361.004 181.39 355.006 187.89 339.007C182.809 351.508 171.385 358.292 151.387 361.007C129.272 364.01 110.969 342.155 106.566 334.166C99.1489 340.72 82.5211 343.163 78.5225 341.766C62.0225 339.266 55.0225 329.584 52.0225 321.266C67.5642 353.436 98.8421 335.179 109.889 327.507Z" fill="#C7C4C2" fill-opacity="0.8"/>
<path d="M259.523 245.766C270.523 258.266 293.558 259.178 300.523 258.266C342.523 252.766 353.979 226.919 354.523 208.766C336.564 254.352 278.707 252.321 259.523 245.766Z" fill="#C7C4C2" fill-opacity="0.8"/>
<path d="M59.1399 143.965C23.2916 146.74 10.3667 122.988 8.38531 110.766C2.53253 135.74 31.1097 151.462 44.5223 154.766C95.3683 161.108 104.307 130.911 109.022 116.766C103.522 126.766 94.9882 141.19 59.1399 143.965Z" fill="#C7C4C2" fill-opacity="0.8"/>
<path d="M256.023 138.265C256.423 144.665 258.357 145.766 261.523 147.266C296.023 153.766 308.023 135.766 311.023 125.305C294.223 146.505 269.523 144.932 256.023 138.265Z" fill="#C7C4C2" fill-opacity="0.8"/>
</svg>
