<svg width="197" height="196" viewBox="0 0 197 196" fill="none" xmlns="http://www.w3.org/2000/svg">
<path d="M0.27368 61.8096C-1.72632 76.6096 13.4403 83.3096 21.2737 84.8096C20.1069 86.1429 15.7734 91.8096 16.7734 101.31C18.0892 113.81 27.7734 120.476 33.7734 123.81C21.3734 129.01 18.6068 142.643 18.7734 148.81C18.7734 178.41 48.4401 182.81 63.2734 181.31C64.2734 185.81 70.7734 195.31 85.7734 195.31C97.7734 195.31 107.44 187.976 110.773 184.31C138.773 183.91 147.107 159.81 147.773 147.81C168.273 145.81 193.773 133.31 196.273 106.81C198.273 85.6096 178.107 72.3096 167.773 68.3096C169.44 63.6429 171.573 51.7096 166.773 41.3096C161.973 30.9096 144.107 28.9762 135.773 29.3096C131.773 18.5096 119.773 19.4762 114.273 21.3096C110.94 14.4763 101.473 0.709634 90.2734 0.309634C79.0734 -0.0903659 71.2734 6.80963 68.7734 10.3096L51.2734 11.3096C34.4734 14.1096 28.6068 29.8096 27.7734 37.3096C19.4402 39.3096 2.27368 47.0096 0.27368 61.8096Z" fill="#E9E8E6" fill-opacity="0.8"/>
<path d="M31.1836 71.502C14.6836 75.502 7.18415 68.002 5.68415 62.502C2.68405 73.002 18.1834 82.502 27.1836 80.502L31.1836 71.502Z" fill="#C7C4C2" fill-opacity="0.8"/>
<path d="M59.8047 170.002C43.8047 172.002 33.3047 168.502 25.3047 161.502C28.8047 173.002 49.3047 180.502 63.8047 177.502L59.8047 170.002Z" fill="#C7C4C2" fill-opacity="0.8"/>
<path d="M49.8046 106.002C36.6046 114.802 26.3046 108.669 22.8046 104.502C22.0046 112.102 33.1379 119.002 38.8046 121.502C52.4046 121.502 59.1379 127.502 60.8046 130.502C62.8046 128.102 75.9712 125.169 82.3046 124.002C66.7046 125.202 54.1379 112.502 49.8046 106.002Z" fill="#C7C4C2" fill-opacity="0.8"/>
<path d="M115.305 83.002C148.505 77.002 162.305 57.002 163.805 48.502C166.805 53.502 163.805 65.8353 161.305 72.002C154.505 80.402 127.805 82.8353 115.305 83.002Z" fill="#C7C4C2" fill-opacity="0.8"/>
</svg>
