<svg width="307" height="319" viewBox="0 0 307 319" fill="none" xmlns="http://www.w3.org/2000/svg">
<path d="M227.522 179.592C222.189 178.449 221.058 181.402 221.159 183.022C216.068 191.823 225.3 193.833 230.552 193.737C234.592 194.118 242.218 192.966 240.4 185.307C238.582 177.649 231.057 178.307 227.522 179.592Z" fill="#E9E8E6" fill-opacity="0.8"/>
<path d="M83.4544 82.7994C82.8735 77.1637 79.5482 77.0192 77.9582 77.6514C67.4903 75.5257 68.4646 85.2916 70.2603 90.4403C71.1863 94.5502 74.8099 101.692 81.8959 97.3801C88.9819 93.0681 85.8874 85.8629 83.4544 82.7994Z" fill="#E9E8E6" fill-opacity="0.8"/>
<path d="M163.939 318.687C151.084 319.743 150.165 313.196 148.534 309.929C141.967 305.319 139.021 294.266 149.999 287.155C155.634 283.506 159.796 285.635 161.752 287.155C163.643 284.226 168.912 278.801 180.338 278.801C191.764 278.801 197.903 282.032 199.012 285.13C203.446 286.65 210.676 288.61 210.676 297.396C210.676 308.379 203.974 310.329 197.557 311.41C191.139 312.492 181.968 309.721 180.338 307.637C180.207 310.341 173.778 317.878 163.939 318.687Z" fill="#E9E8E6" fill-opacity="0.8"/>
<path d="M28.2151 48.2079C34.93 44.9505 36.7784 48.2378 37.1896 50.5851C38.4721 51.4788 41.762 55.0613 39.682 62.4734C39.1454 64.4922 36.8931 67.9739 34.7656 69.588C35.5031 71.1073 36.0922 74.7947 32.5482 77.3902C32.9655 81.5504 29.0469 84.5473 27.0354 85.5258C14.9014 91.4119 8.27418 79.2251 6.47731 72.3959C4.14388 61.8857 14.6071 57.7802 20.1303 57.0413C20.0274 55.4541 21.5001 51.4653 28.2151 48.2079Z" fill="#E9E8E6" fill-opacity="0.8"/>
<path d="M278.058 89.9883C274.947 102.681 260.93 101.623 254.311 99.508C247.483 102.113 233.92 88.7594 244.69 78.0887C244.689 76.0422 246.039 71.7105 251.445 70.755C253.246 65.9987 259.292 64.8037 262.09 64.8008C278.959 64.8008 279.764 81.5925 278.058 89.9883Z" fill="#E9E8E6" fill-opacity="0.8"/>
<path d="M52.4846 247.675C64.9069 246.903 68.6017 261.018 68.8962 268.172C73.4968 274.105 66.0058 291.488 52.861 284.112C51.0246 284.731 46.6897 284.711 44.0413 279.679C39.1758 279.343 36.1002 273.754 35.1706 271.001C29.5815 254.398 44.3845 248.533 52.4846 247.675Z" fill="#E9E8E6" fill-opacity="0.8"/>
<path d="M66.8068 157.594C59.7153 153.502 56.1781 156.705 55.296 158.818C53.8375 159.303 49.9852 164.399 57.9471 168.469C65.909 172.539 68.5611 169.129 69.2645 168.766C69.9679 168.403 75.671 162.71 66.8068 157.594Z" fill="#E9E8E6" fill-opacity="0.8"/>
<path d="M261.291 142.996C253.473 139.032 249.894 143.053 249.081 145.558C247.555 146.26 243.755 152.476 252.5 156.326C261.246 160.176 263.868 156.008 264.597 155.523C265.325 155.037 271.064 147.95 261.291 142.996Z" fill="#E9E8E6" fill-opacity="0.8"/>
<path d="M226.291 108.996C218.473 105.032 214.894 109.053 214.081 111.558C212.555 112.26 208.755 118.476 217.5 122.326C226.246 126.176 228.868 122.008 229.597 121.523C230.325 121.037 236.064 113.95 226.291 108.996Z" fill="#E9E8E6" fill-opacity="0.8"/>
<path d="M147.276 22.5882C159.671 24.8615 163.132 18.3495 163.314 14.8094C165.175 13.3426 168.111 3.90823 154.468 2.1206C140.825 0.332964 138.752 6.68598 137.922 7.58085C137.091 8.47571 131.784 19.7465 147.276 22.5882Z" fill="#E9E8E6" fill-opacity="0.8"/>
<path d="M294.792 209.467C297.537 205.384 301.696 195.066 295.868 187.198C286.811 175.077 270.989 191.546 272.514 195.622C268.039 198.653 268.38 203.562 269.11 205.637C268.45 221.771 289.036 218.03 294.792 209.467Z" fill="#E9E8E6" fill-opacity="0.8"/>
</svg>
