<svg width="343" height="399" viewBox="0 0 343 399" fill="none" xmlns="http://www.w3.org/2000/svg">
<path d="M142.3 164.169C124.7 160.169 120.966 170.502 121.3 176.169C104.5 206.969 134.966 214.002 152.299 213.669C165.633 215.002 190.799 210.969 184.799 184.169C178.799 157.369 153.966 159.669 142.3 164.169Z" fill="#E9E8E6" fill-opacity="0.8"/>
<path d="M99.3638 342.669C60.9638 355.469 45.0305 332.336 41.8638 319.169C37.1972 320.669 27.1638 320.569 24.3638 308.169C21.5638 295.769 30.5309 286.336 33.8643 283.669C35.8643 243.169 91.3643 245.669 102.864 256.669C117.264 245.869 130.864 252.169 135.864 256.669C140.697 248.002 157.664 230.669 186.864 230.669C216.064 230.669 229.031 249.002 231.864 258.169C243.197 262.669 265.864 278.169 265.864 304.169C265.864 336.669 240.364 348.169 219.864 352.169C203.464 355.369 191.031 343.836 186.864 337.669C186.531 345.669 178.464 362.669 148.864 366.669C119.264 370.669 103.53 352.336 99.3638 342.669Z" fill="#E9E8E6" fill-opacity="0.8"/>
<path d="M210.297 163.669C187.497 163.669 186.799 152.169 188.798 145.169C186.465 141.002 182.199 126.769 197.799 109.169C201.966 104.336 212.799 97.7689 220.799 96.1689C220.797 91.0097 224.094 80.0889 237.296 77.6801C241.696 65.6889 256.463 62.6764 263.296 62.6689C304.496 62.6689 306.463 105.002 302.296 126.169C294.696 158.169 260.463 155.502 244.296 150.169C242.463 154.669 233.097 163.669 210.297 163.669Z" fill="#E9E8E6" fill-opacity="0.8"/>
<path d="M6.29921 99.1694C-15.7008 154.769 32.1325 168.336 58.7992 168.169C106.4 168.169 120.632 137.502 121.799 122.169C122.999 129.769 130.632 135.002 134.299 136.669C177.099 148.269 190.132 118.836 191.299 102.669C210.899 97.4689 207.799 79.5023 203.799 71.1689C208.465 49.5023 207.199 5.16893 164.799 1.16893C122.399 -2.83107 111.132 33.1689 110.799 51.6689C109.799 46.0024 101.199 34.2694 74.7988 32.6694C48.3988 31.0694 37.1322 59.0027 34.7988 73.1694C20.7988 75.5694 9.96575 91.5027 6.29921 99.1694Z" fill="#E9E8E6" fill-opacity="0.8"/>
<path d="M81.2987 178.169C46.8987 168.969 35.9654 187.669 34.7987 198.169C29.2987 202.168 19.2987 229.669 57.2987 237.669C95.2988 245.669 102.299 227.169 104.799 224.669C107.299 222.169 124.299 189.669 81.2987 178.169Z" fill="#E9E8E6" fill-opacity="0.8"/>
<path d="M273.814 162.341C240.267 164.43 233.211 184.386 233.877 194.104C207.917 252.581 257.673 264.881 285.795 263.72C301.438 261.98 334.419 251.625 341.209 224.126C347.998 196.628 328.395 180.761 317.745 176.265C316.913 171.624 312.154 161.471 299.774 157.99C287.393 154.509 277.309 159.441 273.814 162.341Z" fill="#E9E8E6" fill-opacity="0.8"/>
<path d="M68.8315 227.861C49.8315 227.861 36.8892 220.861 34.3291 212.361C30.8513 223.857 50.3309 234.361 74.3323 234.361L68.8315 227.861Z" fill="#C7C4C2" fill-opacity="0.8"/>
<path d="M156.735 206.361C137.735 206.361 125.83 200.856 122.232 190.861C117.83 207.361 138.829 209.861 162.83 209.861L156.735 206.361Z" fill="#C7C4C2" fill-opacity="0.8"/>
<path d="M102.833 329.362C122.334 362.858 174.334 356.861 180.834 340.861C175.753 353.362 164.329 360.146 144.33 362.862C122.216 365.864 103.912 344.01 99.5093 336.021C92.0923 342.574 75.8304 343.253 71.8317 341.856C55.3317 339.356 50.3317 328.174 47.3317 319.856C62.8735 352.026 91.7855 337.033 102.833 329.362Z" fill="#C7C4C2" fill-opacity="0.8"/>
<path d="M243.83 246.361C254.83 258.861 277.865 259.773 284.83 258.861C326.83 253.361 338.286 227.515 338.83 209.361C320.871 254.948 263.014 252.917 243.83 246.361Z" fill="#C7C4C2" fill-opacity="0.8"/>
<path d="M62.83 154.361C23.63 157.161 9.49664 133.195 7.32997 120.861C0.929971 146.061 28.6633 159.028 43.33 162.361C98.93 168.761 115.497 138.695 116.83 122.861C115.163 132.195 102.03 151.561 62.83 154.361Z" fill="#C7C4C2" fill-opacity="0.8"/>
<path d="M234.83 133.861C235.23 140.261 241.663 144.861 244.83 146.361C283.23 157.161 295.163 138.195 296.33 127.361C279.53 148.561 248.33 140.528 234.83 133.861Z" fill="#C7C4C2" fill-opacity="0.8"/>
</svg>
