<svg width="33" height="40" viewBox="0 0 33 40" fill="none" xmlns="http://www.w3.org/2000/svg">
<path d="M21.0273 0.277344C24.8273 0.277551 27.9301 3.40395 28.1191 7.33496C30.805 8.39568 32.7158 11.1115 32.7158 14.2959C32.7158 15.9941 32.1714 17.5585 31.2568 18.8105V22.6191C31.2568 28.6289 27.8886 34.1324 22.5371 36.8672L18.335 39.0146C17.3329 39.5267 16.1456 39.5268 15.1436 39.0146L10.9434 36.8672C5.59261 34.1322 2.22461 28.6293 2.22461 22.6201V18.6807C1.36602 17.4509 0.857435 15.9361 0.857422 14.2959C0.857422 11.1301 2.74601 8.42721 5.40723 7.35352C5.58743 3.41372 8.69399 0.277425 12.5 0.277344C14.0999 0.277344 15.5763 0.831522 16.7637 1.7666C17.951 0.83159 19.4275 0.277344 21.0273 0.277344Z" fill="#FFDF76"/>
<circle cx="7.7393" cy="14.4434" r="3.15532" fill="white"/>
<path d="M16.6592 12.2773C18.8851 12.2773 20.6903 14.0817 20.6904 16.3076C20.6904 16.9614 21.0566 17.6151 21.6138 17.9571C22.7686 18.666 23.539 19.9403 23.5391 21.3945C23.5391 23.6206 21.7338 25.4248 19.5078 25.4248C17.7768 25.4247 15.6187 25.4248 13.8877 25.4248C11.6618 25.4247 9.85742 23.6205 9.85742 21.3945C9.85747 19.9742 10.5922 18.7257 11.7022 18.0079C12.2628 17.6455 12.6289 16.9752 12.6289 16.3076C12.629 14.0818 14.4334 12.2775 16.6592 12.2773Z" fill="white"/>
<circle cx="25.1788" cy="14.4434" r="3.15532" fill="white"/>
<circle cx="12.418" cy="7.43168" r="3.15532" fill="white"/>
<circle cx="20.5" cy="7.43168" r="3.15532" fill="white"/>
</svg>
