<svg width="33" height="40" viewBox="0 0 33 40" fill="none" xmlns="http://www.w3.org/2000/svg">
<path d="M21.0264 0.277344C24.8263 0.277551 27.9291 3.40395 28.1182 7.33496C30.8041 8.39568 32.7148 11.1115 32.7148 14.2959C32.7148 15.9941 32.1704 17.5585 31.2559 18.8105V22.6191C31.2559 28.6289 27.8876 34.1324 22.5361 36.8672L18.334 39.0146C17.3319 39.5267 16.1446 39.5268 15.1426 39.0146L10.9424 36.8672C5.59164 34.1322 2.22363 28.6293 2.22363 22.6201V18.6807C1.36505 17.4509 0.856458 15.9361 0.856445 14.2959C0.856445 11.1301 2.74504 8.42721 5.40625 7.35352C5.58645 3.41372 8.69301 0.277425 12.499 0.277344C14.0989 0.277344 15.5754 0.831522 16.7627 1.7666C17.95 0.83159 19.4265 0.277344 21.0264 0.277344Z" fill="#FF972F"/>
<circle cx="7.73832" cy="14.4434" r="3.15532" fill="white"/>
<path d="M16.6582 12.2773C18.8842 12.2773 20.6893 14.0817 20.6895 16.3076C20.6895 16.9614 21.0556 17.6151 21.6128 17.9571C22.7676 18.666 23.538 19.9403 23.5381 21.3945C23.5381 23.6206 21.7329 25.4248 19.5068 25.4248C17.7758 25.4247 15.6178 25.4248 13.8867 25.4248C11.6608 25.4247 9.85645 23.6205 9.85645 21.3945C9.85649 19.9742 10.5912 18.7257 11.7013 18.0079C12.2619 17.6455 12.6279 16.9752 12.6279 16.3076C12.6281 14.0818 14.4324 12.2775 16.6582 12.2773Z" fill="white"/>
<circle cx="25.1778" cy="14.4434" r="3.15532" fill="white"/>
<circle cx="12.417" cy="7.43168" r="3.15532" fill="white"/>
<circle cx="20.4991" cy="7.43168" r="3.15532" fill="white"/>
</svg>
