<svg width="49" height="60" viewBox="0 0 49 60" fill="none" xmlns="http://www.w3.org/2000/svg">
<mask id="path-1-inside-1_756_5557" fill="white">
<path d="M30.8643 0.424316C36.5825 0.424322 41.2514 5.12833 41.5371 11.0435C45.5797 12.6396 48.4561 16.7283 48.4561 21.521C48.456 24.0763 47.6357 26.4299 46.2598 28.314V34.0493C46.2598 43.0939 41.1916 51.376 33.1377 55.4917L26.8125 58.7241C25.3046 59.4946 23.5186 59.4938 22.0107 58.7231L15.6885 55.4917C7.63581 51.3756 2.56849 43.0949 2.56836 34.0513V28.1245C1.27453 26.2731 0.508855 23.9911 0.508789 21.521C0.508789 16.7561 3.35188 12.6884 7.35742 11.0728C7.62913 5.14386 12.3045 0.424316 18.0322 0.424316C20.4399 0.424344 22.6614 1.25841 24.4482 2.66553C26.2351 1.25842 28.4566 0.424316 30.8643 0.424316Z"/>
</mask>
<path d="M30.8643 0.424316L30.8643 -2.33332H30.8643V0.424316ZM41.5371 11.0435L38.7827 11.1765L38.8686 12.9546L40.5244 13.6084L41.5371 11.0435ZM48.4561 21.521L51.2137 21.5211V21.521H48.4561ZM46.2598 28.314L44.0328 26.6876L43.5021 27.4142V28.314H46.2598ZM33.1377 55.4917L31.8828 53.0361L31.8828 53.0361L33.1377 55.4917ZM26.8125 58.7241L28.0672 61.1798L28.0674 61.1797L26.8125 58.7241ZM22.0107 58.7231L20.7557 61.1786L20.7558 61.1787L22.0107 58.7231ZM15.6885 55.4917L14.4334 57.9472L14.4334 57.9472L15.6885 55.4917ZM2.56836 34.0513H-0.189277V34.0513L2.56836 34.0513ZM2.56836 28.1245H5.326V27.2564L4.82872 26.5449L2.56836 28.1245ZM0.508789 21.521H-2.24885V21.5211L0.508789 21.521ZM7.35742 11.0728L8.38897 13.6302L10.0311 12.9678L10.1122 11.199L7.35742 11.0728ZM18.0322 0.424316L18.0323 -2.33332H18.0322V0.424316ZM24.4482 2.66553L22.7421 4.83203L24.4482 6.17558L26.1543 4.83204L24.4482 2.66553ZM30.8643 0.424316L30.8643 3.18195C34.9932 3.18196 38.5621 6.61012 38.7827 11.1765L41.5371 11.0435L44.2915 10.9104C43.9406 3.64655 38.1718 -2.33331 30.8643 -2.33332L30.8643 0.424316ZM41.5371 11.0435L40.5244 13.6084C43.4919 14.7801 45.6984 17.8364 45.6984 21.521H48.4561H51.2137C51.2137 15.6201 47.6676 10.4992 42.5498 8.47851L41.5371 11.0435ZM48.4561 21.521L45.6984 21.5209C45.6984 23.4794 45.0712 25.2657 44.0328 26.6876L46.2598 28.314L48.4868 29.9403C50.2003 27.594 51.2136 24.6732 51.2137 21.5211L48.4561 21.521ZM46.2598 28.314H43.5021V34.0493H46.2598H49.0174V28.314H46.2598ZM46.2598 34.0493H43.5021C43.5021 42.0582 39.0143 49.3917 31.8828 53.0361L33.1377 55.4917L34.3926 57.9473C43.3689 53.3602 49.0174 44.1296 49.0174 34.0493H46.2598ZM33.1377 55.4917L31.8828 53.0361L25.5576 56.2686L26.8125 58.7241L28.0674 61.1797L34.3926 57.9473L33.1377 55.4917ZM26.8125 58.7241L25.5578 56.2685C24.8388 56.6358 23.9863 56.6359 23.2657 56.2676L22.0107 58.7231L20.7558 61.1787C23.0509 62.3517 25.7704 62.3533 28.0672 61.1798L26.8125 58.7241ZM22.0107 58.7231L23.2658 56.2677L16.9435 53.0362L15.6885 55.4917L14.4334 57.9472L20.7557 61.1786L22.0107 58.7231ZM15.6885 55.4917L16.9436 53.0362C9.81309 49.3915 5.32611 42.0591 5.326 34.0512L2.56836 34.0513L-0.189277 34.0513C-0.189132 44.1306 5.45854 53.3597 14.4334 57.9472L15.6885 55.4917ZM2.56836 34.0513H5.326V28.1245H2.56836H-0.189277V34.0513H2.56836ZM2.56836 28.1245L4.82872 26.5449C3.85222 25.1476 3.26648 23.415 3.26643 21.5209L0.508789 21.521L-2.24885 21.5211C-2.24877 24.5672 -1.30315 27.3987 0.307994 29.7042L2.56836 28.1245ZM0.508789 21.521H3.26643C3.26643 17.8585 5.44703 14.8168 8.38897 13.6302L7.35742 11.0728L6.32587 8.51532C1.25673 10.56 -2.24885 15.6537 -2.24885 21.521H0.508789ZM7.35742 11.0728L10.1122 11.199C10.3219 6.62176 13.8963 3.18195 18.0322 3.18195V0.424316V-2.33332C10.7127 -2.33332 4.93633 3.66596 4.60268 10.9465L7.35742 11.0728ZM18.0322 0.424316L18.0322 3.18195C19.7882 3.18197 21.4153 3.78712 22.7421 4.83203L24.4482 2.66553L26.1544 0.499027C23.9076 -1.2703 21.0915 -2.33328 18.0323 -2.33332L18.0322 0.424316ZM24.4482 2.66553L26.1543 4.83204C27.4813 3.7871 29.1083 3.18195 30.8643 3.18195V0.424316V-2.33332C27.805 -2.33332 24.9889 -1.27026 22.7421 0.499011L24.4482 2.66553Z" fill="#BCBCBC" mask="url(#path-1-inside-1_756_5557)"/>
<circle cx="10.8662" cy="21.743" r="4.05928" stroke="#BCBCBC" stroke-width="1.37882"/>
<mask id="path-4-inside-2_756_5557" fill="white">
<path d="M24.2913 18.4832C27.6413 18.4832 30.3575 21.1987 30.3577 24.5486C30.3577 25.5322 30.9101 26.5159 31.7483 27.0306C33.4858 28.0976 34.6448 30.0155 34.6448 32.2039C34.6448 35.5539 31.9285 38.2693 28.5784 38.2693C25.9726 38.2693 22.7252 38.2693 20.1194 38.2693C16.7695 38.2691 14.0541 35.5538 14.054 32.2039C14.054 30.0666 15.1595 28.1882 16.8298 27.1081C17.6736 26.5625 18.2259 25.5534 18.2259 24.5486C18.2261 21.1988 20.9415 18.4834 24.2913 18.4832Z"/>
</mask>
<path d="M24.2913 18.4832V17.1043H24.2912L24.2913 18.4832ZM34.6448 32.2039L36.0237 32.2039V32.2039H34.6448ZM14.054 32.2039H12.6752V32.2039L14.054 32.2039ZM31.7483 27.0306L31.0268 28.2056L31.7483 27.0306ZM24.2913 18.4832V19.862C26.88 19.862 28.9787 21.9604 28.9789 24.5487L30.3577 24.5486L31.7365 24.5485C31.7362 20.437 28.4026 17.1043 24.2913 17.1043V18.4832ZM31.7483 27.0306L31.0268 28.2056C32.373 29.0323 33.266 30.5146 33.266 32.2039H34.6448H36.0237C36.0237 29.5165 34.5986 27.1629 32.4698 25.8556L31.7483 27.0306ZM34.6448 32.2039L33.266 32.2038C33.266 34.7922 31.1673 36.8905 28.5784 36.8905V38.2693V39.6481C32.6898 39.6481 36.0236 36.3157 36.0237 32.2039L34.6448 32.2039ZM20.1194 38.2693L20.1195 36.8905C17.531 36.8903 15.4329 34.7922 15.4328 32.2038L14.054 32.2039L12.6752 32.2039C12.6753 36.3154 16.0081 39.6479 20.1194 39.6481L20.1194 38.2693ZM14.054 32.2039H15.4328C15.4328 30.554 16.2843 29.1028 17.5785 28.2659L16.8298 27.1081L16.0811 25.9503C14.0347 27.2736 12.6752 29.5791 12.6752 32.2039H14.054ZM18.2259 24.5486L19.6047 24.5487C19.6049 21.9603 21.7031 19.8621 24.2914 19.862L24.2913 18.4832L24.2912 17.1043C20.18 17.1046 16.8474 20.4373 16.8471 24.5485L18.2259 24.5486ZM16.8298 27.1081L17.5785 28.2659C18.8127 27.4678 19.6047 26.0241 19.6047 24.5486H18.2259H16.8471C16.8471 25.0827 16.5344 25.6571 16.0811 25.9503L16.8298 27.1081ZM28.5784 38.2693L28.5784 36.8905C25.9726 36.8905 22.7252 36.8905 20.1194 36.8905V38.2693V39.6481C22.7253 39.6481 25.9726 39.6481 28.5784 39.6481L28.5784 38.2693ZM30.3577 24.5486H28.9789C28.9789 26.0133 29.7818 27.4411 31.0268 28.2056L31.7483 27.0306L32.4698 25.8556C32.0384 25.5907 31.7365 25.051 31.7365 24.5486H30.3577Z" fill="#BCBCBC" mask="url(#path-4-inside-2_756_5557)"/>
<circle cx="37.1114" cy="21.743" r="4.05928" stroke="#BCBCBC" stroke-width="1.37882"/>
<circle cx="17.9079" cy="11.1903" r="4.05928" stroke="#BCBCBC" stroke-width="1.37882"/>
<circle cx="30.0697" cy="11.1903" r="4.05928" stroke="#BCBCBC" stroke-width="1.37882"/>
</svg>
