<svg width="213" height="214" viewBox="0 0 213 214" fill="none" xmlns="http://www.w3.org/2000/svg">
<path d="M134.036 73.3507C134.466 72.6123 135.483 71.3926 136.062 70.7459C136.073 70.7338 136.083 70.7218 136.094 70.7097C136.232 70.5544 136.359 70.4032 136.509 70.2256C136.878 69.7946 137.322 69.2449 138.424 68.155C138.719 67.808 139.014 67.4655 139.306 67.1322C142.5 63.4825 145.998 60.1295 149.727 57.0563C149.771 57.013 149.815 56.9689 149.86 56.9244C150.732 56.0582 151.795 55.0165 152.582 54.4723C153.58 53.7833 154.279 53.3689 154.869 53.0281C157.943 50.7269 161.092 48.5154 164.201 46.2712C164.839 45.8108 165.472 45.3517 166.106 44.8879C166.443 44.6411 166.78 44.3935 167.117 44.145C168.008 43.4867 168.897 42.8268 169.787 42.1658C170.265 41.7256 170.711 41.2938 171.127 40.896C171.711 40.337 172.237 39.845 172.704 39.4861C173.832 38.6191 175.258 37.8484 176.32 37.2841C176.494 37.1916 176.659 37.1045 176.81 37.0234C177.586 36.4722 178.363 35.9283 179.146 35.3911C179.216 35.3816 179.288 35.3728 179.36 35.364C180.263 35.2553 181.105 34.7282 182.452 33.9297C183.042 33.5799 183.727 33.1796 184.549 32.7425C185.079 32.4613 185.417 32.4264 185.695 32.3934C185.776 32.384 185.853 32.375 185.927 32.3608C186.18 32.3117 186.355 32.1111 186.565 31.8777C186.836 31.5744 187.168 31.218 187.783 31.0481C189.74 30.496 190.36 29.8387 190.844 29.3709C190.985 29.2326 191.114 29.1087 191.259 29.0046C191.736 28.6635 192.534 28.3903 193.156 28.2307C193.65 28.1027 194.489 27.6009 195.132 27.1934C195.373 27.0398 195.726 26.8839 196.141 26.704C196.572 26.5172 197.061 26.3082 197.583 26.0479C198.904 25.3935 199.613 25.0904 200.182 24.8443C200.344 24.7751 200.501 24.7085 200.655 24.6441C201.143 24.4394 201.754 24.2054 202.372 23.9819C203.106 23.7164 203.876 23.4553 204.454 23.2599C205.979 22.8452 207.543 22.4541 209.065 22.1106C209.862 21.9293 210.637 21.7917 211.193 21.6766C211.75 21.564 212.049 21.4766 212.049 21.475C212.049 21.4741 211.752 21.5742 211.241 21.8167C210.729 22.056 210.039 22.4222 209.32 22.792C207.899 23.5231 206.471 24.3219 205.092 25.1418C203.396 26.1462 201.736 27.1972 200.095 28.2286C198.93 28.9588 197.793 29.6799 196.636 30.4104C196.517 30.4855 196.397 30.5607 196.278 30.636C195.377 31.3627 194.494 32.1016 193.848 32.5962C193.312 33.0063 192.89 33.2142 192.517 33.3948C192.261 33.5187 192.034 33.6276 191.827 33.7777C191.716 33.8584 191.566 33.9722 191.385 34.1101C190.638 34.6758 189.419 35.6336 188.166 36.3318C187.61 36.6408 186.944 36.944 186.296 37.2349C185.373 37.6502 184.498 38.0336 184.145 38.352C183.521 38.914 182.697 39.3941 181.964 39.818C181.268 40.2204 180.659 40.5718 180.403 40.9075C180.097 41.3088 179.733 41.4973 179.189 41.7771C178.812 41.9712 178.351 42.2075 177.765 42.5924C177.088 43.0368 176.562 43.2852 176.113 43.4962C175.484 43.7927 175.008 44.0147 174.492 44.6169C173.919 45.2858 173.277 45.9213 172.673 46.2867C172.399 46.4532 172.108 46.6769 171.806 46.91C171.407 47.2186 170.987 47.5434 170.554 47.7734C170.198 47.963 169.839 48.0358 169.523 48.1002C169.424 48.1203 169.329 48.1398 169.239 48.1616C169.094 48.2718 168.948 48.3823 168.803 48.4931C168.695 48.5759 168.587 48.6589 168.479 48.7422C168.453 48.7932 168.426 48.8479 168.398 48.9048C168.257 49.1902 168.084 49.5406 167.792 49.8698C167.33 50.3913 166.797 50.6837 166.235 50.9921C165.798 51.2323 165.344 51.4828 164.893 51.8587C164.585 52.115 164.258 52.4429 163.935 52.7659C163.456 53.2461 162.984 53.7181 162.582 53.9519C162.432 54.0396 162.255 54.0546 162.08 54.0695C162.079 54.0694 162.078 54.0694 162.078 54.0693C162.066 54.0703 162.054 54.0715 162.042 54.0725C161.191 54.8147 160.347 55.5613 159.51 56.3056C159.448 56.383 159.384 56.461 159.321 56.5386C159.011 56.9173 158.71 57.2832 158.566 57.5847C158.41 57.9116 157.815 58.482 157.19 59.0767C156.775 59.4706 156.347 59.8756 156.02 60.23C155.828 60.4372 155.559 60.5273 155.283 60.6212C155.025 60.7086 154.762 60.7996 154.548 60.9874C154.442 61.0807 154.34 61.2035 154.231 61.3327C154.136 61.4467 154.035 61.5669 153.92 61.6806C153.812 61.7863 153.514 61.9513 153.135 62.1639C152.901 62.2953 152.635 62.4449 152.364 62.6091C151.74 63.1437 151.092 63.6934 150.456 64.2251C150.361 64.3816 150.298 64.5389 150.276 64.6955C150.261 64.8079 150.265 64.9243 150.269 65.0431C150.275 65.2046 150.28 65.3708 150.233 65.5377C150.197 65.6682 150.111 65.7706 150.015 65.7956C149.97 65.8072 149.924 65.8022 149.882 65.7979C149.834 65.7927 149.791 65.7891 149.761 65.8112C149.74 65.8271 149.733 65.8604 149.723 65.9008C149.707 65.9654 149.686 66.0488 149.6 66.1125C149.279 66.3494 148.897 66.5976 148.526 66.8398C148.112 67.1091 147.71 67.3714 147.411 67.6013C147.074 67.8597 146.514 68.1621 145.967 68.4621C145.585 68.6718 145.205 68.8827 144.896 69.0795C144.595 69.2703 144.31 69.5212 144.036 69.7602C143.706 70.0475 143.389 70.3187 143.061 70.4826C142.995 70.5157 142.876 70.5164 142.728 70.5188C142.624 70.5204 142.505 70.5232 142.379 70.5379C142.018 70.8014 141.647 71.0696 141.273 71.3376C141.266 71.3534 141.258 71.3696 141.25 71.3859C141.25 71.3862 141.25 71.3865 141.25 71.3868C141.081 71.757 140.831 72.2382 140.145 72.5352C139.971 72.6114 139.832 72.6267 139.708 72.6415C139.586 72.6561 139.479 72.669 139.362 72.7417C139.229 72.8232 139.107 72.9563 138.974 73.0991C138.786 73.3001 138.574 73.5189 138.289 73.6589C138.27 73.6685 138.249 73.6787 138.227 73.6895C138.022 73.7921 137.72 73.9437 137.391 74.0609C136.597 74.6137 135.779 75.1906 135 75.7411C133.661 76.6958 132.357 77.6459 131.068 78.6309C130.463 79.0868 129.811 79.5703 129.385 79.9079C128.95 80.2507 128.735 80.4605 128.736 80.4616C128.737 80.4621 128.943 80.2439 129.285 79.8058C129.621 79.377 130.107 78.7233 130.571 78.1189C131.359 77.1042 132.156 76.0722 132.95 75.0429C132.99 74.9868 133.031 74.9305 133.072 74.8744C133.38 74.4526 133.623 74.0528 133.868 73.6379C133.924 73.5428 133.98 73.4469 134.036 73.3507Z" fill="black"/>
<path d="M49.3281 138.783C49.3256 138.783 48.969 139.031 48.3975 139.545C47.8215 140.056 47.0788 140.792 46.3027 141.524C44.7662 142.975 43.1743 144.538 41.6914 146.07C39.9258 147.902 38.0419 149.9 36.3232 151.741C35.0512 153.086 33.8181 154.406 32.6172 155.697C32.4885 155.835 32.3596 155.972 32.2314 156.109C31.3228 157.386 30.4748 158.656 29.8535 159.501C29.3519 160.188 28.8406 160.627 28.4258 160.973C28.1374 161.214 27.882 161.427 27.6758 161.691C27.5651 161.834 27.4183 162.033 27.2441 162.272C26.5417 163.234 25.3395 164.942 24.0381 166.243C23.4597 166.819 22.7261 167.426 22.002 168.03C20.9761 168.884 20.0265 169.669 19.7363 170.215C19.2178 171.185 18.3801 172.124 17.6602 172.938C16.9758 173.71 16.3727 174.407 16.2363 174.956C16.0762 175.609 15.709 175.994 15.166 176.565C14.7887 176.964 14.3363 177.439 13.8008 178.194C13.1901 179.057 12.6628 179.595 12.2148 180.055C11.5905 180.694 11.1034 181.207 10.8477 182.219C10.6611 182.955 10.4396 183.667 10.1641 184.287L0.689453 185.408C0.702151 185.383 0.714825 185.357 0.727539 185.332C1.41625 183.957 2.10071 182.635 2.8291 181.278C3.16277 180.431 3.44572 179.654 3.7334 178.91C4.13242 177.874 4.52533 176.935 4.91895 176.231C5.85712 174.547 7.35406 172.804 8.44434 171.61C8.62473 171.411 8.7959 171.223 8.9541 171.049C9.68128 169.969 10.4417 168.886 11.1992 167.854C11.2897 167.814 11.3824 167.775 11.4766 167.736C12.6467 167.259 13.5384 166.169 14.9355 164.617C15.5522 163.932 16.2821 163.141 17.2041 162.243C17.7808 161.686 18.2295 161.532 18.5918 161.405C18.6984 161.368 18.7986 161.333 18.8926 161.291C19.2146 161.147 19.3519 160.811 19.5225 160.417C19.7424 159.905 20.0241 159.295 20.7998 158.864C23.2003 157.546 23.7408 156.445 24.1973 155.63C24.3294 155.391 24.4516 155.174 24.6064 154.982C25.0871 154.381 26.047 153.795 26.8291 153.407C27.4446 153.102 28.394 152.144 29.083 151.404C29.3369 151.129 29.7437 150.823 30.2275 150.465C30.7284 150.095 31.3131 149.668 31.9092 149.166C33.4386 147.886 34.2452 147.297 34.915 146.8C35.1053 146.66 35.284 146.531 35.4629 146.401C36.029 145.992 36.7554 145.505 37.5068 145.02C38.4222 144.425 39.2865 143.903 39.9814 143.473C41.8476 142.494 43.79 141.504 45.6416 140.595C46.6081 140.119 47.5719 139.695 48.2656 139.354C48.9609 139.016 49.3287 138.785 49.3281 138.783Z" fill="black"/>
<path d="M95.9297 165.054C95.9198 165.059 95.6634 165.24 95.2705 165.644C94.8718 166.048 94.3451 166.673 93.8389 167.282C92.7918 168.525 91.8593 169.836 90.9775 171.208C89.936 172.845 88.9895 174.549 88.0459 176.252C87.4101 177.411 86.7479 178.631 86.1309 179.793C86.0662 179.914 86.0004 180.036 85.9355 180.157C85.5731 181.276 85.2552 182.391 84.9863 183.146C84.764 183.771 84.4755 184.151 84.2217 184.476C84.0504 184.695 83.8966 184.888 83.8027 185.121C83.7525 185.246 83.6887 185.422 83.6133 185.633C83.3 186.497 82.8041 187.979 82.0498 189.156C81.7131 189.68 81.2352 190.257 80.7803 190.79C80.1272 191.559 79.4947 192.286 79.3887 192.762C79.2066 193.591 78.7267 194.396 78.291 195.118C77.8763 195.807 77.5123 196.407 77.5381 196.854C77.5692 197.39 77.333 197.724 76.9766 198.224C76.7303 198.569 76.4228 199.004 76.1191 199.625C75.7674 200.346 75.3999 200.808 75.0859 201.202C74.6447 201.757 74.3067 202.18 74.2891 203C74.2691 203.912 74.1385 204.818 73.792 205.435C73.6338 205.716 73.5126 206.059 73.3877 206.418C73.2224 206.892 73.0492 207.393 72.7695 207.803C72.539 208.14 72.1931 208.361 71.8877 208.558C71.7927 208.619 71.7019 208.678 71.6191 208.737C71.5564 208.908 71.494 209.08 71.4326 209.251C71.3868 209.379 71.3418 209.508 71.2969 209.637C71.3155 209.699 71.3372 209.765 71.3594 209.833C71.4709 210.178 71.6075 210.601 71.5859 211.052C71.5516 211.765 71.2144 212.278 70.8594 212.822C70.7758 212.95 70.6921 213.081 70.6104 213.215L66.6602 201.627C66.7291 201.252 66.7931 200.889 66.8545 200.543C67.0002 199.721 67.1411 198.993 67.3438 198.421C67.8302 197.044 68.7463 195.658 69.4434 194.623C69.5566 194.455 69.6636 194.297 69.7617 194.15C70.1368 193.255 70.5205 192.366 70.9229 191.472C70.994 191.434 71.0671 191.397 71.1416 191.359C72.0783 190.884 72.5446 190.006 73.3545 188.603C73.7054 187.995 74.1152 187.303 74.6514 186.513C75.0009 185.998 75.3555 185.831 75.6406 185.693C75.7245 185.653 75.8031 185.614 75.874 185.571C76.1165 185.424 76.1322 185.139 76.1572 184.804C76.1898 184.366 76.2365 183.859 76.7871 183.434C78.5167 182.093 78.6056 181.171 78.75 180.443C78.7882 180.233 78.8257 180.044 78.8984 179.872C79.1351 179.315 79.7924 178.73 80.3486 178.343C80.7944 178.026 81.3136 177.144 81.6777 176.465C81.8155 176.206 82.0733 175.915 82.3857 175.567C82.7133 175.203 83.0927 174.787 83.4551 174.317C84.3677 173.143 84.9311 172.539 85.3682 172.068C85.4941 171.934 85.613 171.81 85.7314 171.688C86.1042 171.302 86.5939 170.844 87.1143 170.386C87.7345 169.839 88.3681 169.329 88.8633 168.932C90.2595 167.998 91.6748 167.159 93.1133 166.402C93.8426 166.023 94.6117 165.694 95.1338 165.455C95.6626 165.217 95.9303 165.056 95.9297 165.054Z" fill="black"/>
<path d="M80.792 131.433C80.7796 131.443 80.4316 131.804 79.8906 132.502C79.3368 133.209 78.6312 134.208 77.8857 135.229C76.376 137.288 74.9418 139.39 73.5576 141.523C71.8726 144.119 70.267 146.756 68.6729 149.374C67.554 151.21 66.4527 153.043 65.3564 154.879C65.2437 155.068 65.1301 155.257 65.0176 155.445C64.2687 157.108 63.5628 158.774 63.0205 159.922C62.5739 160.868 62.1265 161.477 61.7383 161.996C61.4718 162.353 61.2346 162.669 61.0557 163.027C60.9596 163.22 60.8343 163.486 60.6836 163.808C60.0638 165.122 59.0574 167.362 57.8486 169.237C57.3108 170.069 56.6088 170.991 55.9336 171.871C54.9695 173.128 54.0559 174.308 53.8066 175.016C53.3694 176.259 52.6012 177.538 51.9189 178.674C51.4474 179.459 51.0199 180.175 50.7852 180.758L43.7354 180.317L41.6035 180.569C41.8278 180.209 42.0436 179.866 42.248 179.546C42.4158 179.283 42.5755 179.035 42.7217 178.806C43.3662 177.443 44.0221 176.091 44.6982 174.742C44.7873 174.675 44.8788 174.609 44.9717 174.541C46.1337 173.696 46.8968 172.325 48.1689 170.189C48.7234 169.26 49.3729 168.189 50.1934 166.961C50.7228 166.17 51.1694 165.865 51.5293 165.614C51.6353 165.541 51.735 165.47 51.8271 165.396C52.1422 165.139 52.2391 164.729 52.3594 164.25C52.5144 163.627 52.7163 162.885 53.4512 162.189C55.7792 159.969 56.1693 158.613 56.5146 157.598C56.614 157.3 56.7064 157.031 56.8359 156.778C57.2564 155.958 58.1779 155 58.9365 154.326C59.5373 153.791 60.3695 152.469 60.9785 151.446C61.208 151.059 61.5922 150.589 62.0488 150.04C62.5221 149.472 63.0729 148.816 63.6211 148.085C65.0129 146.238 65.8053 145.305 66.4414 144.55C66.6234 144.335 66.7947 144.137 66.9658 143.938C67.5062 143.312 68.205 142.552 68.9219 141.802C69.7806 140.901 70.6735 140.005 71.3525 139.324C73.2252 137.656 75.1289 136.038 77.0498 134.454C78.036 133.644 79.0209 132.905 79.7236 132.341C80.4202 131.788 80.7839 131.443 80.792 131.433Z" fill="black"/>
<path d="M142 21.418C141.999 21.4185 142.111 21.6592 142.371 22.0635C142.628 22.4682 143.016 23.0103 143.406 23.5742C144.178 24.6914 145.01 25.8037 145.854 26.874C146.889 28.1878 147.958 29.4678 149.003 30.7373C149.744 31.6408 150.469 32.5156 151.204 33.415C151.28 33.5073 151.355 33.5999 151.431 33.6924C151.893 34.1226 152.361 34.5489 152.767 34.9277L151.447 39.7988C151.065 39.2049 150.694 38.9415 150.399 38.7168C150.264 38.6147 150.142 38.5202 150.038 38.4092C149.701 38.0466 149.412 37.3819 149.24 36.8584C149.101 36.4407 148.598 35.7854 148.186 35.2832C148.031 35.0958 147.87 34.8098 147.684 34.4736C147.49 34.1245 147.271 33.7242 147.006 33.3105C146.332 32.2542 146.014 31.6806 145.757 31.2207C145.685 31.0902 145.616 30.964 145.548 30.8389C145.333 30.4435 145.083 29.9458 144.844 29.4404C144.559 28.8395 144.279 28.2098 144.066 27.7344C143.604 26.4674 143.159 25.1693 142.757 23.9023C142.546 23.2399 142.374 22.5886 142.236 22.127C142.101 21.6637 142.002 21.4184 142 21.418Z" fill="black"/>
</svg>
