<svg width="174" height="155" viewBox="0 0 174 155" fill="none" xmlns="http://www.w3.org/2000/svg">
<path d="M10.5352 117.748C10.5326 117.748 10.176 117.996 9.60449 118.51C9.02848 119.021 8.28584 119.757 7.50977 120.489C6.84251 121.119 6.16573 121.771 5.49121 122.432L0.175781 123.061C0.539488 122.836 0.88085 122.628 1.18848 122.438C3.05464 121.459 4.99707 120.468 6.84863 119.56C7.81512 119.084 8.77889 118.66 9.47266 118.318C10.168 117.981 10.5357 117.75 10.5352 117.748Z" fill="black"/>
<path d="M57.1367 144.019C57.1269 144.024 56.8704 144.205 56.4775 144.608C56.0789 145.012 55.5522 145.638 55.0459 146.247C53.9988 147.49 53.0664 148.801 52.1846 150.173C51.2768 151.6 50.4416 153.077 49.6172 154.561L47.9531 149.679C48.0731 149.57 48.1965 149.46 48.3213 149.351C48.9416 148.804 49.5751 148.294 50.0703 147.896C51.4666 146.963 52.8818 146.124 54.3203 145.367C55.0497 144.988 55.8187 144.659 56.3408 144.42C56.8697 144.182 57.1373 144.021 57.1367 144.019Z" fill="black"/>
<path d="M42 110.397C41.9876 110.408 41.6396 110.769 41.0986 111.467C40.5448 112.174 39.8392 113.173 39.0938 114.194C37.584 116.253 36.1498 118.355 34.7656 120.488C34.7264 120.549 34.6876 120.609 34.6484 120.67L30.4766 120.409C31.2249 119.633 31.972 118.879 32.5605 118.289C34.4332 116.621 36.3369 115.003 38.2578 113.419C39.244 112.608 40.2289 111.87 40.9316 111.306C41.6282 110.752 41.9919 110.408 42 110.397Z" fill="black"/>
<path d="M173.255 0.439453C173.246 0.441502 172.951 0.542484 172.447 0.78125C171.936 1.02055 171.245 1.38707 170.526 1.75684C169.105 2.4878 167.677 3.28668 166.298 4.10645C164.603 5.11078 162.942 6.16201 161.301 7.19336C160.136 7.92339 158.999 8.64462 157.842 9.375C157.723 9.45009 157.604 9.52537 157.484 9.60059C156.584 10.3273 155.7 11.0659 155.054 11.5605C154.518 11.9703 154.097 12.1789 153.724 12.3594C153.468 12.4832 153.239 12.5921 153.032 12.7422C152.921 12.8228 152.771 12.9365 152.591 13.0742C151.958 13.5535 150.985 14.3131 149.941 14.959V9.69727C151.169 9.22355 151.655 8.71754 152.05 8.33594C152.191 8.19778 152.32 8.07363 152.465 7.96973C152.942 7.62865 153.741 7.35487 154.362 7.19531C154.856 7.06712 155.696 6.56548 156.339 6.1582C156.58 6.00462 156.933 5.84787 157.348 5.66797C157.778 5.48138 158.266 5.27269 158.788 5.0127C160.109 4.35831 160.819 4.05571 161.389 3.80957C161.55 3.74044 161.708 3.67373 161.861 3.60938C162.349 3.40473 162.96 3.16975 163.578 2.94629C164.312 2.68087 165.082 2.42 165.66 2.22461C167.185 1.80999 168.748 1.41866 170.271 1.0752C171.068 0.893884 171.843 0.756689 172.398 0.641602C172.955 0.529071 173.255 0.441169 173.255 0.439453Z" fill="black"/>
</svg>
