<svg width="188" height="163" viewBox="0 0 188 163" fill="none" xmlns="http://www.w3.org/2000/svg">
<path d="M24.5898 118.248C24.5873 118.248 24.2307 118.496 23.6592 119.01C23.0832 119.521 22.3405 120.257 21.5645 120.989C20.0279 122.44 18.436 124.003 16.9531 125.535C15.1875 127.367 13.3036 129.365 11.585 131.206C11.1685 131.646 10.757 132.085 10.3486 132.52L0.761719 133.653C1.18682 133.354 1.66491 133.083 2.09082 132.872C2.70631 132.567 3.65576 131.608 4.34473 130.869C4.59865 130.594 5.0054 130.288 5.48926 129.93C5.99016 129.56 6.57481 129.132 7.1709 128.631C8.70032 127.351 9.50687 126.762 10.1768 126.265C10.367 126.125 10.5457 125.995 10.7246 125.866C11.2907 125.457 12.0171 124.97 12.7686 124.484C13.684 123.89 14.5482 123.368 15.2432 122.938C17.1093 121.959 19.0518 120.968 20.9033 120.06C21.8698 119.584 22.8336 119.16 23.5273 118.818C24.2226 118.481 24.5904 118.25 24.5898 118.248Z" fill="black"/>
<path d="M71.1895 144.519C71.1796 144.524 70.9231 144.705 70.5303 145.108C70.1316 145.512 69.6049 146.138 69.0986 146.747C68.0516 147.99 67.1191 149.301 66.2373 150.673C65.1958 152.31 64.2493 154.014 63.3057 155.717C62.6699 156.876 62.0077 158.096 61.3906 159.258C61.326 159.379 61.2602 159.5 61.1953 159.622C60.8559 160.67 60.5535 161.713 60.2959 162.462L57.7305 154.937C58.0376 154.595 58.3836 154.212 58.7148 153.782C59.6275 152.608 60.1909 152.004 60.6279 151.533C60.7539 151.399 60.8728 151.275 60.9912 151.152C61.364 150.767 61.8536 150.309 62.374 149.851C62.9943 149.304 63.6279 148.794 64.123 148.396C65.5193 147.463 66.9345 146.624 68.373 145.867C69.1024 145.488 69.8715 145.159 70.3936 144.92C70.9224 144.682 71.19 144.521 71.1895 144.519Z" fill="black"/>
<path d="M56.0527 110.897C56.0404 110.908 55.6924 111.269 55.1514 111.967C54.5975 112.674 53.892 113.673 53.1465 114.694C51.6367 116.753 50.2025 118.855 48.8184 120.988C47.1334 123.584 45.5278 126.221 43.9336 128.839C43.6214 129.351 43.3117 129.864 43.002 130.376L36.9062 129.995C37.0319 129.84 37.1674 129.676 37.3096 129.505C37.7828 128.936 38.3337 128.281 38.8818 127.55C40.2737 125.703 41.0661 124.77 41.7021 124.015C41.8842 123.8 42.0554 123.602 42.2266 123.403C42.7669 122.777 43.4657 122.017 44.1826 121.267C45.0413 120.366 45.9342 119.47 46.6133 118.789C48.4859 117.121 50.3896 115.503 52.3105 113.919C53.2967 113.108 54.2816 112.37 54.9844 111.806C55.6809 111.252 56.0447 110.908 56.0527 110.897Z" fill="black"/>
<path d="M187.31 0.939453C187.301 0.941502 187.005 1.04248 186.502 1.28125C185.991 1.52055 185.3 1.88707 184.581 2.25684C183.16 2.9878 181.732 3.78668 180.353 4.60645C178.657 5.61078 176.996 6.66201 175.355 7.69336C174.19 8.42339 173.054 9.14462 171.896 9.875C171.778 9.95009 171.658 10.0254 171.539 10.1006C170.638 10.8273 169.755 11.5659 169.108 12.0605C168.573 12.4703 168.152 12.6789 167.778 12.8594C167.523 12.9832 167.294 13.0921 167.087 13.2422C166.976 13.3228 166.826 13.4365 166.646 13.5742C165.899 14.1399 164.679 15.0977 163.427 15.7959C162.871 16.1049 162.204 16.4094 161.557 16.7002C160.633 17.1154 159.759 17.499 159.405 17.8174C158.782 18.3791 157.958 18.8595 157.225 19.2832C156.53 19.6853 155.921 20.0366 155.664 20.3721C155.358 20.7732 154.994 20.9626 154.45 21.2422C154.073 21.4362 153.612 21.6718 153.025 22.0566C152.349 22.5011 151.822 22.75 151.374 22.9609C150.744 23.2575 150.268 23.4799 149.752 24.082C149.179 24.7506 148.538 25.3866 147.935 25.752C147.66 25.9184 147.369 26.142 147.067 26.375C146.668 26.6835 146.248 27.0083 145.815 27.2383C145.459 27.4278 145.1 27.501 144.783 27.5654C144.685 27.5855 144.589 27.6052 144.5 27.627C144.354 27.7371 144.208 27.8472 144.063 27.958C143.955 28.0407 143.847 28.1239 143.739 28.207C143.713 28.2579 143.687 28.3134 143.659 28.3701C143.518 28.6554 143.345 29.0059 143.054 29.335C142.591 29.8563 142.057 30.1487 141.496 30.457C141.059 30.6971 140.604 30.9475 140.153 31.3232C140.101 31.3666 140.049 31.4129 139.996 31.46V25.3477C140.454 25.0164 140.911 24.6864 141.367 24.3525C141.704 24.1059 142.041 23.8577 142.377 23.6094C143.268 22.9512 144.158 22.2918 145.048 21.6309C145.526 21.1906 145.972 20.7581 146.388 20.3604C146.972 19.8015 147.498 19.31 147.965 18.9512C149.093 18.0842 150.519 17.3133 151.581 16.749C151.755 16.6566 151.919 16.5693 152.07 16.4883C152.846 15.9371 153.624 15.3927 154.407 14.8555C154.477 14.846 154.549 14.8378 154.621 14.8291C155.524 14.7202 156.366 14.1929 157.713 13.3945C158.303 13.0448 158.988 12.6441 159.811 12.207C160.34 11.9263 160.677 11.8913 160.955 11.8584C161.037 11.849 161.114 11.8404 161.188 11.8262C161.441 11.7771 161.617 11.576 161.826 11.3428C162.097 11.0395 162.429 10.6826 163.044 10.5127C165 9.96068 165.621 9.30372 166.104 8.83594C166.246 8.69778 166.375 8.57363 166.52 8.46973C166.997 8.12865 167.795 7.85487 168.417 7.69531C168.911 7.56712 169.751 7.06548 170.394 6.6582C170.634 6.50462 170.988 6.34787 171.402 6.16797C171.833 5.98138 172.321 5.77269 172.843 5.5127C174.163 4.85831 174.874 4.55571 175.443 4.30957C175.605 4.24044 175.762 4.17373 175.916 4.10938C176.404 3.90473 177.015 3.66975 177.633 3.44629C178.367 3.18087 179.136 2.92 179.715 2.72461C181.24 2.30999 182.803 1.91866 184.325 1.5752C185.123 1.39388 185.898 1.25669 186.453 1.1416C187.01 1.02907 187.309 0.941169 187.31 0.939453Z" fill="black"/>
</svg>
