<svg width="200" height="176" viewBox="0 0 200 176" fill="none" xmlns="http://www.w3.org/2000/svg">
<path d="M37.0889 118.248C37.0863 118.248 36.7297 118.496 36.1582 119.01C35.5822 119.521 34.8395 120.257 34.0635 120.989C32.5269 122.44 30.935 124.003 29.4521 125.535C27.6865 127.367 25.8027 129.365 24.084 131.206C22.8119 132.551 21.5788 133.871 20.3779 135.162C20.2492 135.3 20.1204 135.437 19.9922 135.574C19.0836 136.851 18.2356 138.12 17.6143 138.966C17.1126 139.653 16.6013 140.092 16.1865 140.438C15.8981 140.679 15.6427 140.892 15.4365 141.156C15.3258 141.298 15.1791 141.498 15.0049 141.737C14.4496 142.498 13.5795 143.721 12.5977 144.845L0.652344 146.258C1.26597 145.701 1.89928 144.967 2.69629 144.082C3.31293 143.397 4.04288 142.606 4.96484 141.708C5.54151 141.151 5.99028 140.997 6.35254 140.87C6.45918 140.833 6.55938 140.798 6.65332 140.756C6.97536 140.612 7.11268 140.276 7.2832 139.882C7.50313 139.37 7.78485 138.76 8.56055 138.329C10.961 137.011 11.5015 135.91 11.958 135.095C12.0902 134.855 12.2124 134.639 12.3672 134.447C12.8479 133.846 13.8077 133.259 14.5898 132.872C15.2053 132.567 16.1548 131.608 16.8438 130.869C17.0977 130.594 17.5044 130.288 17.9883 129.93C18.4892 129.56 19.0738 129.132 19.6699 128.631C21.1993 127.351 22.0059 126.762 22.6758 126.265C22.866 126.125 23.0447 125.995 23.2236 125.866C23.7897 125.457 24.5161 124.97 25.2676 124.484C26.183 123.89 27.0472 123.368 27.7422 122.938C29.6083 121.959 31.5508 120.968 33.4023 120.06C34.3688 119.584 35.3326 119.16 36.0264 118.818C36.7217 118.481 37.0894 118.25 37.0889 118.248Z" fill="black"/>
<path d="M83.6904 144.519C83.6806 144.524 83.4241 144.705 83.0312 145.108C82.6326 145.512 82.1059 146.138 81.5996 146.747C80.5526 147.99 79.6201 149.301 78.7383 150.673C77.6968 152.31 76.7502 154.014 75.8066 155.717C75.1709 156.876 74.5086 158.096 73.8916 159.258C73.8269 159.379 73.7612 159.5 73.6963 159.622C73.3339 160.741 73.0159 161.856 72.7471 162.611C72.5247 163.235 72.2362 163.616 71.9824 163.94C71.8111 164.16 71.6573 164.353 71.5635 164.586C71.5132 164.711 71.4495 164.886 71.374 165.098C71.0608 165.962 70.5648 167.444 69.8105 168.621C69.4738 169.145 68.9959 169.722 68.541 170.255C67.888 171.024 67.2554 171.751 67.1494 172.227C66.9673 173.056 66.4874 173.861 66.0518 174.583C65.887 174.857 65.7301 175.117 65.6025 175.358L62.4062 165.984C62.4079 165.982 62.4105 165.98 62.4121 165.978C62.7616 165.463 63.1162 165.296 63.4014 165.158C63.4853 165.118 63.5639 165.079 63.6348 165.036C63.8772 164.889 63.8929 164.604 63.918 164.269C63.9505 163.83 63.9972 163.323 64.5479 162.898C66.2775 161.558 66.3663 160.636 66.5107 159.908C66.5489 159.698 66.5865 159.508 66.6592 159.337C66.8958 158.78 67.5531 158.195 68.1094 157.808C68.5551 157.49 69.0744 156.608 69.4385 155.93C69.5763 155.671 69.834 155.379 70.1465 155.032C70.4741 154.668 70.8534 154.252 71.2158 153.782C72.1285 152.608 72.6919 152.004 73.1289 151.533C73.2549 151.399 73.3738 151.275 73.4922 151.152C73.865 150.767 74.3546 150.309 74.875 149.851C75.4953 149.304 76.1288 148.794 76.624 148.396C78.0203 147.463 79.4355 146.624 80.874 145.867C81.6034 145.488 82.3725 145.159 82.8945 144.92C83.4234 144.682 83.691 144.521 83.6904 144.519Z" fill="black"/>
<path d="M68.5537 110.897C68.5413 110.908 68.1933 111.269 67.6523 111.967C67.0985 112.674 66.3929 113.673 65.6475 114.694C64.1377 116.753 62.7035 118.855 61.3193 120.988C59.6344 123.584 58.0288 126.221 56.4346 128.839C55.3157 130.674 54.2144 132.508 53.1182 134.344C53.0054 134.533 52.8919 134.721 52.7793 134.91C52.0304 136.573 51.3246 138.239 50.7822 139.387C50.3357 140.333 49.8882 140.942 49.5 141.461C49.2496 141.797 49.0261 142.097 48.8516 142.429L40.9453 141.935C41.0256 141.84 41.1147 141.747 41.2129 141.654C43.5409 139.434 43.9311 138.078 44.2764 137.062C44.3757 136.765 44.4682 136.496 44.5977 136.243C45.0181 135.423 45.9396 134.464 46.6982 133.791C47.299 133.255 48.1312 131.933 48.7402 130.911C48.9697 130.524 49.354 130.054 49.8105 129.505C50.2838 128.936 50.8346 128.281 51.3828 127.55C52.7747 125.703 53.5671 124.77 54.2031 124.015C54.3851 123.8 54.5564 123.602 54.7275 123.403C55.2679 122.777 55.9667 122.017 56.6836 121.267C57.5423 120.366 58.4352 119.47 59.1143 118.789C60.9869 117.121 62.8906 115.503 64.8115 113.919C65.7977 113.108 66.7826 112.37 67.4854 111.806C68.1819 111.252 68.5456 110.908 68.5537 110.897Z" fill="black"/>
<path d="M199.81 0.939453C199.801 0.941502 199.505 1.04248 199.002 1.28125C198.491 1.52055 197.8 1.88707 197.081 2.25684C195.66 2.9878 194.232 3.78668 192.853 4.60645C191.157 5.61078 189.496 6.66201 187.855 7.69336C186.69 8.42339 185.554 9.14462 184.396 9.875C184.278 9.95009 184.158 10.0254 184.039 10.1006C183.138 10.8273 182.255 11.5659 181.608 12.0605C181.073 12.4703 180.652 12.6789 180.278 12.8594C180.023 12.9832 179.794 13.0921 179.587 13.2422C179.476 13.3228 179.326 13.4365 179.146 13.5742C178.399 14.1399 177.179 15.0977 175.927 15.7959C175.371 16.1049 174.704 16.4094 174.057 16.7002C173.133 17.1154 172.259 17.499 171.905 17.8174C171.282 18.3791 170.458 18.8595 169.725 19.2832C169.03 19.6853 168.421 20.0366 168.164 20.3721C167.858 20.7732 167.494 20.9626 166.95 21.2422C166.573 21.4362 166.112 21.6718 165.525 22.0566C164.849 22.5011 164.322 22.75 163.874 22.9609C163.244 23.2575 162.768 23.4799 162.252 24.082C161.679 24.7506 161.038 25.3866 160.435 25.752C160.16 25.9184 159.869 26.142 159.567 26.375C159.168 26.6835 158.748 27.0083 158.315 27.2383C157.959 27.4278 157.6 27.501 157.283 27.5654C157.185 27.5855 157.089 27.6052 157 27.627C156.854 27.7371 156.708 27.8472 156.563 27.958C156.455 28.0407 156.347 28.1239 156.239 28.207C156.213 28.2579 156.187 28.3134 156.159 28.3701C156.018 28.6554 155.845 29.0059 155.554 29.335C155.091 29.8563 154.557 30.1487 153.996 30.457C153.559 30.6971 153.104 30.9475 152.653 31.3232C152.346 31.5794 152.019 31.9076 151.696 32.2305C151.217 32.7107 150.744 33.1822 150.343 33.416C150.192 33.5036 150.016 33.5203 149.841 33.5352L149.838 33.5342C149.826 33.5352 149.814 33.5361 149.803 33.5371C148.952 34.2793 148.107 35.0262 147.27 35.7705C147.208 35.8477 147.144 35.9255 147.081 36.0029C146.771 36.3816 146.471 36.7483 146.327 37.0498C146.171 37.3766 145.576 37.9465 144.951 38.541C144.537 38.9348 144.108 39.3399 143.78 39.6943C143.589 39.9015 143.319 39.992 143.043 40.0859C142.786 40.1733 142.522 40.2646 142.309 40.4521C142.203 40.5454 142.1 40.6688 141.992 40.7979C141.897 40.9118 141.795 41.0318 141.68 41.1455C141.572 41.2511 141.275 41.4167 140.896 41.6289C140.662 41.7602 140.397 41.9102 140.125 42.0742C139.502 42.6087 138.853 43.1579 138.217 43.6895C138.122 43.8459 138.059 44.0045 138.037 44.1611C138.021 44.2733 138.026 44.3894 138.03 44.5078C138.036 44.6693 138.04 44.836 137.994 45.0029C137.958 45.1329 137.872 45.2345 137.776 45.2598C137.732 45.2713 137.685 45.267 137.644 45.2627C137.596 45.2575 137.552 45.2537 137.522 45.2754C137.501 45.2913 137.493 45.325 137.483 45.3652C137.468 45.4298 137.447 45.5135 137.36 45.5771C137.246 45.6613 137.122 45.7438 136.996 45.8301V36.9297C137.159 36.7932 137.323 36.6569 137.487 36.5215C137.531 36.4782 137.576 36.4342 137.621 36.3896C138.493 35.5236 139.555 34.4817 140.343 33.9375C141.34 33.2485 142.04 32.833 142.63 32.4922C145.704 30.1912 148.853 27.9804 151.962 25.7363C152.6 25.2759 153.233 24.8163 153.867 24.3525C154.204 24.1059 154.541 23.8577 154.877 23.6094C155.768 22.9512 156.658 22.2918 157.548 21.6309C158.026 21.1906 158.472 20.7581 158.888 20.3604C159.472 19.8015 159.998 19.31 160.465 18.9512C161.593 18.0842 163.019 17.3133 164.081 16.749C164.255 16.6566 164.419 16.5693 164.57 16.4883C165.346 15.9371 166.124 15.3927 166.907 14.8555C166.977 14.846 167.049 14.8378 167.121 14.8291C168.024 14.7202 168.866 14.1929 170.213 13.3945C170.803 13.0448 171.488 12.6441 172.311 12.207C172.84 11.9263 173.177 11.8913 173.455 11.8584C173.537 11.849 173.614 11.8404 173.688 11.8262C173.941 11.7771 174.117 11.576 174.326 11.3428C174.597 11.0395 174.929 10.6826 175.544 10.5127C177.5 9.96068 178.121 9.30372 178.604 8.83594C178.746 8.69778 178.875 8.57363 179.02 8.46973C179.497 8.12865 180.295 7.85487 180.917 7.69531C181.411 7.56712 182.251 7.06548 182.894 6.6582C183.134 6.50462 183.488 6.34787 183.902 6.16797C184.333 5.98138 184.821 5.77269 185.343 5.5127C186.663 4.85831 187.374 4.55571 187.943 4.30957C188.105 4.24044 188.262 4.17373 188.416 4.10938C188.904 3.90473 189.515 3.66975 190.133 3.44629C190.867 3.18087 191.636 2.92 192.215 2.72461C193.74 2.30999 195.303 1.91866 196.825 1.5752C197.623 1.39388 198.398 1.25669 198.953 1.1416C199.51 1.02907 199.809 0.941169 199.81 0.939453Z" fill="black"/>
</svg>
