<svg width="225" height="254" viewBox="0 0 225 254" fill="none" xmlns="http://www.w3.org/2000/svg">
<path d="M146.497 73.3507C146.927 72.6123 147.944 71.3926 148.523 70.7459C148.534 70.7338 148.544 70.7218 148.555 70.7097C148.693 70.5544 148.82 70.4032 148.969 70.2256C149.339 69.7946 149.783 69.2449 150.885 68.155C151.18 67.808 151.475 67.4655 151.767 67.1322C154.96 63.4825 158.459 60.1295 162.188 57.0563C162.232 57.013 162.276 56.9689 162.321 56.9244C163.193 56.0582 164.256 55.0165 165.043 54.4723C166.041 53.7833 166.74 53.3689 167.33 53.0281C170.404 50.7269 173.553 48.5154 176.662 46.2712C177.3 45.8108 177.933 45.3517 178.567 44.8879C178.904 44.6411 179.241 44.3935 179.578 44.145C180.469 43.4867 181.358 42.8268 182.248 42.1658C182.726 41.7256 183.172 41.2938 183.588 40.896C184.172 40.337 184.698 39.845 185.165 39.4861C186.293 38.6191 187.719 37.8484 188.781 37.2841C188.955 37.1916 189.12 37.1045 189.271 37.0234C190.047 36.4722 190.824 35.9283 191.607 35.3911C191.677 35.3816 191.748 35.3728 191.821 35.364C192.724 35.2553 193.566 34.7282 194.913 33.9297C195.503 33.5799 196.188 33.1796 197.01 32.7425C197.54 32.4613 197.878 32.4264 198.156 32.3934C198.237 32.384 198.314 32.375 198.388 32.3608C198.641 32.3117 198.816 32.1111 199.026 31.8777C199.297 31.5744 199.629 31.218 200.244 31.0481C202.201 30.496 202.821 29.8387 203.304 29.3709C203.446 29.2326 203.575 29.1087 203.72 29.0046C204.197 28.6635 204.995 28.3903 205.617 28.2307C206.111 28.1027 206.95 27.6009 207.593 27.1934C207.834 27.0398 208.187 26.8839 208.602 26.704C209.033 26.5172 209.522 26.3082 210.044 26.0479C211.365 25.3935 212.074 25.0904 212.643 24.8443C212.805 24.7751 212.962 24.7085 213.116 24.6441C213.604 24.4394 214.215 24.2054 214.833 23.9819C215.567 23.7164 216.337 23.4553 216.915 23.2599C218.44 22.8452 220.004 22.4541 221.526 22.1106C222.323 21.9293 223.098 21.7917 223.654 21.6766C224.211 21.564 224.51 21.4766 224.51 21.475C224.51 21.4741 224.213 21.5742 223.702 21.8167C223.19 22.056 222.5 22.4222 221.781 22.792C220.359 23.5231 218.932 24.3219 217.553 25.1418C215.857 26.1462 214.197 27.1972 212.556 28.2286C211.391 28.9588 210.254 29.6799 209.097 30.4104C208.977 30.4855 208.858 30.5607 208.739 30.636C207.838 31.3627 206.955 32.1016 206.309 32.5962C205.773 33.0063 205.351 33.2142 204.978 33.3948C204.722 33.5187 204.495 33.6276 204.288 33.7777C204.177 33.8584 204.027 33.9722 203.846 34.1101C203.099 34.6758 201.88 35.6336 200.627 36.3318C200.071 36.6408 199.405 36.944 198.757 37.2349C197.833 37.6502 196.959 38.0336 196.606 38.352C195.982 38.914 195.158 39.3941 194.425 39.818C193.729 40.2204 193.12 40.5718 192.863 40.9075C192.558 41.3088 192.194 41.4973 191.65 41.7771C191.273 41.9712 190.812 42.2075 190.226 42.5924C189.549 43.0368 189.023 43.2852 188.574 43.4962C187.944 43.7927 187.469 44.0147 186.953 44.6169C186.38 45.2858 185.738 45.9213 185.134 46.2867C184.859 46.4532 184.569 46.6769 184.267 46.91C183.868 47.2186 183.448 47.5434 183.015 47.7734C182.659 47.963 182.3 48.0358 181.983 48.1002C181.885 48.1203 181.79 48.1398 181.7 48.1616C181.555 48.2718 181.409 48.3823 181.264 48.4931C181.156 48.5759 181.048 48.6589 180.94 48.7422C180.914 48.7932 180.887 48.8479 180.859 48.9048C180.718 49.1902 180.545 49.5406 180.253 49.8698C179.791 50.3913 179.258 50.6837 178.696 50.9921C178.259 51.2323 177.805 51.4828 177.354 51.8587C177.046 52.115 176.719 52.4429 176.396 52.7659C175.917 53.2461 175.445 53.7181 175.043 53.9519C174.893 54.0396 174.716 54.0546 174.541 54.0695C174.54 54.0694 174.539 54.0694 174.538 54.0693C174.527 54.0703 174.515 54.0715 174.503 54.0725C173.652 54.8147 172.807 55.5613 171.97 56.3056C171.908 56.383 171.845 56.461 171.782 56.5386C171.472 56.9173 171.171 57.2832 171.027 57.5847C170.871 57.9116 170.276 58.482 169.651 59.0767C169.236 59.4706 168.808 59.8756 168.48 60.23C168.289 60.4372 168.02 60.5273 167.744 60.6212C167.486 60.7086 167.223 60.7996 167.009 60.9874C166.903 61.0807 166.801 61.2035 166.692 61.3327C166.597 61.4467 166.496 61.5669 166.381 61.6806C166.273 61.7863 165.975 61.9513 165.596 62.1639C165.362 62.2953 165.096 62.4449 164.824 62.6091C164.201 63.1437 163.553 63.6934 162.917 64.2251C162.822 64.3816 162.759 64.5389 162.737 64.6955C162.722 64.8079 162.726 64.9243 162.73 65.0431C162.735 65.2046 162.741 65.3708 162.694 65.5377C162.658 65.6682 162.572 65.7706 162.476 65.7956C162.431 65.8072 162.385 65.8022 162.343 65.7979C162.295 65.7927 162.252 65.7891 162.222 65.8112C162.201 65.8271 162.193 65.8604 162.184 65.9008C162.168 65.9654 162.147 66.0488 162.061 66.1125C161.74 66.3494 161.358 66.5976 160.987 66.8398C160.573 67.1091 160.171 67.3714 159.872 67.6013C159.535 67.8597 158.975 68.1621 158.428 68.4621C158.046 68.6718 157.666 68.8827 157.357 69.0795C157.056 69.2703 156.771 69.5212 156.497 69.7602C156.167 70.0475 155.85 70.3187 155.522 70.4826C155.455 70.5157 155.337 70.5164 155.189 70.5188C155.085 70.5204 154.965 70.5232 154.84 70.5379C154.479 70.8014 154.108 71.0696 153.734 71.3376C153.726 71.3534 153.719 71.3696 153.711 71.3859C153.711 71.3862 153.711 71.3865 153.711 71.3868C153.542 71.757 153.292 72.2382 152.606 72.5352C152.432 72.6114 152.293 72.6267 152.169 72.6415C152.047 72.6561 151.94 72.669 151.823 72.7417C151.69 72.8232 151.568 72.9563 151.435 73.0991C151.247 73.3001 151.035 73.5189 150.75 73.6589C150.731 73.6685 150.71 73.6787 150.688 73.6895C150.483 73.7921 150.181 73.9437 149.852 74.0609C149.058 74.6137 148.24 75.1906 147.461 75.7411C146.122 76.6958 144.818 77.6459 143.529 78.6309C142.923 79.0868 142.272 79.5703 141.846 79.9079C141.411 80.2507 141.196 80.4605 141.197 80.4616C141.198 80.4621 141.404 80.2439 141.746 79.8058C142.081 79.377 142.568 78.7233 143.032 78.1189C143.82 77.1042 144.617 76.0722 145.411 75.0429C145.451 74.9868 145.492 74.9305 145.533 74.8744C145.841 74.4526 146.084 74.0528 146.329 73.6379C146.385 73.5428 146.441 73.4469 146.497 73.3507Z" fill="black"/>
<path d="M61.7888 138.783C61.784 138.784 61.4278 139.033 60.8581 139.545C60.2821 140.056 59.5394 140.792 58.7634 141.524C57.2268 142.975 55.6359 144.538 54.153 146.07C52.3873 147.902 50.5037 149.9 48.7849 151.741C47.5127 153.086 46.2798 154.406 45.0788 155.697C44.95 155.835 44.8204 155.972 44.6921 156.109C43.7835 157.386 42.9355 158.656 42.3142 159.501C41.8125 160.188 41.3013 160.627 40.8864 160.973C40.5981 161.214 40.3426 161.427 40.1364 161.691C40.0257 161.834 39.879 162.033 39.7048 162.272C39.0023 163.234 37.8001 164.942 36.4987 166.243C35.9204 166.819 35.1876 167.426 34.4636 168.03C33.4377 168.884 32.4872 169.669 32.197 170.215C31.6784 171.185 30.8407 172.124 30.1208 172.938C29.4364 173.71 28.8333 174.407 28.697 174.956C28.5369 175.609 28.1696 175.994 27.6267 176.565C27.2494 176.964 26.797 177.439 26.2614 178.194C25.6507 179.057 25.1234 179.595 24.6755 180.055C24.0511 180.694 23.5641 181.207 23.3083 182.219C23.022 183.348 22.6606 184.426 22.1325 185.192C21.8947 185.537 21.6811 185.961 21.4636 186.402C21.1751 186.987 20.8802 187.598 20.4987 188.1C20.1802 188.521 19.7718 188.797 19.4108 189.044C19.2982 189.121 19.1895 189.196 19.0905 189.271C18.9887 189.485 18.8888 189.7 18.7897 189.914C18.7159 190.074 18.6421 190.234 18.57 190.395C18.5772 190.472 18.5867 190.555 18.5964 190.64C18.645 191.067 18.708 191.587 18.6003 192.156C18.432 193.053 17.9968 193.703 17.5427 194.395C17.191 194.929 16.8224 195.505 16.573 196.227C16.4028 196.719 16.2739 197.303 16.1521 197.879C15.9729 198.729 15.7981 199.589 15.5065 200.116C15.397 200.314 15.1892 200.446 14.9841 200.576C14.983 200.577 14.9813 200.578 14.9802 200.578C14.9663 200.587 14.9529 200.597 14.9392 200.605C14.5505 202.002 14.1882 203.429 13.8562 204.844C13.8523 204.974 13.8472 205.105 13.8425 205.234C13.8204 205.865 13.7973 206.49 13.9089 206.925C14.0291 207.398 13.8496 208.446 13.6706 209.549C13.5517 210.276 13.4328 211.027 13.3884 211.65C13.3621 212.014 13.1279 212.31 12.8903 212.617C12.6687 212.902 12.4436 213.202 12.3747 213.567C12.3402 213.751 12.3403 213.957 12.3405 214.177C12.3408 214.37 12.3414 214.574 12.3181 214.782C12.2961 214.976 12.1073 215.377 11.8718 215.895C11.7261 216.214 11.5619 216.581 11.406 216.97C11.2069 218.038 11.0086 219.104 10.8063 220.173C10.8561 220.412 10.9427 220.628 11.0778 220.809C11.1749 220.938 11.3005 221.057 11.4274 221.177C11.6001 221.34 11.7781 221.508 11.8962 221.719C11.9885 221.883 11.9914 222.061 11.905 222.165C11.8648 222.213 11.8059 222.247 11.7526 222.276C11.6917 222.31 11.6373 222.341 11.6257 222.387C11.6175 222.42 11.6422 222.461 11.6726 222.51C11.7212 222.588 11.7833 222.69 11.7487 222.824C11.62 223.324 11.4345 223.888 11.2536 224.443C11.0523 225.06 10.858 225.665 10.7497 226.154C10.6278 226.701 10.298 227.462 9.9792 228.229C9.75623 228.765 9.53802 229.304 9.38643 229.771C9.23805 230.228 9.17434 230.717 9.10908 231.19C9.03156 231.759 8.95066 232.306 8.74483 232.755C8.70307 232.846 8.56682 232.949 8.39912 233.079C8.28017 233.171 8.14454 233.277 8.01533 233.4C7.9846 233.529 7.95174 233.657 7.92061 233.785L0.921584 234.612C0.925549 234.54 0.928854 234.466 0.933302 234.391C0.907477 233.789 0.887122 233.185 0.873732 232.584C0.716144 226.087 1.26689 219.53 2.68819 213.082C2.6973 212.999 2.70698 212.914 2.71651 212.828C2.89875 211.172 3.17661 209.121 3.61494 207.888C4.17067 206.317 4.64488 205.296 5.0544 204.451C6.69928 199.436 8.7623 194.553 11.0163 189.789C11.4795 188.81 11.9485 187.839 12.4216 186.878C12.6744 186.364 12.9296 185.848 13.1882 185.332C13.8769 183.957 14.5614 182.635 15.2897 181.278C15.6235 180.43 15.9073 179.654 16.195 178.91C16.594 177.874 16.986 176.935 17.3796 176.231C18.3178 174.547 19.8147 172.804 20.905 171.61C21.0854 171.411 21.2565 171.223 21.4147 171.049C22.1419 169.969 22.9023 168.886 23.6599 167.854C23.7504 167.814 23.843 167.775 23.9372 167.736C25.1074 167.259 25.9991 166.169 27.3962 164.617C28.0128 163.932 28.7428 163.141 29.6647 162.243C30.2414 161.686 30.6902 161.532 31.0524 161.405C31.1591 161.368 31.2593 161.333 31.3532 161.291C31.6753 161.147 31.8126 160.811 31.9831 160.417C32.203 159.905 32.4848 159.295 33.2605 158.864C35.661 157.546 36.2014 156.445 36.6579 155.63C36.7901 155.391 36.9123 155.174 37.0671 154.982C37.5478 154.381 38.5076 153.795 39.2897 153.407C39.9052 153.102 40.8547 152.144 41.5437 151.404C41.7976 151.129 42.2043 150.823 42.6882 150.465C43.1891 150.095 43.7737 149.668 44.3698 149.166C45.8992 147.886 46.7058 147.297 47.3757 146.8C47.5659 146.66 47.7446 146.531 47.9235 146.401C48.4896 145.992 49.2161 145.505 49.9675 145.02C50.8829 144.425 51.7471 143.903 52.4421 143.473C54.3083 142.494 56.2507 141.504 58.1022 140.595C59.0688 140.119 60.0325 139.695 60.7263 139.354C61.4216 139.016 61.7894 138.785 61.7888 138.783Z" fill="black"/>
<path d="M108.39 165.054C108.38 165.059 108.123 165.24 107.73 165.644C107.332 166.048 106.805 166.673 106.299 167.282C105.252 168.525 104.319 169.836 103.438 171.208C102.396 172.845 101.449 174.549 100.506 176.252C99.8701 177.411 99.2079 178.631 98.5908 179.793C98.5262 179.914 98.4604 180.036 98.3955 180.157C98.0331 181.276 97.7151 182.391 97.4463 183.146C97.2239 183.771 96.9355 184.151 96.6816 184.476C96.5104 184.695 96.3565 184.888 96.2627 185.121C96.2125 185.246 96.1487 185.422 96.0732 185.633C95.76 186.497 95.2641 187.979 94.5098 189.156C94.173 189.68 93.6951 190.257 93.2402 190.79C92.5872 191.559 91.9546 192.286 91.8486 192.762C91.6665 193.591 91.1866 194.396 90.751 195.118C90.3363 195.807 89.9723 196.407 89.998 196.854C90.0291 197.39 89.793 197.724 89.4365 198.224C89.1902 198.569 88.8828 199.004 88.5791 199.625C88.2274 200.346 87.8598 200.808 87.5459 201.202C87.1046 201.757 86.7667 202.18 86.749 203C86.7291 203.912 86.5984 204.818 86.252 205.435C86.0937 205.716 85.9726 206.059 85.8477 206.418C85.6823 206.892 85.5091 207.393 85.2295 207.803C84.999 208.14 84.6531 208.361 84.3477 208.558C84.2526 208.619 84.1618 208.678 84.0791 208.737C84.0164 208.908 83.954 209.08 83.8926 209.251C83.8467 209.379 83.8018 209.508 83.7568 209.637C83.7755 209.699 83.7972 209.765 83.8193 209.833C83.9308 210.178 84.0674 210.601 84.0459 211.052C84.0116 211.765 83.6743 212.278 83.3193 212.822C83.043 213.246 82.7563 213.688 82.5938 214.253C82.4829 214.638 82.4194 215.099 82.3564 215.555C82.2629 216.232 82.1692 216.902 81.9268 217.306C81.8359 217.457 81.6433 217.548 81.4531 217.64C81.452 217.64 81.4503 217.641 81.4492 217.642C81.4365 217.648 81.4238 217.654 81.4111 217.66C81.1383 218.75 80.8746 219.848 80.6162 220.943C80.6187 221.046 80.6198 221.15 80.6211 221.252C80.6273 221.753 80.6327 222.237 80.7578 222.59C80.8934 222.972 80.7496 223.791 80.5947 224.644C80.4932 225.203 80.3857 225.779 80.3477 226.262C80.3244 226.546 80.0946 226.756 79.8613 226.972C79.6434 227.173 79.4227 227.382 79.3545 227.659C79.3204 227.798 79.32 227.958 79.3193 228.129C79.3188 228.279 79.3174 228.438 79.293 228.598C79.27 228.746 79.0809 229.036 78.8428 229.408C78.6952 229.639 78.5276 229.908 78.3672 230.19C78.152 230.996 77.9314 231.795 77.7021 232.586C77.7449 232.774 77.8227 232.955 77.9502 233.112C78.0415 233.225 78.1613 233.333 78.2822 233.442C78.4467 233.591 78.6156 233.745 78.7246 233.923C78.8099 234.062 78.8078 234.2 78.7188 234.27C78.6772 234.302 78.6172 234.319 78.5635 234.335C78.502 234.353 78.4466 234.369 78.4336 234.403C78.4245 234.428 78.4484 234.463 78.4766 234.505C78.5216 234.572 78.5792 234.658 78.54 234.757C78.3942 235.124 78.1887 235.53 77.9883 235.926C77.7663 236.361 77.5432 236.812 77.4141 237.17C77.2683 237.573 76.9071 238.108 76.5557 238.643C76.3104 239.014 76.0684 239.392 75.8936 239.73C75.7229 240.06 75.6341 240.423 75.5449 240.771C75.4386 241.19 75.3298 241.589 75.1035 241.896C75.0578 241.957 74.9183 242.016 74.7461 242.09C74.6241 242.141 74.4832 242.206 74.3486 242.283C74.177 242.713 74.0019 243.14 73.8242 243.563C73.831 243.581 73.8377 243.599 73.8447 243.617L73.8467 243.618C74.0127 244.035 74.1922 244.586 73.6719 245.195C73.5402 245.355 73.3901 245.442 73.2568 245.521C73.1258 245.597 73.0105 245.667 72.9434 245.789C72.8673 245.928 72.8541 246.108 72.8369 246.302C72.8138 246.574 72.7786 246.875 72.5801 247.143C72.5667 247.161 72.5519 247.181 72.5371 247.201C72.3952 247.397 72.1881 247.677 71.9121 247.957C71.5115 248.882 71.1185 249.783 70.7383 250.685C70.3437 251.636 69.9671 252.58 69.6074 253.523L67.0293 245.962C67.0331 245.857 67.0372 245.758 67.042 245.668C67.0426 245.652 67.0443 245.636 67.0449 245.62C67.0547 245.41 67.0561 245.208 67.0586 244.971C67.069 244.405 67.0632 243.633 67.2939 242.099C67.3018 241.636 67.3154 241.171 67.3369 240.704C67.5435 235.722 68.4146 230.86 69.8291 226.148C69.8382 226.087 69.848 226.024 69.8574 225.961C70.0388 224.737 70.2902 223.197 70.6855 222.32C71.1898 221.198 71.6165 220.454 71.9795 219.854C73.3664 216.198 74.9226 212.604 76.3965 208.987C76.6981 208.248 76.9975 207.508 77.291 206.766C77.4472 206.371 77.602 205.973 77.7559 205.576C78.1637 204.524 78.5658 203.474 78.9688 202.418C79.1042 201.762 79.2106 201.128 79.3145 200.543C79.4602 199.721 79.6011 198.993 79.8037 198.421C80.2901 197.044 81.2063 195.658 81.9033 194.623C82.0165 194.455 82.1236 194.297 82.2217 194.15C82.5968 193.255 82.9805 192.366 83.3828 191.472C83.454 191.434 83.5271 191.397 83.6016 191.359C84.5382 190.884 85.0045 190.006 85.8145 188.603C86.1654 187.995 86.5752 187.303 87.1113 186.513C87.4609 185.998 87.8155 185.831 88.1006 185.693C88.1845 185.653 88.2631 185.614 88.334 185.571C88.5764 185.424 88.5921 185.139 88.6172 184.804C88.6497 184.366 88.6964 183.859 89.2471 183.434C90.9767 182.093 91.0655 181.171 91.21 180.443C91.2482 180.233 91.2857 180.044 91.3584 179.872C91.595 179.315 92.2523 178.73 92.8086 178.343C93.2543 178.026 93.7736 177.144 94.1377 176.465C94.2755 176.206 94.5333 175.915 94.8457 175.567C95.1733 175.203 95.5526 174.787 95.915 174.317C96.8277 173.143 97.3911 172.539 97.8281 172.068C97.9541 171.934 98.073 171.81 98.1914 171.688C98.5642 171.302 99.0538 170.844 99.5742 170.386C100.195 169.839 100.828 169.329 101.323 168.932C102.72 167.998 104.135 167.159 105.573 166.402C106.303 166.023 107.072 165.694 107.594 165.455C108.123 165.217 108.39 165.056 108.39 165.054Z" fill="black"/>
<path d="M93.2529 131.433C93.2406 131.443 92.8926 131.804 92.3516 132.502C91.7977 133.209 91.0922 134.208 90.3467 135.229C88.8369 137.288 87.4027 139.39 86.0186 141.523C84.3336 144.119 82.728 146.756 81.1338 149.374C80.015 151.21 78.9136 153.043 77.8174 154.879C77.7046 155.068 77.5911 155.257 77.4785 155.445C76.7296 157.108 76.0238 158.774 75.4814 159.922C75.0349 160.868 74.5874 161.477 74.1992 161.996C73.9328 162.353 73.6955 162.669 73.5166 163.027C73.4205 163.22 73.2953 163.486 73.1445 163.808C72.5248 165.122 71.5183 167.362 70.3096 169.237C69.7718 170.069 69.0698 170.991 68.3945 171.871C67.4304 173.128 66.5169 174.308 66.2676 175.016C65.8303 176.259 65.0622 177.538 64.3799 178.674C63.7305 179.756 63.1637 180.704 63.0703 181.358C62.96 182.139 62.6057 182.677 62.0791 183.476C61.714 184.03 61.2657 184.712 60.7646 185.689C60.1878 186.816 59.6626 187.568 59.2178 188.203C58.5922 189.098 58.1193 189.774 57.8916 190.995C57.6373 192.356 57.2664 193.724 56.7393 194.695C56.4989 195.138 56.2849 195.67 56.0615 196.226C55.7653 196.962 55.4553 197.735 55.0547 198.392C54.7243 198.933 54.2995 199.317 53.9238 199.657C53.8067 199.763 53.694 199.865 53.5908 199.966C53.4826 200.231 53.3759 200.496 53.2686 200.764C53.1888 200.963 53.1099 201.162 53.0312 201.361C53.0367 201.451 53.0441 201.547 53.0518 201.646C53.0904 202.145 53.138 202.757 53.0098 203.437C52.8062 204.513 52.3299 205.327 51.8232 206.202C51.4296 206.881 51.0211 207.589 50.7197 208.463C50.5142 209.059 50.3438 209.76 50.1748 210.455C49.922 211.493 49.674 212.513 49.3271 213.157C49.1972 213.398 48.9722 213.565 48.75 213.729C48.7489 213.729 48.7472 213.73 48.7461 213.73C48.7312 213.741 48.7161 213.753 48.7012 213.764C48.1737 215.441 47.65 217.151 47.1426 218.839C47.1231 218.994 47.1036 219.151 47.083 219.306C46.9831 220.059 46.8801 220.801 46.9355 221.323C46.9956 221.89 46.6712 223.147 46.3271 224.463C46.1032 225.32 45.8633 226.226 45.7197 226.97C45.6353 227.406 45.3508 227.751 45.0605 228.106C44.7893 228.438 44.5125 228.78 44.3828 229.21C44.3569 229.296 44.3365 229.386 44.3184 229.479L33.8174 230.722C34.107 229.804 34.4062 228.888 34.7139 227.975C34.7361 227.88 34.7583 227.784 34.7812 227.688C35.2244 225.813 35.7884 223.518 36.3906 222.135C37.1499 220.393 37.7482 219.241 38.2559 218.295C40.4742 212.651 42.891 207.076 45.2832 201.496C45.7718 200.357 46.2606 199.215 46.748 198.069C47.0074 197.46 47.2649 196.854 47.5225 196.245C48.2041 194.634 48.892 193.01 49.5781 191.401C49.8803 190.419 50.1485 189.474 50.4043 188.598C50.7642 187.365 51.0958 186.28 51.4561 185.416C52.323 183.334 53.6818 181.153 54.709 179.546C54.8767 179.283 55.0365 179.035 55.1826 178.806C55.8272 177.443 56.483 176.091 57.1592 174.742C57.2483 174.675 57.3398 174.609 57.4326 174.541C58.5946 173.696 59.3577 172.325 60.6299 170.189C61.1844 169.26 61.8339 168.189 62.6543 166.961C63.1838 166.17 63.6303 165.865 63.9902 165.614C64.0963 165.541 64.196 165.47 64.2881 165.396C64.6031 165.139 64.7001 164.729 64.8203 164.25C64.9753 163.627 65.1772 162.885 65.9121 162.189C68.2401 159.969 68.6303 158.613 68.9756 157.598C69.075 157.3 69.1674 157.031 69.2969 156.778C69.7173 155.958 70.6388 155 71.3975 154.326C71.9983 153.791 72.8305 152.469 73.4395 151.446C73.6689 151.059 74.0532 150.589 74.5098 150.04C74.983 149.472 75.5338 148.816 76.082 148.085C77.4739 146.238 78.2663 145.305 78.9023 144.55C79.0844 144.335 79.2556 144.137 79.4268 143.938C79.9671 143.312 80.6659 142.552 81.3828 141.802C82.2415 140.901 83.1344 140.005 83.8135 139.324C85.6861 137.656 87.5898 136.038 89.5107 134.454C90.4969 133.644 91.4818 132.905 92.1846 132.341C92.8811 131.788 93.2449 131.443 93.2529 131.433Z" fill="black"/>
<path d="M154.462 21.418C154.461 21.4185 154.573 21.6592 154.833 22.0635C155.09 22.4682 155.478 23.0103 155.868 23.5742C156.64 24.6914 157.471 25.8037 158.316 26.874C159.35 28.1878 160.42 29.4678 161.465 30.7373C162.206 31.6408 162.931 32.5156 163.666 33.415C163.741 33.5073 163.817 33.5999 163.893 33.6924C164.612 34.3609 165.343 35.0192 165.833 35.5068C166.237 35.9082 166.449 36.2482 166.631 36.5479C166.756 36.7532 166.865 36.9376 167.014 37.0957C167.093 37.1805 167.206 37.294 167.342 37.4307C167.9 37.9962 168.842 38.9138 169.537 39.9102C169.842 40.3493 170.149 40.8935 170.44 41.4209C170.858 42.1742 171.241 42.8879 171.551 43.1494C172.096 43.6097 172.57 44.2649 172.987 44.8477C173.383 45.3998 173.73 45.8867 174.052 46.0586C174.436 46.2633 174.622 46.5574 174.898 46.9971C175.089 47.3008 175.323 47.6754 175.698 48.1357C176.132 48.6669 176.378 49.097 176.587 49.4639C176.879 49.9785 177.099 50.369 177.675 50.7295C178.314 51.1298 178.923 51.5994 179.278 52.0801C179.44 52.2991 179.656 52.522 179.881 52.7539C180.178 53.0611 180.492 53.3843 180.717 53.7354C180.902 54.0246 180.978 54.3352 181.045 54.6104C181.066 54.6962 181.086 54.7793 181.108 54.8564C181.214 54.9689 181.321 55.0815 181.428 55.1934C181.507 55.2768 181.587 55.3604 181.667 55.4434C181.715 55.4582 181.767 55.4728 181.82 55.4883C182.089 55.5662 182.419 55.6623 182.732 55.8691C183.229 56.198 183.513 56.6291 183.813 57.084C184.046 57.4382 184.289 57.8073 184.648 58.1514C184.895 58.387 185.206 58.6258 185.513 58.8623C185.969 59.2138 186.419 59.5617 186.645 59.8857C186.729 60.0071 186.745 60.1645 186.764 60.3213L186.765 60.3232C186.766 60.3338 186.766 60.3449 186.768 60.3555C187.475 61.0005 188.186 61.6378 188.894 62.2705C188.967 62.3141 189.041 62.3582 189.114 62.4023C189.471 62.6184 189.817 62.8293 190.099 62.9082C190.405 62.994 190.945 63.435 191.51 63.9033C191.883 64.2127 192.265 64.5335 192.6 64.7705C192.795 64.9091 192.884 65.1388 192.977 65.374C193.063 65.5937 193.152 65.8191 193.33 65.9814C193.42 66.0637 193.535 66.1347 193.656 66.2109C193.763 66.2781 193.876 66.35 193.983 66.4355C194.083 66.5152 194.242 66.7579 194.446 67.0674C194.572 67.2585 194.716 67.4747 194.873 67.6943C195.379 68.1706 195.9 68.6709 196.402 69.1602C196.548 69.2193 196.695 69.2501 196.84 69.2432C196.944 69.2381 197.051 69.2127 197.16 69.1885C197.309 69.1555 197.463 69.1226 197.617 69.1357C197.738 69.1462 197.833 69.208 197.858 69.291C197.87 69.3301 197.867 69.3747 197.864 69.4141C197.864 69.419 197.864 69.4239 197.863 69.4287L195.959 76.4609C193.796 74.7864 191.743 72.9816 189.799 71.0654C189.758 71.0332 189.717 70.9999 189.675 70.9668C188.854 70.3182 187.868 69.5269 187.347 68.9023C186.685 68.1089 186.286 67.5444 185.957 67.0654C183.755 64.66 181.628 62.1767 179.465 59.7461C179.021 59.2472 178.577 58.7534 178.13 58.2598C177.892 57.9969 177.652 57.7333 177.412 57.4717C176.776 56.7785 176.138 56.0881 175.498 55.3984C175.075 55.0429 174.659 54.7151 174.276 54.4082C173.738 53.977 173.264 53.5871 172.916 53.2275C172.075 52.3603 171.313 51.2064 170.756 50.3496C170.664 50.2092 170.578 50.0762 170.498 49.9541C169.959 49.3514 169.425 48.746 168.899 48.1367C168.889 48.0755 168.878 48.0126 168.868 47.9492C168.741 47.158 168.22 46.4903 167.431 45.4238C167.084 44.9556 166.685 44.411 166.248 43.751C165.967 43.3251 165.924 43.03 165.885 42.7881C165.873 42.7172 165.863 42.6503 165.848 42.5869C165.794 42.3693 165.598 42.2477 165.371 42.1006C165.076 41.9103 164.729 41.674 164.549 41.1553C163.968 39.5091 163.321 39.067 162.861 38.7168C162.725 38.6147 162.603 38.5202 162.5 38.4092C162.163 38.0466 161.874 37.3819 161.702 36.8584C161.563 36.4407 161.06 35.7854 160.647 35.2832C160.493 35.0958 160.332 34.8098 160.146 34.4736C159.952 34.1245 159.733 33.7242 159.468 33.3105C158.794 32.2542 158.476 31.6806 158.219 31.2207C158.146 31.0902 158.078 30.964 158.01 30.8389C157.795 30.4435 157.545 29.9458 157.306 29.4404C157.021 28.8395 156.741 28.2098 156.528 27.7344C156.066 26.4674 155.621 25.1693 155.219 23.9023C155.008 23.2399 154.836 22.5886 154.698 22.127C154.563 21.6637 154.464 21.4184 154.462 21.418Z" fill="black"/>
</svg>
