<svg width="219" height="236" viewBox="0 0 219 236" fill="none" xmlns="http://www.w3.org/2000/svg">
<path d="M140.011 73.3507C140.441 72.6123 141.458 71.3926 142.037 70.7459C142.048 70.7338 142.058 70.7218 142.069 70.7097C142.206 70.5544 142.333 70.4032 142.483 70.2256C142.853 69.7946 143.297 69.2449 144.399 68.155C144.694 67.808 144.989 67.4655 145.281 67.1322C148.474 63.4825 151.972 60.1295 155.702 57.0563C155.745 57.013 155.79 56.9689 155.835 56.9244C156.707 56.0582 157.769 55.0165 158.557 54.4723C159.554 53.7833 160.254 53.3689 160.843 53.0281C163.917 50.7269 167.067 48.5154 170.176 46.2712C170.814 45.8108 171.446 45.3517 172.08 44.8879C172.418 44.6411 172.755 44.3935 173.091 44.145C173.983 43.4867 174.872 42.8268 175.762 42.1658C176.239 41.7256 176.686 41.2938 177.101 40.896C177.686 40.337 178.211 39.845 178.679 39.4861C179.807 38.6191 181.233 37.8484 182.295 37.2841C182.469 37.1916 182.633 37.1045 182.785 37.0234C183.561 36.4722 184.337 35.9283 185.121 35.3911C185.191 35.3816 185.262 35.3728 185.334 35.364C186.237 35.2553 187.08 34.7282 188.427 33.9297C189.017 33.5799 189.702 33.1796 190.524 32.7425C191.054 32.4613 191.391 32.4264 191.669 32.3934C191.751 32.384 191.827 32.375 191.901 32.3608C192.155 32.3117 192.33 32.1111 192.54 31.8777C192.811 31.5744 193.143 31.218 193.757 31.0481C195.714 30.496 196.335 29.8387 196.818 29.3709C196.96 29.2326 197.089 29.1087 197.233 29.0046C197.71 28.6635 198.509 28.3903 199.131 28.2307C199.625 28.1027 200.464 27.6009 201.107 27.1934C201.348 27.0398 201.701 26.8839 202.116 26.704C202.547 26.5172 203.035 26.3082 203.558 26.0479C204.878 25.3935 205.588 25.0904 206.157 24.8443C206.319 24.7751 206.476 24.7085 206.63 24.6441C207.118 24.4394 207.728 24.2054 208.347 23.9819C209.08 23.7164 209.85 23.4553 210.429 23.2599C211.954 22.8452 213.517 22.4541 215.039 22.1106C215.837 21.9293 216.612 21.7917 217.167 21.6766C217.724 21.564 218.024 21.4766 218.024 21.475C218.023 21.4741 217.727 21.5742 217.216 21.8167C216.704 22.056 216.014 22.4222 215.295 22.792C213.873 23.5231 212.445 24.3219 211.066 25.1418C209.371 26.1462 207.711 27.1972 206.07 28.2286C204.904 28.9588 203.768 29.6799 202.61 30.4104C202.491 30.4855 202.372 30.5607 202.253 30.636C201.352 31.3627 200.469 32.1016 199.823 32.5962C199.286 33.0063 198.865 33.2142 198.491 33.3948C198.236 33.5187 198.009 33.6276 197.801 33.7777C197.69 33.8584 197.54 33.9722 197.36 34.1101C196.613 34.6758 195.393 35.6336 194.141 36.3318C193.585 36.6408 192.918 36.944 192.271 37.2349C191.347 37.6502 190.473 38.0336 190.119 38.352C189.496 38.914 188.672 39.3941 187.938 39.818C187.243 40.2204 186.633 40.5718 186.377 40.9075C186.071 41.3088 185.708 41.4973 185.163 41.7771C184.786 41.9712 184.326 42.2075 183.739 42.5924C183.063 43.0368 182.536 43.2852 182.088 43.4962C181.458 43.7927 180.983 44.0147 180.467 44.6169C179.894 45.2858 179.251 45.9213 178.648 46.2867C178.373 46.4532 178.083 46.6769 177.781 46.91C177.381 47.2186 176.961 47.5434 176.529 47.7734C176.172 47.963 175.814 48.0358 175.497 48.1002C175.398 48.1203 175.303 48.1398 175.214 48.1616C175.068 48.2718 174.923 48.3823 174.778 48.4931C174.67 48.5759 174.562 48.6589 174.454 48.7422C174.427 48.7932 174.401 48.8479 174.373 48.9048C174.232 49.1902 174.059 49.5406 173.767 49.8698C173.304 50.3913 172.771 50.6837 172.21 50.9921C171.773 51.2323 171.319 51.4828 170.867 51.8587C170.56 52.115 170.232 52.4429 169.91 52.7659C169.431 53.2461 168.959 53.7181 168.557 53.9519C168.407 54.0396 168.23 54.0546 168.055 54.0695C168.054 54.0694 168.053 54.0694 168.052 54.0693C168.04 54.0703 168.028 54.0715 168.017 54.0725C167.165 54.8147 166.321 55.5613 165.484 56.3056C165.422 56.383 165.359 56.461 165.295 56.5386C164.985 56.9173 164.685 57.2832 164.541 57.5847C164.384 57.9116 163.789 58.482 163.165 59.0767C162.75 59.4706 162.322 59.8756 161.994 60.23C161.803 60.4372 161.533 60.5273 161.257 60.6212C161 60.7086 160.736 60.7996 160.523 60.9874C160.417 61.0807 160.314 61.2035 160.206 61.3327C160.111 61.4467 160.01 61.5669 159.894 61.6806C159.787 61.7863 159.489 61.9513 159.11 62.1639C158.875 62.2953 158.61 62.4449 158.338 62.6091C157.715 63.1437 157.067 63.6934 156.43 64.2251C156.336 64.3816 156.273 64.5389 156.251 64.6955C156.235 64.8079 156.24 64.9243 156.244 65.0431C156.249 65.2046 156.254 65.3708 156.208 65.5377C156.172 65.6682 156.085 65.7706 155.99 65.7956C155.945 65.8072 155.899 65.8022 155.857 65.7979C155.809 65.7927 155.765 65.7891 155.736 65.8112C155.715 65.8271 155.707 65.8604 155.697 65.9008C155.682 65.9654 155.661 66.0488 155.574 66.1125C155.253 66.3494 154.872 66.5976 154.5 66.8398C154.087 67.1091 153.685 67.3714 153.385 67.6013C153.048 67.8597 152.489 68.1621 151.942 68.4621C151.56 68.6718 151.18 68.8827 150.87 69.0795C150.569 69.2703 150.285 69.5212 150.01 69.7602C149.681 70.0475 149.363 70.3187 149.035 70.4826C148.969 70.5157 148.851 70.5164 148.703 70.5188C148.599 70.5204 148.479 70.5232 148.354 70.5379C147.992 70.8014 147.621 71.0696 147.248 71.3376C147.24 71.3534 147.233 71.3696 147.225 71.3859C147.225 71.3862 147.225 71.3865 147.225 71.3868C147.056 71.757 146.805 72.2382 146.119 72.5352C145.946 72.6114 145.807 72.6267 145.683 72.6415C145.561 72.6561 145.454 72.669 145.336 72.7417C145.204 72.8232 145.082 72.9563 144.948 73.0991C144.761 73.3001 144.548 73.5189 144.264 73.6589C144.244 73.6685 144.224 73.6787 144.202 73.6895C143.997 73.7921 143.695 73.9437 143.366 74.0609C142.571 74.6137 141.754 75.1906 140.975 75.7411C139.636 76.6958 138.332 77.6459 137.042 78.6309C136.437 79.0868 135.785 79.5703 135.36 79.9079C134.925 80.2507 134.71 80.4605 134.71 80.4616C134.711 80.4621 134.918 80.2439 135.259 79.8058C135.595 79.377 136.082 78.7233 136.545 78.1189C137.334 77.1042 138.131 76.0722 138.925 75.0429C138.965 74.9868 139.006 74.9305 139.046 74.8744C139.355 74.4526 139.598 74.0528 139.842 73.6379C139.898 73.5428 139.954 73.4469 140.011 73.3507Z" fill="black"/>
<path d="M55.3037 138.783C55.3011 138.783 54.9446 139.031 54.373 139.545C53.797 140.056 53.0544 140.792 52.2783 141.524C50.7418 142.975 49.1499 144.538 47.667 146.07C45.9013 147.902 44.0175 149.9 42.2988 151.741C41.0268 153.086 39.7937 154.406 38.5928 155.697C38.4641 155.835 38.3352 155.972 38.207 156.109C37.2984 157.386 36.4504 158.656 35.8291 159.501C35.3275 160.188 34.8162 160.627 34.4014 160.973C34.113 161.214 33.8575 161.427 33.6514 161.691C33.5407 161.834 33.3939 162.033 33.2197 162.272C32.5173 163.234 31.3151 164.942 30.0137 166.243C29.4353 166.819 28.7017 167.426 27.9775 168.03C26.9517 168.884 26.0021 169.669 25.7119 170.215C25.1934 171.185 24.3557 172.124 23.6357 172.938C22.9514 173.71 22.3483 174.407 22.2119 174.956C22.0518 175.609 21.6846 175.994 21.1416 176.565C20.7643 176.964 20.3119 177.439 19.7764 178.194C19.1657 179.057 18.6384 179.595 18.1904 180.055C17.5661 180.694 17.079 181.207 16.8232 182.219C16.5369 183.349 16.1756 184.426 15.6475 185.192C15.4096 185.537 15.196 185.961 14.9785 186.402C14.6901 186.987 14.3952 187.598 14.0137 188.1C13.6951 188.521 13.2867 188.797 12.9258 189.044C12.8132 189.121 12.7045 189.196 12.6055 189.271C12.5037 189.485 12.4037 189.7 12.3047 189.914C12.2308 190.074 12.1571 190.234 12.085 190.395C12.0921 190.472 12.1016 190.555 12.1113 190.64C12.1599 191.067 12.223 191.587 12.1152 192.156C11.9469 193.053 11.5117 193.703 11.0576 194.395C10.7059 194.929 10.3364 195.505 10.0869 196.227C9.93834 196.656 9.82408 197.157 9.71582 197.66L0.634766 198.734C1.82548 195.705 3.14228 192.724 4.53125 189.789C4.99443 188.81 5.46344 187.839 5.93652 186.878C6.18936 186.364 6.44457 185.848 6.70312 185.332C7.39184 183.957 8.07629 182.635 8.80469 181.278C9.13836 180.431 9.42131 179.654 9.70898 178.91C10.108 177.874 10.5009 176.935 10.8945 176.231C11.8327 174.547 13.3297 172.804 14.4199 171.61C14.6003 171.411 14.7715 171.223 14.9297 171.049C15.6569 169.969 16.4173 168.886 17.1748 167.854C17.2653 167.814 17.358 167.775 17.4521 167.736C18.6223 167.259 19.514 166.169 20.9111 164.617C21.5278 163.932 22.2577 163.141 23.1797 162.243C23.7564 161.686 24.2051 161.532 24.5674 161.405C24.674 161.368 24.7742 161.333 24.8682 161.291C25.1902 161.147 25.3275 160.811 25.498 160.417C25.718 159.905 25.9997 159.295 26.7754 158.864C29.1759 157.546 29.7164 156.445 30.1729 155.63C30.305 155.391 30.4272 155.174 30.582 154.982C31.0627 154.381 32.0226 153.795 32.8047 153.407C33.4202 153.102 34.3696 152.144 35.0586 151.404C35.3125 151.129 35.7193 150.823 36.2031 150.465C36.704 150.095 37.2887 149.668 37.8848 149.166C39.4142 147.886 40.2207 147.297 40.8906 146.8C41.0808 146.66 41.2595 146.531 41.4385 146.401C42.0046 145.992 42.731 145.505 43.4824 145.02C44.3978 144.425 45.2621 143.903 45.957 143.473C47.8232 142.494 49.7656 141.504 51.6172 140.595C52.5837 140.119 53.5474 139.695 54.2412 139.354C54.9365 139.016 55.3043 138.785 55.3037 138.783Z" fill="black"/>
<path d="M101.904 165.054C101.894 165.059 101.638 165.24 101.245 165.644C100.846 166.048 100.32 166.673 99.8135 167.282C98.7664 168.525 97.834 169.836 96.9521 171.208C95.9107 172.845 94.9641 174.549 94.0205 176.252C93.3847 177.411 92.7225 178.631 92.1055 179.793C92.0408 179.914 91.975 180.036 91.9102 180.157C91.5477 181.276 91.2298 182.391 90.9609 183.146C90.7386 183.771 90.4501 184.151 90.1963 184.476C90.025 184.695 89.8712 184.888 89.7773 185.121C89.7271 185.246 89.6633 185.422 89.5879 185.633C89.2746 186.497 88.7787 187.979 88.0244 189.156C87.6877 189.68 87.2098 190.257 86.7549 190.79C86.1018 191.559 85.4693 192.286 85.3633 192.762C85.1812 193.591 84.7013 194.396 84.2656 195.118C83.851 195.807 83.487 196.407 83.5127 196.854C83.5438 197.39 83.3076 197.724 82.9512 198.224C82.7049 198.569 82.3974 199.004 82.0938 199.625C81.742 200.346 81.3745 200.808 81.0605 201.202C80.6193 201.757 80.2813 202.18 80.2637 203C80.2437 203.912 80.1131 204.818 79.7666 205.435C79.6084 205.716 79.4872 206.059 79.3623 206.418C79.197 206.892 79.0238 207.393 78.7441 207.803C78.5136 208.14 78.1677 208.361 77.8623 208.558C77.7673 208.619 77.6765 208.678 77.5938 208.737C77.531 208.908 77.4686 209.08 77.4072 209.251C77.3614 209.379 77.3164 209.508 77.2715 209.637C77.2901 209.699 77.3118 209.765 77.334 209.833C77.4455 210.178 77.5821 210.601 77.5605 211.052C77.5262 211.765 77.189 212.278 76.834 212.822C76.5577 213.246 76.271 213.688 76.1084 214.253C75.9976 214.638 75.934 215.099 75.8711 215.555C75.7775 216.232 75.6839 216.902 75.4414 217.306C75.3505 217.457 75.158 217.548 74.9678 217.64C74.9667 217.64 74.9649 217.641 74.9639 217.642C74.9512 217.648 74.9384 217.654 74.9258 217.66C74.6529 218.75 74.3893 219.848 74.1309 220.943C74.1333 221.046 74.1345 221.15 74.1357 221.252C74.1419 221.753 74.1474 222.237 74.2725 222.59C74.4081 222.972 74.2642 223.791 74.1094 224.644C74.0078 225.203 73.9003 225.779 73.8623 226.262C73.8391 226.546 73.6092 226.756 73.376 226.972C73.1581 227.173 72.9374 227.382 72.8691 227.659C72.835 227.798 72.8347 227.958 72.834 228.129C72.8334 228.279 72.832 228.438 72.8076 228.598C72.7847 228.746 72.5956 229.036 72.3574 229.408C72.2098 229.639 72.0422 229.908 71.8818 230.19C71.6667 230.996 71.4461 231.795 71.2168 232.586C71.2595 232.774 71.3373 232.955 71.4648 233.112C71.5562 233.225 71.6759 233.333 71.7969 233.442C71.9614 233.591 72.1303 233.745 72.2393 233.923C72.3245 234.062 72.3225 234.2 72.2334 234.27C72.1919 234.302 72.1319 234.319 72.0781 234.335C72.0166 234.353 71.9613 234.369 71.9482 234.403C71.9391 234.428 71.9631 234.463 71.9912 234.505C72.0362 234.572 72.0939 234.658 72.0547 234.757C72.0162 234.854 71.9734 234.953 71.9277 235.055L66.1602 218.137C67.3689 215.07 68.6686 212.036 69.9111 208.987C70.2127 208.248 70.5121 207.508 70.8057 206.766C70.9619 206.371 71.1167 205.973 71.2705 205.576C71.6784 204.524 72.0805 203.474 72.4834 202.418C72.6188 201.762 72.7253 201.128 72.8291 200.543C72.9748 199.721 73.1157 198.993 73.3184 198.421C73.8048 197.044 74.7209 195.658 75.418 194.623C75.5312 194.455 75.6383 194.297 75.7363 194.15C76.1114 193.255 76.4951 192.366 76.8975 191.472C76.9686 191.434 77.0417 191.397 77.1162 191.359C78.0529 190.884 78.5192 190.006 79.3291 188.603C79.68 187.995 80.0898 187.303 80.626 186.513C80.9755 185.998 81.3301 185.831 81.6152 185.693C81.6991 185.653 81.7778 185.614 81.8486 185.571C82.0911 185.424 82.1068 185.139 82.1318 184.804C82.1644 184.366 82.2111 183.859 82.7617 183.434C84.4913 182.093 84.5802 181.171 84.7246 180.443C84.7628 180.233 84.8003 180.044 84.873 179.872C85.1097 179.315 85.767 178.73 86.3232 178.343C86.769 178.026 87.2882 177.144 87.6523 176.465C87.7902 176.206 88.0479 175.915 88.3604 175.567C88.6879 175.203 89.0673 174.787 89.4297 174.317C90.3423 173.143 90.9058 172.539 91.3428 172.068C91.4687 171.934 91.5876 171.81 91.7061 171.688C92.0788 171.302 92.5685 170.844 93.0889 170.386C93.7092 169.839 94.3427 169.329 94.8379 168.932C96.2342 167.998 97.6494 167.159 99.0879 166.402C99.8172 166.023 100.586 165.694 101.108 165.455C101.637 165.217 101.905 165.056 101.904 165.054Z" fill="black"/>
<path d="M86.7666 131.433C86.7542 131.443 86.4062 131.804 85.8652 132.502C85.3114 133.209 84.6058 134.208 83.8604 135.229C82.3506 137.288 80.9164 139.39 79.5322 141.523C77.8472 144.119 76.2416 146.756 74.6475 149.374C73.5286 151.21 72.4273 153.043 71.3311 154.879C71.2183 155.068 71.1048 155.257 70.9922 155.445C70.2433 157.108 69.5374 158.774 68.9951 159.922C68.5485 160.868 68.1011 161.477 67.7129 161.996C67.4464 162.353 67.2092 162.669 67.0303 163.027C66.9342 163.22 66.8089 163.486 66.6582 163.808C66.0385 165.122 65.032 167.362 63.8232 169.237C63.2854 170.069 62.5834 170.991 61.9082 171.871C60.9441 173.128 60.0305 174.308 59.7812 175.016C59.344 176.259 58.5759 177.538 57.8936 178.674C57.2442 179.756 56.6774 180.704 56.584 181.358C56.4737 182.139 56.1194 182.677 55.5928 183.476C55.2277 184.03 54.7794 184.712 54.2783 185.689C53.7015 186.816 53.1763 187.568 52.7314 188.203C52.1058 189.098 51.633 189.774 51.4053 190.995C51.1813 192.193 50.8654 193.397 50.4336 194.331L42.21 193.817L42.0586 193.835C42.4032 193.023 42.747 192.21 43.0918 191.401C43.394 190.419 43.6622 189.474 43.918 188.598C44.2779 187.365 44.6095 186.28 44.9697 185.416C45.8367 183.334 47.1954 181.153 48.2227 179.546C48.3904 179.283 48.5501 179.035 48.6963 178.806C49.3408 177.443 49.9967 176.091 50.6729 174.742C50.7619 174.675 50.8534 174.609 50.9463 174.541C52.1083 173.696 52.8714 172.325 54.1436 170.189C54.698 169.26 55.3475 168.189 56.168 166.961C56.6974 166.17 57.144 165.865 57.5039 165.614C57.6099 165.541 57.7097 165.47 57.8018 165.396C58.1168 165.139 58.2137 164.729 58.334 164.25C58.489 163.627 58.6909 162.885 59.4258 162.189C61.7538 159.969 62.144 158.613 62.4893 157.598C62.5886 157.3 62.6811 157.031 62.8105 156.778C63.231 155.958 64.1525 155 64.9111 154.326C65.5119 153.791 66.3441 152.469 66.9531 151.446C67.1826 151.059 67.5669 150.589 68.0234 150.04C68.4967 149.472 69.0475 148.816 69.5957 148.085C70.9875 146.238 71.78 145.305 72.416 144.55C72.598 144.335 72.7693 144.137 72.9404 143.938C73.4808 143.312 74.1796 142.552 74.8965 141.802C75.7552 140.901 76.6481 140.005 77.3271 139.324C79.1998 137.656 81.1035 136.038 83.0244 134.454C84.0106 133.644 84.9955 132.905 85.6982 132.341C86.3948 131.788 86.7585 131.443 86.7666 131.433Z" fill="black"/>
<path d="M147.977 21.418C147.976 21.4185 148.088 21.6592 148.348 22.0635C148.604 22.4682 148.993 23.0103 149.383 23.5742C150.155 24.6914 150.986 25.8037 151.831 26.874C152.865 28.1878 153.935 29.4678 154.979 30.7373C155.72 31.6408 156.446 32.5156 157.181 33.415C157.256 33.5073 157.332 33.5999 157.407 33.6924C158.126 34.3609 158.858 35.0192 159.348 35.5068C159.751 35.9082 159.963 36.2482 160.146 36.5479C160.271 36.7532 160.38 36.9376 160.528 37.0957C160.608 37.1805 160.721 37.294 160.856 37.4307C161.414 37.9962 162.357 38.9138 163.052 39.9102C163.357 40.3493 163.663 40.8935 163.955 41.4209C163.999 41.5007 164.044 41.5798 164.087 41.6582L162.383 47.9502V47.9492C162.255 47.158 161.735 46.4903 160.945 45.4238C160.598 44.9556 160.2 44.411 159.763 43.751C159.481 43.3251 159.438 43.03 159.399 42.7881C159.388 42.7172 159.378 42.6503 159.362 42.5869C159.308 42.3693 159.113 42.2477 158.886 42.1006C158.591 41.9103 158.243 41.674 158.063 41.1553C157.483 39.5091 156.835 39.067 156.376 38.7168C156.24 38.6147 156.118 38.5202 156.015 38.4092C155.678 38.0466 155.389 37.3819 155.217 36.8584C155.078 36.4407 154.574 35.7854 154.162 35.2832C154.007 35.0958 153.846 34.8098 153.66 34.4736C153.467 34.1245 153.248 33.7242 152.982 33.3105C152.309 32.2542 151.991 31.6806 151.733 31.2207C151.661 31.0902 151.593 30.964 151.524 30.8389C151.309 30.4435 151.06 29.9458 150.82 29.4404C150.536 28.8395 150.256 28.2098 150.043 27.7344C149.58 26.4674 149.135 25.1693 148.733 23.9023C148.522 23.2399 148.351 22.5886 148.213 22.127C148.077 21.6637 147.978 21.4184 147.977 21.418Z" fill="black"/>
</svg>
