<svg width="244" height="277" viewBox="0 0 244 277" fill="none" xmlns="http://www.w3.org/2000/svg">
<path d="M19.4994 243.012C19.2298 241.898 19.1299 239.786 19.1195 238.628C19.119 238.607 19.1186 238.585 19.1182 238.564C19.1138 238.289 19.1016 238.027 19.0876 237.721C19.0585 236.99 18.9975 236.003 19.1185 233.958C19.0927 233.356 19.0724 232.753 19.059 232.152C18.9014 225.655 19.4516 219.097 20.873 212.649C20.8822 212.566 20.8915 212.481 20.901 212.396C21.0833 210.739 21.3612 208.688 21.7996 207.455C22.3555 205.884 22.8297 204.863 23.2393 204.018C24.8842 199.002 26.9466 194.12 29.2007 189.357C29.664 188.377 30.1332 187.407 30.6065 186.445C30.8593 185.931 31.1151 185.416 31.3737 184.9C32.0624 183.525 32.7461 182.203 33.4745 180.847C33.8083 179.998 34.0911 179.221 34.3789 178.477C34.7779 177.441 35.171 176.502 35.5647 175.799C36.5029 174.114 37.9992 172.371 39.0895 171.177C39.27 170.978 39.4416 170.79 39.5999 170.616C40.3271 169.536 41.0867 168.454 41.8442 167.421C41.9348 167.382 42.0273 167.343 42.1217 167.304C43.292 166.826 44.1838 165.737 45.581 164.185C46.1978 163.5 46.9275 162.708 47.8497 161.81C48.4265 161.253 48.8751 161.1 49.2374 160.973C49.3441 160.935 49.4441 160.9 49.5381 160.858C49.8603 160.715 49.9973 160.379 50.1679 159.984C50.3878 159.472 50.6691 158.863 51.4451 158.432C53.8461 157.113 54.3859 156.012 54.8424 155.197C54.9747 154.957 55.0975 154.742 55.2525 154.55C55.7332 153.949 56.6925 153.362 57.4747 152.974C58.0903 152.669 59.04 151.711 59.7291 150.971C59.983 150.696 60.3889 150.391 60.8727 150.033C61.3738 149.663 61.9581 149.234 62.5544 148.733C64.0838 147.453 64.8902 146.865 65.5601 146.368C65.7506 146.228 65.9294 146.098 66.1086 145.968C66.6747 145.559 67.4007 145.072 68.1522 144.587C69.0678 143.992 69.9319 143.47 70.6269 143.039C72.4932 142.06 74.4358 141.071 76.2874 140.162C77.254 139.686 78.2168 139.263 78.9106 138.921C79.607 138.583 79.9748 138.353 79.9735 138.351C79.9727 138.349 79.6157 138.597 79.0425 139.112C78.4665 139.624 77.7245 140.359 76.9483 141.091C75.4116 142.542 73.82 144.105 72.337 145.637C70.5712 147.469 68.6883 149.467 66.9695 151.309C65.6973 152.654 64.4645 153.973 63.2635 155.265C63.1346 155.402 63.0054 155.54 62.877 155.677C61.9683 156.954 61.1201 158.223 60.4987 159.068C59.997 159.756 59.4862 160.194 59.0713 160.54C58.7827 160.782 58.5272 160.994 58.3209 161.259C58.2101 161.401 58.064 161.6 57.8898 161.839C57.1873 162.801 55.9855 164.509 54.6838 165.811C54.1053 166.386 53.372 166.993 52.6477 167.598C51.6217 168.452 50.6719 169.236 50.3818 169.782C49.8632 170.752 49.0253 171.692 48.3053 172.505C47.6209 173.278 47.0173 173.974 46.881 174.523C46.721 175.177 46.3543 175.561 45.8113 176.133C45.434 176.531 44.9818 177.006 44.4461 177.762C43.8353 178.624 43.3084 179.163 42.8604 179.623C42.236 180.262 41.7492 180.774 41.4935 181.786C41.2071 182.916 40.8457 183.993 40.3176 184.759C40.0796 185.104 39.866 185.528 39.6484 185.969C39.3599 186.554 39.0652 187.165 38.6835 187.667C38.3648 188.089 37.9565 188.365 37.5954 188.612C37.4827 188.689 37.3751 188.763 37.276 188.838C37.1741 189.052 37.0736 189.267 36.9745 189.481C36.9005 189.642 36.8274 189.802 36.7551 189.963C36.7623 190.04 36.7719 190.122 36.7816 190.207C36.8302 190.634 36.8935 191.154 36.7857 191.723C36.6174 192.62 36.1814 193.27 35.7272 193.962C35.3754 194.497 35.0069 195.072 34.7574 195.794C34.5872 196.286 34.4594 196.87 34.3375 197.446C34.1583 198.297 33.9826 199.157 33.6908 199.684C33.5811 199.882 33.3738 200.014 33.1684 200.144C33.1672 200.145 33.1661 200.145 33.1649 200.146C33.151 200.155 33.1373 200.164 33.1234 200.173C32.7347 201.57 32.3721 202.997 32.04 204.411C32.0362 204.541 32.0316 204.673 32.0269 204.802C32.0048 205.433 31.9821 206.058 32.0938 206.493C32.214 206.966 32.0349 208.013 31.8558 209.117C31.737 209.844 31.6176 210.594 31.5731 211.217C31.5469 211.582 31.3129 211.878 31.0752 212.185C30.8534 212.47 30.6275 212.77 30.5587 213.135C30.5243 213.318 30.5246 213.524 30.5249 213.744C30.5251 213.937 30.5254 214.141 30.502 214.349C30.4803 214.543 30.2916 214.944 30.0558 215.462C29.9101 215.782 29.7462 216.148 29.5902 216.536C29.3911 217.605 29.1928 218.671 28.9904 219.74C29.0401 219.98 29.1278 220.195 29.2631 220.376C29.3602 220.506 29.4852 220.623 29.6122 220.744C29.785 220.907 29.962 221.076 30.0802 221.287C30.1726 221.451 30.1769 221.628 30.0904 221.732C30.0501 221.781 29.9909 221.814 29.9374 221.844C29.8761 221.878 29.8217 221.908 29.8102 221.954C29.802 221.988 29.8274 222.028 29.8579 222.077C29.9066 222.156 29.9687 222.257 29.934 222.392C29.8053 222.891 29.6188 223.455 29.4379 224.01C29.2366 224.627 29.043 225.232 28.9347 225.721C28.8129 226.268 28.4828 227.029 28.1638 227.797C27.9408 228.333 27.7227 228.871 27.5711 229.338C27.4227 229.796 27.3591 230.284 27.2938 230.758C27.2163 231.327 27.1353 231.874 26.9293 232.322C26.8876 232.413 26.7514 232.516 26.5835 232.646C26.4645 232.738 26.3294 232.844 26.2001 232.968C26.0596 233.554 25.9145 234.143 25.7664 234.731C25.7746 234.753 25.7828 234.776 25.7913 234.799C25.7915 234.799 25.7917 234.8 25.792 234.8C25.9879 235.318 26.2066 236.02 25.7261 236.923C25.6055 237.153 25.461 237.291 25.3329 237.415C25.2069 237.537 25.0962 237.647 25.0374 237.818C24.9706 238.012 24.9701 238.25 24.9659 238.509C24.9608 238.872 24.9453 239.277 24.7628 239.666C24.7504 239.693 24.7369 239.722 24.7232 239.751C24.5933 240.034 24.4021 240.452 24.1426 240.862C23.7999 242.122 23.4555 243.382 23.1149 244.645C22.5467 246.749 21.9905 248.855 21.4578 250.96C21.1967 251.984 20.9111 252.962 20.7353 253.685C20.5551 254.409 20.5009 254.82 20.5029 254.821C20.5047 254.821 20.5399 254.406 20.5123 253.659C20.4891 252.913 20.4051 251.895 20.3463 250.838C20.2538 249.116 20.1305 247.391 19.9924 245.666C19.9814 245.575 19.9705 245.484 19.9599 245.393C19.8814 244.718 19.7507 244.085 19.6027 243.45C19.5689 243.305 19.5342 243.159 19.4994 243.012Z" fill="black"/>
<path d="M85.3971 248.637C85.1725 247.766 85.1807 246.104 85.2272 245.236C85.2279 245.219 85.2285 245.203 85.2292 245.187C85.2389 244.976 85.2404 244.775 85.2429 244.538C85.2533 243.972 85.2477 243.201 85.4784 241.666C85.4862 241.203 85.5002 240.738 85.5218 240.271C85.7284 235.289 86.5991 230.428 88.0136 225.716C88.0227 225.655 88.0321 225.592 88.0415 225.528C88.2229 224.304 88.4748 222.765 88.8701 221.888C89.3745 220.765 89.8016 220.022 90.1646 219.421C91.5515 215.766 93.1074 212.172 94.5813 208.555C94.8829 207.815 95.1813 207.075 95.4749 206.333C95.6311 205.938 95.7865 205.541 95.9404 205.144C96.3484 204.091 96.7504 203.041 97.1534 201.985C97.2888 201.329 97.3953 200.697 97.4991 200.111C97.6449 199.289 97.7853 198.561 97.988 197.989C98.4744 196.612 99.3905 195.225 100.088 194.191C100.201 194.022 100.309 193.864 100.407 193.717C100.782 192.822 101.164 191.933 101.567 191.039C101.638 191.002 101.712 190.964 101.787 190.926C102.723 190.451 103.189 189.573 103.999 188.17C104.35 187.563 104.76 186.87 105.296 186.08C105.646 185.565 106 185.398 106.285 185.261C106.369 185.22 106.448 185.182 106.518 185.14C106.762 184.993 106.777 184.707 106.802 184.371C106.835 183.933 106.88 183.426 107.431 183.001C109.161 181.66 109.25 180.738 109.394 180.011C109.433 179.801 109.47 179.611 109.543 179.44C109.779 178.883 110.437 178.298 110.993 177.911C111.439 177.594 111.958 176.712 112.322 176.033C112.46 175.774 112.717 175.483 113.03 175.136C113.358 174.771 113.737 174.355 114.1 173.885C115.013 172.71 115.576 172.107 116.013 171.636C116.139 171.502 116.257 171.378 116.376 171.256C116.749 170.87 117.238 170.411 117.759 169.953C118.379 169.406 119.012 168.896 119.507 168.499C120.904 167.565 122.319 166.726 123.758 165.97C124.487 165.591 125.256 165.261 125.778 165.023C126.307 164.784 126.575 164.624 126.574 164.621C126.573 164.62 126.314 164.799 125.914 165.21C125.515 165.614 124.99 166.24 124.483 166.849C123.436 168.092 122.504 169.403 121.622 170.775C120.581 172.412 119.634 174.116 118.69 175.819C118.054 176.978 117.392 178.198 116.775 179.36C116.71 179.482 116.645 179.603 116.58 179.725C116.218 180.844 115.9 181.958 115.631 182.713C115.408 183.338 115.119 183.718 114.865 184.043C114.694 184.262 114.541 184.455 114.447 184.688C114.397 184.814 114.334 184.988 114.258 185.2C113.945 186.064 113.449 187.546 112.694 188.723C112.357 189.247 111.879 189.825 111.424 190.358C110.771 191.127 110.139 191.854 110.033 192.329C109.851 193.159 109.371 193.963 108.935 194.685C108.52 195.375 108.157 195.975 108.183 196.422C108.214 196.958 107.978 197.292 107.621 197.792C107.375 198.137 107.067 198.571 106.763 199.192C106.411 199.913 106.044 200.376 105.73 200.77C105.289 201.325 104.952 201.747 104.934 202.567C104.914 203.48 104.782 204.385 104.436 205.002C104.277 205.284 104.157 205.627 104.032 205.985C103.867 206.46 103.694 206.96 103.414 207.37C103.183 207.708 102.838 207.929 102.533 208.125C102.438 208.187 102.346 208.246 102.264 208.305C102.201 208.476 102.139 208.647 102.077 208.819C102.031 208.947 101.986 209.075 101.941 209.204C101.96 209.266 101.981 209.332 102.004 209.4C102.115 209.745 102.252 210.167 102.23 210.618C102.196 211.332 101.86 211.845 101.505 212.39C101.228 212.813 100.941 213.255 100.778 213.821C100.668 214.206 100.604 214.667 100.541 215.122C100.448 215.8 100.353 216.468 100.111 216.872C100.02 217.024 99.8278 217.116 99.6374 217.207C99.6363 217.208 99.6352 217.208 99.6342 217.208C99.6212 217.215 99.6085 217.221 99.5956 217.227C99.3227 218.317 99.0594 219.415 98.8009 220.511C98.8034 220.614 98.805 220.717 98.8063 220.82C98.8125 221.32 98.8168 221.804 98.9419 222.157C99.0777 222.539 98.9339 223.358 98.779 224.211C98.6774 224.77 98.5705 225.346 98.5325 225.829C98.5095 226.113 98.28 226.323 98.0467 226.539C97.8286 226.741 97.6071 226.949 97.5388 227.226C97.5046 227.365 97.5043 227.526 97.5037 227.696C97.5031 227.847 97.5022 228.006 97.4777 228.165C97.4549 228.313 97.2662 228.603 97.0279 228.975C96.8803 229.207 96.7125 229.475 96.5521 229.757C96.3368 230.563 96.1154 231.362 95.886 232.154C95.9287 232.341 96.0074 232.522 96.1349 232.679C96.2263 232.793 96.3457 232.9 96.4668 233.009C96.6315 233.159 96.8003 233.312 96.9093 233.491C96.9946 233.63 96.9924 233.767 96.9034 233.837C96.8619 233.869 96.8023 233.886 96.7484 233.902C96.6867 233.92 96.632 233.937 96.619 233.971C96.6097 233.995 96.6332 234.03 96.6614 234.072C96.7065 234.139 96.7639 234.225 96.7247 234.324C96.5788 234.691 96.3729 235.097 96.1723 235.494C95.9503 235.929 95.7286 236.38 95.5995 236.737C95.4538 237.141 95.0921 237.675 94.7406 238.21C94.4953 238.581 94.2529 238.959 94.078 239.298C93.9072 239.627 93.8186 239.99 93.7294 240.339C93.6231 240.758 93.5147 241.157 93.2883 241.464C93.2424 241.526 93.1026 241.584 92.9301 241.657C92.8082 241.708 92.6683 241.773 92.5337 241.85C92.362 242.281 92.1866 242.707 92.0089 243.13C92.0158 243.148 92.0227 243.167 92.0299 243.185C92.0301 243.185 92.0303 243.186 92.0305 243.186C92.1966 243.603 92.3769 244.153 91.8564 244.763C91.7246 244.923 91.5743 245.009 91.4409 245.088C91.3098 245.165 91.1945 245.234 91.1273 245.356C91.0512 245.495 91.0386 245.674 91.0214 245.869C90.9982 246.142 90.9633 246.443 90.7645 246.71C90.7509 246.728 90.7363 246.748 90.7213 246.768C90.5794 246.964 90.3724 247.244 90.0961 247.524C89.6955 248.45 89.3033 249.351 88.9231 250.252C88.2804 251.803 87.6781 253.328 87.1349 254.875C86.8718 255.605 86.584 256.376 86.4189 256.902C86.248 257.437 86.2047 257.735 86.2064 257.736C86.2085 257.735 86.2327 257.435 86.1966 256.871C86.1634 256.317 86.0836 255.489 86.0299 254.703C85.9484 253.401 85.8693 252.046 85.7865 250.724C85.7786 250.653 85.7709 250.582 85.7635 250.511C85.7089 249.983 85.6061 249.469 85.4823 248.981C85.4543 248.867 85.4256 248.753 85.3971 248.637Z" fill="black"/>
<path d="M45.2357 262.273C45.2281 260.949 45.6309 258.466 45.8846 257.14C45.8891 257.116 45.8936 257.091 45.8981 257.067C45.9575 256.748 46.0059 256.444 46.0631 256.087C46.2042 255.234 46.3731 254.085 46.9545 251.75C47.0649 251.052 47.1826 250.346 47.3032 249.651C48.5932 242.15 50.4642 234.766 52.8981 227.542C52.9204 227.448 52.943 227.352 52.966 227.255C53.4091 225.381 53.9723 223.085 54.5746 221.702C55.334 219.96 55.9327 218.808 56.4404 217.862C58.6587 212.218 61.0761 206.644 63.4683 201.064C63.9569 199.924 64.4455 198.782 64.933 197.637C65.1924 197.027 65.4496 196.422 65.7072 195.813C66.3888 194.201 67.0761 192.578 67.7623 190.969C68.0645 189.987 68.3327 189.042 68.5885 188.166C68.9486 186.933 69.2801 185.847 69.6404 184.983C70.5074 182.901 71.8669 180.721 72.8941 179.114C73.0619 178.851 73.2209 178.603 73.3671 178.373C74.0117 177.011 74.6673 175.659 75.3434 174.31C75.4326 174.243 75.5239 174.176 75.6169 174.108C76.7791 173.263 77.5416 171.892 78.8139 169.757C79.3684 168.827 80.0185 167.756 80.8392 166.528C81.3688 165.737 81.8147 165.431 82.1747 165.181C82.2807 165.107 82.3799 165.038 82.4721 164.963C82.7875 164.707 82.8843 164.297 83.0046 163.818C83.1596 163.195 83.3614 162.452 84.0966 161.757C86.4248 159.536 86.8147 158.18 87.16 157.165C87.2594 156.867 87.3522 156.598 87.4819 156.345C87.9024 155.525 88.8236 154.567 89.5824 153.893C90.1832 153.358 91.0143 152.036 91.6233 151.014C91.8528 150.627 92.2372 150.157 92.6942 149.608C93.1676 149.039 93.718 148.384 94.2663 147.652C95.6583 145.806 96.4514 144.873 97.0875 144.117C97.2696 143.903 97.4405 143.704 97.6117 143.506C98.1521 142.88 98.8506 142.12 99.5676 141.369C100.426 140.468 101.319 139.573 101.999 138.892C103.871 137.224 105.774 135.606 107.695 134.021C108.682 133.211 109.666 132.473 110.369 131.908C111.075 131.348 111.44 131.002 111.438 131C111.437 130.999 111.086 131.36 110.536 132.07C109.982 132.777 109.277 133.775 108.531 134.796C107.022 136.855 105.587 138.957 104.203 141.091C102.518 143.687 100.913 146.324 99.3182 148.942C98.1994 150.778 97.0983 152.611 96.0021 154.446C95.8892 154.635 95.7762 154.824 95.6635 155.013C94.9145 156.676 94.2081 158.341 93.6658 159.489C93.2191 160.436 92.772 161.044 92.3837 161.564C92.1172 161.921 91.8799 162.237 91.701 162.595C91.6049 162.787 91.4798 163.053 91.3289 163.375C90.7092 164.69 89.7032 166.929 88.4943 168.805C87.9565 169.636 87.2547 170.558 86.5794 171.438C85.615 172.696 84.7009 173.875 84.4517 174.583C84.0145 175.827 83.2468 177.106 82.5644 178.241C81.9149 179.323 81.3481 180.271 81.2548 180.926C81.1446 181.706 80.7906 182.245 80.2637 183.044C79.8986 183.598 79.4501 184.279 78.949 185.257C78.372 186.384 77.8474 187.135 77.4025 187.771C76.7767 188.666 76.3032 189.342 76.0755 190.563C75.8211 191.923 75.4515 193.291 74.9244 194.263C74.684 194.706 74.469 195.237 74.2456 195.792C73.9492 196.529 73.64 197.303 73.2391 197.96C72.9087 198.501 72.4842 198.884 72.1084 199.225C71.9912 199.331 71.8791 199.433 71.7758 199.534C71.6677 199.799 71.5607 200.063 71.4534 200.331C71.3735 200.53 71.2942 200.729 71.2154 200.929C71.2208 201.019 71.2286 201.114 71.2363 201.214C71.275 201.713 71.3228 202.325 71.1945 203.004C70.991 204.081 70.5141 204.895 70.0075 205.77C69.6138 206.449 69.2058 207.156 68.9044 208.03C68.6989 208.626 68.5283 209.327 68.3593 210.022C68.1063 211.06 67.8579 212.081 67.5108 212.725C67.3808 212.966 67.1563 213.132 66.934 213.296C66.9328 213.297 66.9316 213.297 66.9304 213.298C66.9153 213.309 66.9004 213.32 66.8853 213.332C66.3579 215.009 65.8352 216.718 65.3278 218.406C65.3084 218.561 65.2878 218.718 65.2672 218.873C65.1673 219.627 65.0651 220.369 65.1207 220.891C65.1808 221.458 64.8557 222.714 64.5115 224.03C64.2875 224.888 64.0477 225.793 63.9041 226.538C63.8196 226.974 63.5348 227.319 63.2444 227.674C62.9732 228.006 62.6972 228.347 62.5675 228.777C62.5024 228.993 62.4693 229.235 62.4314 229.499C62.3985 229.73 62.3635 229.975 62.3036 230.223C62.2479 230.453 61.9875 230.921 61.6578 231.522C61.4539 231.893 61.2238 232.315 60.9971 232.761C60.6071 234.001 60.2005 235.268 59.7911 236.511C59.7946 236.799 59.8405 237.062 59.9404 237.29C60.0122 237.453 60.1143 237.605 60.2176 237.761C60.3582 237.972 60.502 238.19 60.5783 238.453C60.6378 238.658 60.607 238.867 60.4992 238.982C60.4489 239.035 60.383 239.068 60.3233 239.098C60.255 239.132 60.1943 239.163 60.1734 239.217C60.1583 239.256 60.1755 239.307 60.1958 239.369C60.2284 239.468 60.2695 239.596 60.2071 239.753C59.975 240.336 59.6717 240.985 59.3757 241.619C59.0459 242.325 58.7271 243.008 58.514 243.574C58.2741 244.21 57.7803 245.068 57.2959 245.927C56.9575 246.525 56.6232 247.124 56.3704 247.647C56.1203 248.167 55.9472 248.735 55.776 249.281C55.5713 249.937 55.3679 250.563 55.0626 251.054C55.0009 251.154 54.8426 251.253 54.647 251.378C54.5084 251.467 54.3506 251.569 54.1947 251.693C53.9221 252.356 53.6415 253.028 53.3598 253.69C53.3628 253.717 53.3657 253.745 53.3688 253.773C53.369 253.774 53.3691 253.774 53.3693 253.775C53.4442 254.409 53.4988 255.262 52.8163 256.227C52.6436 256.475 52.4677 256.616 52.3119 256.74C52.1586 256.863 52.0234 256.973 51.925 257.164C51.8134 257.38 51.7574 257.657 51.6927 257.957C51.6028 258.379 51.493 258.846 51.222 259.266C51.2036 259.295 51.1837 259.326 51.1632 259.358C50.9687 259.665 50.6846 260.108 50.3308 260.545C49.6919 261.966 49.0589 263.356 48.4259 264.76C47.3652 267.116 46.3206 269.46 45.3057 271.799C44.811 272.934 44.294 274.043 43.9548 274.845C43.61 275.65 43.4639 276.11 43.4657 276.111C43.4675 276.111 43.5954 275.645 43.7401 274.779C43.8876 273.92 44.0484 272.703 44.2347 271.478C44.5402 269.486 44.8321 267.44 45.0975 265.432C45.1082 265.325 45.1189 265.218 45.1299 265.11C45.2109 264.316 45.2368 263.541 45.2357 262.795C45.2361 262.622 45.2358 262.448 45.2357 262.273Z" fill="black"/>
<path d="M223.302 82.2393C222.618 81.9698 221.477 81.2394 220.874 80.8178C220.862 80.8102 220.851 80.8025 220.84 80.7948C220.695 80.6949 220.554 80.6038 220.388 80.4963C219.986 80.231 219.47 79.9134 218.448 79.0885C218.125 78.8777 217.801 78.662 217.489 78.452C214.07 76.1427 210.906 73.5117 207.984 70.632C207.943 70.5997 207.901 70.5668 207.859 70.5335C207.039 69.8848 206.052 69.0943 205.531 68.4697C204.869 67.6761 204.471 67.1116 204.142 66.6326C201.94 64.227 199.813 61.7444 197.65 59.3137C197.205 58.8145 196.762 58.3203 196.314 57.8264C196.076 57.5635 195.837 57.3012 195.597 57.0396C194.961 56.3462 194.323 55.6559 193.683 54.9661C193.259 54.6105 192.844 54.2821 192.461 53.9751C191.923 53.5438 191.449 53.1546 191.101 52.7949C190.26 51.9276 189.498 50.7744 188.941 49.9176C188.849 49.7769 188.763 49.6441 188.682 49.5218C188.144 48.9189 187.61 48.3135 187.084 47.704C187.073 47.6428 187.063 47.5805 187.053 47.5171C186.925 46.7256 186.405 46.0585 185.615 44.9917C185.268 44.5234 184.87 43.9787 184.433 43.3185C184.151 42.8925 184.109 42.598 184.07 42.3561C184.058 42.2849 184.048 42.2183 184.032 42.1547C183.978 41.9367 183.783 41.8145 183.556 41.6671C183.26 41.4768 182.913 41.2414 182.733 40.7223C182.152 39.0759 181.506 38.6344 181.046 38.2841C180.91 38.1819 180.788 38.0882 180.685 37.9771C180.348 37.6146 180.059 36.9491 179.887 36.4254C179.748 36.0078 179.244 35.3529 178.832 34.8507C178.677 34.6632 178.516 34.3772 178.33 34.0407C178.136 33.6915 177.918 33.2922 177.652 32.8786C176.978 31.8217 176.661 31.2478 176.403 30.7877C176.331 30.6573 176.262 30.5317 176.194 30.4065C175.979 30.0111 175.73 29.5128 175.491 29.0073C175.206 28.4063 174.925 27.7776 174.712 27.3022C174.249 26.0351 173.805 24.7367 173.403 23.4696C173.192 22.8071 173.021 22.1561 172.883 21.6943C172.748 21.2302 172.648 20.9854 172.646 20.9858C172.646 20.9863 172.757 21.2266 173.017 21.6311C173.274 22.0359 173.663 22.5776 174.053 23.1417C174.825 24.259 175.656 25.3711 176.501 26.4416C177.535 27.7554 178.605 29.0346 179.65 30.3041C180.391 31.2077 181.115 32.083 181.85 32.9825C181.926 33.0749 182.001 33.1675 182.077 33.2602C182.796 33.9288 183.528 34.5865 184.018 35.0742C184.421 35.4757 184.633 35.8161 184.815 36.1159C184.94 36.3213 185.05 36.5042 185.199 36.6624C185.279 36.7473 185.391 36.8609 185.527 36.9978C186.085 37.5634 187.026 38.4815 187.721 39.478C188.027 39.9172 188.333 40.4607 188.625 40.9882C189.043 41.7417 189.426 42.4549 189.736 42.7164C190.281 43.1767 190.756 43.8321 191.173 44.415C191.568 44.9675 191.915 45.4541 192.237 45.6258C192.621 45.8306 192.807 46.1246 193.084 46.5646C193.274 46.8684 193.508 47.242 193.883 47.7024C194.317 48.2336 194.563 48.6642 194.771 49.031C195.064 49.5459 195.283 49.936 195.859 50.2966C196.499 50.6969 197.108 51.1659 197.463 51.6467C197.625 51.8658 197.841 52.0891 198.066 52.3212C198.363 52.6284 198.676 52.9513 198.901 53.3023C199.086 53.5919 199.162 53.9028 199.229 54.1782C199.25 54.2641 199.271 54.3464 199.293 54.4237C199.399 54.5362 199.505 54.6485 199.612 54.7605C199.692 54.8441 199.772 54.9274 199.852 55.0106C199.9 55.0254 199.951 55.0401 200.005 55.0557C200.274 55.1336 200.604 55.2293 200.918 55.4364C201.414 55.7654 201.698 56.1968 201.997 56.6519C202.231 57.0062 202.474 57.3745 202.833 57.7186C203.079 57.9544 203.39 58.1936 203.698 58.4302C204.154 58.7817 204.603 59.1284 204.829 59.4525C204.913 59.574 204.931 59.7315 204.949 59.8887C204.949 59.8895 204.949 59.8903 204.949 59.8911C204.95 59.9017 204.951 59.9123 204.953 59.923C205.66 60.568 206.37 61.2053 207.078 61.8381C207.152 61.8817 207.226 61.9262 207.299 61.9704C207.656 62.1866 208.001 62.3968 208.283 62.4756C208.59 62.5614 209.129 63.0025 209.694 63.4709C210.067 63.7804 210.45 64.1003 210.785 64.3374C210.98 64.4761 211.069 64.706 211.161 64.9414C211.247 65.1612 211.336 65.3855 211.515 65.5479C211.605 65.6304 211.719 65.702 211.841 65.7784C211.948 65.8457 212.061 65.9169 212.169 66.0026C212.269 66.0822 212.427 66.3255 212.631 66.635C212.757 66.8263 212.9 67.0428 213.057 67.2626C213.563 67.739 214.085 68.2382 214.587 68.7275C214.733 68.7867 214.88 68.8171 215.025 68.8101C215.128 68.8051 215.236 68.7808 215.345 68.7565C215.494 68.7235 215.647 68.6902 215.801 68.7034C215.922 68.7138 216.018 68.7752 216.043 68.8587C216.055 68.8977 216.052 68.9415 216.049 68.9809C216.046 69.026 216.043 69.0662 216.064 69.0893C216.079 69.1059 216.11 69.1072 216.148 69.1092C216.207 69.1124 216.285 69.117 216.345 69.1849C216.569 69.4378 216.805 69.7437 217.036 70.0421C217.292 70.3741 217.541 70.6966 217.758 70.9314C218.006 71.1986 218.292 71.6564 218.579 72.1064C218.78 72.4209 218.981 72.7325 219.168 72.9825C219.348 73.2247 219.588 73.4453 219.811 73.6552C220.082 73.9078 220.337 74.1526 220.494 74.4253C220.525 74.4805 220.528 74.5893 220.533 74.7242C220.537 74.8199 220.542 74.9291 220.558 75.0417C220.805 75.3274 221.062 75.625 221.314 75.9215C221.329 75.9255 221.344 75.9297 221.359 75.9339C221.359 75.9339 221.36 75.9339 221.36 75.9339C221.703 76.0252 222.149 76.1725 222.434 76.752C222.508 76.8985 222.524 77.0235 222.54 77.1351C222.555 77.2441 222.572 77.3433 222.64 77.4381C222.718 77.5457 222.842 77.6349 222.975 77.7334C223.163 77.8713 223.368 78.0291 223.501 78.2668C223.51 78.283 223.52 78.3005 223.531 78.3186C223.628 78.4896 223.773 78.7418 223.887 79.0246C224.411 79.6635 224.953 80.316 225.471 80.9406C226.372 82.0128 227.265 83.0544 228.189 84.0777C228.618 84.5603 229.071 85.0803 229.387 85.4167C229.708 85.7608 229.903 85.9244 229.904 85.9238C229.905 85.9225 229.702 85.7684 229.296 85.5271C228.898 85.2891 228.293 84.9512 227.731 84.6249C226.79 84.0695 225.829 83.5081 224.873 82.9524C224.821 82.9247 224.768 82.8968 224.716 82.8688C224.325 82.6568 223.952 82.499 223.568 82.3455C223.48 82.3101 223.391 82.2749 223.302 82.2393Z" fill="black"/>
<path d="M164.682 72.9181C165.112 72.1797 166.129 70.96 166.708 70.3133C166.718 70.3012 166.729 70.2892 166.74 70.2771C166.877 70.1218 167.004 69.9706 167.154 69.793C167.524 69.362 167.968 68.8122 169.069 67.7224C169.364 67.3754 169.66 67.0329 169.951 66.6996C173.145 63.0499 176.643 59.6969 180.373 56.6237C180.416 56.5803 180.461 56.5363 180.505 56.4917C181.377 55.6256 182.44 54.5839 183.228 54.0397C184.225 53.3507 184.925 52.9363 185.514 52.5955C188.588 50.2943 191.738 48.0828 194.847 45.8386C195.485 45.3781 196.117 44.9191 196.751 44.4553C197.089 44.2085 197.426 43.9609 197.762 43.7124C198.654 43.0541 199.543 42.3942 200.432 41.7332C200.91 41.2929 201.356 40.8612 201.772 40.4634C202.357 39.9044 202.882 39.4124 203.35 39.0535C204.478 38.1864 205.904 37.4158 206.966 36.8515C207.14 36.7589 207.304 36.6719 207.456 36.5908C208.232 36.0396 209.008 35.4957 209.792 34.9585C209.862 34.9489 209.933 34.9402 210.005 34.9314C210.908 34.8227 211.751 34.2956 213.098 33.497C213.687 33.1473 214.373 32.747 215.195 32.3099C215.725 32.0287 216.062 31.9938 216.34 31.9608C216.422 31.9514 216.498 31.9424 216.572 31.9281C216.826 31.8791 217.001 31.6785 217.21 31.4451C217.482 31.1418 217.813 30.7854 218.428 30.6154C220.385 30.0633 221.005 29.4061 221.489 28.9383C221.63 28.7999 221.759 28.676 221.904 28.572C222.381 28.2308 223.18 27.9577 223.801 27.7981C224.296 27.6701 225.135 27.1682 225.778 26.7608C226.019 26.6072 226.372 26.4513 226.786 26.2713C227.217 26.0846 227.706 25.8756 228.229 25.6152C229.549 24.9609 230.259 24.6578 230.828 24.4117C230.99 24.3425 231.147 24.2759 231.301 24.2115C231.788 24.0068 232.399 23.7727 233.017 23.5492C233.751 23.2838 234.521 23.0227 235.1 22.8272C236.625 22.4126 238.188 22.0215 239.71 21.678C240.508 21.4967 241.283 21.3591 241.838 21.244C242.395 21.1314 242.695 21.044 242.695 21.0424C242.694 21.0415 242.398 21.1416 241.886 21.3841C241.375 21.6234 240.685 21.9896 239.966 22.3594C238.544 23.0905 237.116 23.8893 235.737 24.7092C234.042 25.7136 232.382 26.7646 230.741 27.796C229.575 28.5261 228.439 29.2473 227.281 29.9778C227.162 30.0529 227.043 30.1281 226.923 30.2033C226.023 30.9301 225.14 31.669 224.494 32.1636C223.957 32.5737 223.536 32.7816 223.162 32.9622C222.907 33.0861 222.679 33.195 222.472 33.3451C222.361 33.4257 222.211 33.5396 222.03 33.6775C221.283 34.2432 220.064 35.201 218.812 35.8992C218.256 36.2082 217.589 36.5114 216.942 36.8022C216.018 37.2176 215.144 37.601 214.79 37.9194C214.167 38.4813 213.343 38.9615 212.609 39.3854C211.914 39.7877 211.304 40.1392 211.048 40.4749C210.742 40.8761 210.378 41.0647 209.834 41.3445C209.457 41.5385 208.997 41.7749 208.41 42.1598C207.733 42.6042 207.207 42.8526 206.759 43.0635C206.129 43.3601 205.654 43.5821 205.138 44.1843C204.565 44.8532 203.922 45.4887 203.319 45.8541C203.044 46.0206 202.754 46.2443 202.452 46.4774C202.052 46.7859 201.632 47.1108 201.2 47.3408C200.843 47.5304 200.485 47.6031 200.168 47.6675C200.069 47.6876 199.974 47.7072 199.885 47.729C199.739 47.8392 199.594 47.9496 199.449 48.0605C199.341 48.1433 199.232 48.2263 199.125 48.3096C199.098 48.3606 199.072 48.4153 199.044 48.4722C198.903 48.7576 198.73 49.1079 198.438 49.4372C197.975 49.9587 197.442 50.2511 196.881 50.5595C196.444 50.7997 195.99 51.0501 195.538 51.4261C195.231 51.6824 194.903 52.0102 194.581 52.3332C194.102 52.8135 193.629 53.2855 193.228 53.5193C193.078 53.607 192.901 53.622 192.726 53.6369C192.725 53.6368 192.724 53.6368 192.723 53.6367C192.711 53.6377 192.699 53.6389 192.687 53.6399C191.836 54.3821 190.992 55.1287 190.155 55.873C190.093 55.9504 190.03 56.0284 189.966 56.106C189.656 56.4847 189.356 56.8506 189.211 57.1521C189.055 57.479 188.46 58.0494 187.835 58.6441C187.421 59.0379 186.993 59.4429 186.665 59.7974C186.474 60.0046 186.204 60.0947 185.928 60.1886C185.671 60.276 185.407 60.367 185.194 60.5548C185.088 60.6481 184.985 60.7709 184.877 60.9001C184.782 61.014 184.681 61.1343 184.565 61.248C184.458 61.3537 184.16 61.5187 183.781 61.7313C183.546 61.8627 183.281 62.0123 183.009 62.1764C182.386 62.7111 181.738 63.2608 181.101 63.7925C181.007 63.949 180.944 64.1063 180.922 64.2629C180.906 64.3753 180.911 64.4917 180.915 64.6105C180.92 64.772 180.925 64.9382 180.879 65.1051C180.843 65.2356 180.756 65.338 180.66 65.363C180.616 65.3746 180.569 65.3696 180.528 65.3653C180.48 65.3601 180.436 65.3565 180.407 65.3785C180.386 65.3945 180.378 65.4278 180.368 65.4682C180.353 65.5328 180.332 65.6162 180.245 65.6799C179.924 65.9168 179.543 66.165 179.171 66.4072C178.758 66.6764 178.356 66.9387 178.056 67.1687C177.719 67.4271 177.16 67.7295 176.613 68.0295C176.23 68.2392 175.851 68.4501 175.541 68.6469C175.24 68.8377 174.956 69.0886 174.681 69.3276C174.352 69.6149 174.034 69.8861 173.706 70.0499C173.64 70.0831 173.521 70.0838 173.374 70.0862C173.269 70.0878 173.15 70.0906 173.025 70.1053C172.663 70.3687 172.292 70.6369 171.918 70.905C171.911 70.9208 171.903 70.937 171.896 70.9533C171.896 70.9536 171.896 70.9539 171.896 70.9542C171.727 71.3244 171.476 71.8056 170.79 72.1026C170.617 72.1788 170.478 72.1941 170.354 72.2089C170.232 72.2235 170.125 72.2364 170.007 72.309C169.875 72.3906 169.753 72.5237 169.619 72.6665C169.432 72.8675 169.219 73.0863 168.935 73.2263C168.915 73.2359 168.894 73.2461 168.873 73.2569C168.668 73.3595 168.366 73.5111 168.037 73.6283C167.242 74.1811 166.425 74.758 165.645 75.3085C164.307 76.2632 163.002 77.2133 161.713 78.1982C161.108 78.6542 160.456 79.1377 160.031 79.4753C159.596 79.8181 159.381 80.0279 159.381 80.029C159.382 80.0295 159.589 79.8112 159.93 79.3732C160.266 78.9444 160.753 78.2907 161.216 77.6863C162.005 76.6716 162.802 75.6396 163.595 74.6103C163.636 74.5542 163.677 74.4978 163.717 74.4418C164.026 74.0199 164.269 73.6202 164.513 73.2053C164.569 73.1101 164.625 73.0143 164.682 72.9181Z" fill="black"/>
</svg>
