<svg width="224" height="249" viewBox="0 0 224 249" fill="none" xmlns="http://www.w3.org/2000/svg">
<path d="M145.297 73.3507C145.727 72.6123 146.744 71.3926 147.323 70.7459C147.334 70.7338 147.344 70.7218 147.355 70.7097C147.492 70.5544 147.619 70.4032 147.769 70.2256C148.139 69.7946 148.583 69.2449 149.685 68.155C149.98 67.808 150.275 67.4655 150.567 67.1322C153.76 63.4825 157.259 60.1295 160.988 57.0563C161.032 57.013 161.076 56.9689 161.121 56.9244C161.993 56.0582 163.055 55.0165 163.843 54.4723C164.84 53.7833 165.54 53.3689 166.13 53.0281C169.204 50.7269 172.353 48.5154 175.462 46.2712C176.1 45.8108 176.733 45.3517 177.366 44.8879C177.704 44.6411 178.041 44.3935 178.377 44.145C179.269 43.4867 180.158 42.8268 181.048 42.1658C181.525 41.7256 181.972 41.2938 182.388 40.896C182.972 40.337 183.497 39.845 183.965 39.4861C185.093 38.6191 186.519 37.8484 187.581 37.2841C187.755 37.1916 187.92 37.1045 188.071 37.0234C188.847 36.4722 189.623 35.9283 190.407 35.3911C190.477 35.3816 190.548 35.3728 190.621 35.364C191.524 35.2553 192.366 34.7282 193.713 33.9297C194.303 33.5799 194.988 33.1796 195.81 32.7425C196.34 32.4613 196.678 32.4264 196.956 32.3934C197.037 32.384 197.113 32.375 197.187 32.3608C197.441 32.3117 197.616 32.1111 197.826 31.8777C198.097 31.5744 198.429 31.218 199.044 31.0481C201 30.496 201.621 29.8387 202.104 29.3709C202.246 29.2326 202.375 29.1087 202.52 29.0046C202.997 28.6635 203.795 28.3903 204.417 28.2307C204.911 28.1027 205.75 27.6009 206.393 27.1934C206.634 27.0398 206.987 26.8839 207.402 26.704C207.833 26.5172 208.322 26.3082 208.844 26.0479C210.164 25.3935 210.874 25.0904 211.443 24.8443C211.605 24.7751 211.762 24.7085 211.916 24.6441C212.404 24.4394 213.015 24.2054 213.633 23.9819C214.367 23.7164 215.136 23.4553 215.715 23.2599C217.24 22.8452 218.803 22.4541 220.325 22.1106C221.123 21.9293 221.898 21.7917 222.453 21.6766C223.01 21.564 223.31 21.4766 223.31 21.475C223.309 21.4741 223.013 21.5742 222.502 21.8167C221.99 22.056 221.3 22.4222 220.581 22.792C219.159 23.5231 217.732 24.3219 216.352 25.1418C214.657 26.1462 212.997 27.1972 211.356 28.2286C210.191 28.9588 209.054 29.6799 207.896 30.4104C207.777 30.4855 207.658 30.5607 207.539 30.636C206.638 31.3627 205.755 32.1016 205.109 32.5962C204.573 33.0063 204.151 33.2142 203.777 33.3948C203.522 33.5187 203.295 33.6276 203.088 33.7777C202.976 33.8584 202.826 33.9722 202.646 34.1101C201.899 34.6758 200.679 35.6336 199.427 36.3318C198.871 36.6408 198.205 36.944 197.557 37.2349C196.633 37.6502 195.759 38.0336 195.406 38.352C194.782 38.914 193.958 39.3941 193.225 39.818C192.529 40.2204 191.919 40.5718 191.663 40.9075C191.358 41.3088 190.994 41.4973 190.45 41.7771C190.073 41.9712 189.612 42.2075 189.025 42.5924C188.349 43.0368 187.822 43.2852 187.374 43.4962C186.744 43.7927 186.269 44.0147 185.753 44.6169C185.18 45.2858 184.537 45.9213 183.934 46.2867C183.659 46.4532 183.369 46.6769 183.067 46.91C182.667 47.2186 182.248 47.5434 181.815 47.7734C181.458 47.963 181.1 48.0358 180.783 48.1002C180.684 48.1203 180.59 48.1398 180.5 48.1616C180.354 48.2718 180.209 48.3823 180.064 48.4931C179.956 48.5759 179.848 48.6589 179.74 48.7422C179.714 48.7932 179.687 48.8479 179.659 48.9048C179.518 49.1902 179.345 49.5406 179.053 49.8698C178.591 50.3913 178.057 50.6837 177.496 50.9921C177.059 51.2323 176.605 51.4828 176.154 51.8587C175.846 52.115 175.518 52.4429 175.196 52.7659C174.717 53.2461 174.245 53.7181 173.843 53.9519C173.693 54.0396 173.516 54.0546 173.341 54.0695C173.34 54.0694 173.339 54.0694 173.338 54.0693C173.326 54.0703 173.315 54.0715 173.303 54.0725C172.452 54.8147 171.607 55.5613 170.77 56.3056C170.708 56.383 170.645 56.461 170.581 56.5386C170.271 56.9173 169.971 57.2832 169.827 57.5847C169.67 57.9116 169.075 58.482 168.451 59.0767C168.036 59.4706 167.608 59.8756 167.28 60.23C167.089 60.4372 166.819 60.5273 166.543 60.6212C166.286 60.7086 166.023 60.7996 165.809 60.9874C165.703 61.0807 165.6 61.2035 165.492 61.3327C165.397 61.4467 165.296 61.5669 165.18 61.6806C165.073 61.7863 164.775 61.9513 164.396 62.1639C164.161 62.2953 163.896 62.4449 163.624 62.6091C163.001 63.1437 162.353 63.6934 161.717 64.2251C161.622 64.3816 161.559 64.5389 161.537 64.6955C161.521 64.8079 161.526 64.9243 161.53 65.0431C161.535 65.2046 161.54 65.3708 161.494 65.5377C161.458 65.6682 161.372 65.7706 161.276 65.7956C161.231 65.8072 161.185 65.8022 161.143 65.7979C161.095 65.7927 161.052 65.7891 161.022 65.8112C161.001 65.8271 160.993 65.8604 160.983 65.9008C160.968 65.9654 160.947 66.0488 160.861 66.1125C160.539 66.3494 160.158 66.5976 159.786 66.8398C159.373 67.1091 158.971 67.3714 158.671 67.6013C158.334 67.8597 157.775 68.1621 157.228 68.4621C156.846 68.6718 156.466 68.8827 156.156 69.0795C155.856 69.2703 155.571 69.5212 155.297 69.7602C154.967 70.0475 154.649 70.3187 154.322 70.4826C154.255 70.5157 154.137 70.5164 153.989 70.5188C153.885 70.5204 153.765 70.5232 153.64 70.5379C153.279 70.8014 152.907 71.0696 152.534 71.3376C152.526 71.3534 152.519 71.3696 152.511 71.3859C152.511 71.3862 152.511 71.3865 152.511 71.3868C152.342 71.757 152.091 72.2382 151.406 72.5352C151.232 72.6114 151.093 72.6267 150.969 72.6415C150.847 72.6561 150.74 72.669 150.622 72.7417C150.49 72.8232 150.368 72.9563 150.234 73.0991C150.047 73.3001 149.834 73.5189 149.55 73.6589C149.531 73.6685 149.51 73.6787 149.488 73.6895C149.283 73.7921 148.981 73.9437 148.652 74.0609C147.857 74.6137 147.04 75.1906 146.261 75.7411C144.922 76.6958 143.618 77.6459 142.329 78.6309C141.723 79.0868 141.071 79.5703 140.646 79.9079C140.211 80.2507 139.996 80.4605 139.996 80.4616C139.998 80.4621 140.204 80.2439 140.545 79.8058C140.881 79.377 141.368 78.7233 141.831 78.1189C142.62 77.1042 143.417 76.0722 144.211 75.0429C144.251 74.9868 144.292 74.9305 144.333 74.8744C144.641 74.4526 144.884 74.0528 145.128 73.6379C145.184 73.5428 145.24 73.4469 145.297 73.3507Z" fill="black"/>
<path d="M60.5889 138.783C60.5863 138.783 60.2297 139.031 59.6582 139.545C59.0822 140.056 58.3395 140.792 57.5635 141.524C56.0269 142.975 54.435 144.538 52.9521 146.07C51.1865 147.902 49.3027 149.9 47.584 151.741C46.3119 153.086 45.0788 154.406 43.8779 155.697C43.7492 155.835 43.6204 155.972 43.4922 156.109C42.5836 157.386 41.7356 158.656 41.1143 159.501C40.6126 160.188 40.1013 160.627 39.6865 160.973C39.3982 161.214 39.1427 161.427 38.9365 161.691C38.8258 161.834 38.6791 162.033 38.5049 162.272C37.8024 163.234 36.6002 164.942 35.2988 166.243C34.7204 166.819 33.9868 167.426 33.2627 168.03C32.2369 168.884 31.2873 169.669 30.9971 170.215C30.4785 171.185 29.6408 172.124 28.9209 172.938C28.2365 173.71 27.6334 174.407 27.4971 174.956C27.337 175.609 26.9697 175.994 26.4268 176.565C26.0495 176.964 25.5971 177.439 25.0615 178.194C24.4509 179.057 23.9235 179.595 23.4756 180.055C22.8512 180.694 22.3642 181.207 22.1084 182.219C21.8221 183.349 21.4607 184.426 20.9326 185.192C20.6947 185.537 20.4812 185.961 20.2637 186.402C19.9752 186.987 19.6803 187.598 19.2988 188.1C18.9803 188.521 18.5719 188.797 18.2109 189.044C18.0983 189.121 17.9896 189.196 17.8906 189.271C17.7888 189.485 17.6888 189.7 17.5898 189.914C17.516 190.074 17.4422 190.234 17.3701 190.395C17.3773 190.472 17.3868 190.555 17.3965 190.64C17.4451 191.067 17.5081 191.587 17.4004 192.156C17.2321 193.053 16.7969 193.703 16.3428 194.395C15.9911 194.929 15.6215 195.505 15.3721 196.227C15.2019 196.719 15.074 197.303 14.9521 197.879C14.773 198.729 14.5982 199.589 14.3066 200.116C14.1971 200.314 13.9893 200.446 13.7842 200.576C13.7831 200.577 13.7814 200.578 13.7803 200.578C13.7665 200.587 13.753 200.597 13.7393 200.605C13.3506 202.002 12.9874 203.429 12.6553 204.844C12.6515 204.974 12.6473 205.105 12.6426 205.234C12.6205 205.865 12.5974 206.49 12.709 206.925C12.8292 207.398 12.6497 208.446 12.4707 209.549C12.3518 210.276 12.2329 211.027 12.1885 211.65C12.1622 212.014 11.928 212.31 11.6904 212.617C11.4688 212.902 11.2437 213.202 11.1748 213.567C11.1403 213.751 11.1404 213.957 11.1406 214.177C11.1409 214.37 11.1405 214.574 11.1172 214.782C11.0952 214.976 10.9074 215.377 10.6719 215.895C10.5262 216.214 10.362 216.581 10.2061 216.97C10.1244 217.408 10.0417 217.846 9.95996 218.283L0.371094 219.418C0.655002 217.298 1.02488 215.184 1.48828 213.082C1.4974 212.999 1.5061 212.914 1.51562 212.828C1.69787 211.172 1.9767 209.121 2.41504 207.888C2.97077 206.317 3.44497 205.296 3.85449 204.451C5.49938 199.436 7.56239 194.553 9.81641 189.789C10.2796 188.81 10.7486 187.839 11.2217 186.878C11.4745 186.364 11.7297 185.848 11.9883 185.332C12.677 183.957 13.3614 182.635 14.0898 181.278C14.4235 180.431 14.7065 179.654 14.9941 178.91C15.3932 177.874 15.7861 176.935 16.1797 176.231C17.1179 174.547 18.6148 172.804 19.7051 171.61C19.8855 171.411 20.0566 171.223 20.2148 171.049C20.942 169.969 21.7024 168.886 22.46 167.854C22.5504 167.814 22.6431 167.775 22.7373 167.736C23.9075 167.259 24.7992 166.169 26.1963 164.617C26.8129 163.932 27.5429 163.141 28.4648 162.243C29.0415 161.686 29.4903 161.532 29.8525 161.405C29.9592 161.368 30.0594 161.333 30.1533 161.291C30.4754 161.147 30.6127 160.811 30.7832 160.417C31.0031 159.905 31.2848 159.295 32.0605 158.864C34.461 157.546 35.0015 156.445 35.458 155.63C35.5902 155.391 35.7124 155.174 35.8672 154.982C36.3479 154.381 37.3077 153.795 38.0898 153.407C38.7053 153.102 39.6548 152.144 40.3438 151.404C40.5977 151.129 41.0044 150.823 41.4883 150.465C41.9892 150.095 42.5738 149.668 43.1699 149.166C44.6993 147.886 45.5059 147.297 46.1758 146.8C46.366 146.66 46.5447 146.531 46.7236 146.401C47.2897 145.992 48.0161 145.505 48.7676 145.02C49.683 144.425 50.5472 143.903 51.2422 143.473C53.1083 142.494 55.0508 141.504 56.9023 140.595C57.8688 140.119 58.8326 139.695 59.5264 139.354C60.2217 139.016 60.5894 138.785 60.5889 138.783Z" fill="black"/>
<path d="M107.189 165.054C107.18 165.059 106.923 165.24 106.53 165.644C106.132 166.048 105.605 166.673 105.099 167.282C104.052 168.525 103.119 169.836 102.237 171.208C101.196 172.845 100.249 174.549 99.3057 176.252C98.6699 177.411 98.0077 178.631 97.3906 179.793C97.326 179.914 97.2602 180.036 97.1953 180.157C96.8329 181.276 96.5149 182.391 96.2461 183.146C96.0237 183.771 95.7353 184.151 95.4814 184.476C95.3102 184.695 95.1563 184.888 95.0625 185.121C95.0123 185.246 94.9485 185.422 94.873 185.633C94.5598 186.497 94.0639 187.979 93.3096 189.156C92.9729 189.68 92.495 190.257 92.04 190.79C91.387 191.559 90.7544 192.286 90.6484 192.762C90.4663 193.591 89.9864 194.396 89.5508 195.118C89.1361 195.807 88.7721 196.407 88.7979 196.854C88.8289 197.39 88.5928 197.724 88.2363 198.224C87.99 198.569 87.6826 199.004 87.3789 199.625C87.0272 200.346 86.6596 200.808 86.3457 201.202C85.9045 201.757 85.5665 202.18 85.5488 203C85.5289 203.912 85.3982 204.818 85.0518 205.435C84.8935 205.716 84.7724 206.059 84.6475 206.418C84.4822 206.892 84.3089 207.393 84.0293 207.803C83.7988 208.14 83.4529 208.361 83.1475 208.558C83.0524 208.619 82.9616 208.678 82.8789 208.737C82.8162 208.908 82.7538 209.08 82.6924 209.251C82.6465 209.379 82.6016 209.508 82.5566 209.637C82.5753 209.699 82.597 209.765 82.6191 209.833C82.7306 210.178 82.8672 210.601 82.8457 211.052C82.8114 211.765 82.4741 212.278 82.1191 212.822C81.8428 213.246 81.5561 213.688 81.3936 214.253C81.2827 214.638 81.2192 215.099 81.1562 215.555C81.0627 216.232 80.969 216.902 80.7266 217.306C80.6357 217.457 80.4431 217.548 80.2529 217.64C80.2518 217.64 80.2501 217.641 80.249 217.642C80.2363 217.648 80.2236 217.654 80.2109 217.66C79.9381 218.75 79.6745 219.848 79.416 220.943C79.4185 221.046 79.4196 221.15 79.4209 221.252C79.4271 221.753 79.4325 222.237 79.5576 222.59C79.6933 222.972 79.5494 223.791 79.3945 224.644C79.293 225.203 79.1855 225.779 79.1475 226.262C79.1242 226.546 78.8944 226.756 78.6611 226.972C78.4432 227.173 78.2225 227.382 78.1543 227.659C78.1202 227.798 78.1198 227.958 78.1191 228.129C78.1186 228.279 78.1172 228.438 78.0928 228.598C78.0698 228.746 77.8807 229.036 77.6426 229.408C77.495 229.639 77.3274 229.908 77.167 230.19C76.9518 230.996 76.7312 231.795 76.502 232.586C76.5447 232.774 76.6225 232.955 76.75 233.112C76.8413 233.225 76.9611 233.333 77.082 233.442C77.2465 233.591 77.4154 233.745 77.5244 233.923C77.6097 234.062 77.6076 234.2 77.5186 234.27C77.477 234.302 77.417 234.319 77.3633 234.335C77.3018 234.353 77.2464 234.369 77.2334 234.403C77.2243 234.428 77.2483 234.463 77.2764 234.505C77.3214 234.572 77.379 234.658 77.3398 234.757C77.194 235.124 76.9885 235.53 76.7881 235.926C76.5661 236.361 76.343 236.812 76.2139 237.17C76.0681 237.573 75.7069 238.108 75.3555 238.643C75.1103 239.014 74.8682 239.392 74.6934 239.73C74.5227 240.06 74.4339 240.423 74.3447 240.771C74.2385 241.19 74.1297 241.589 73.9033 241.896C73.8576 241.957 73.7181 242.016 73.5459 242.09C73.4239 242.141 73.283 242.206 73.1484 242.283C72.9768 242.713 72.8017 243.14 72.624 243.563C72.6308 243.581 72.6375 243.599 72.6445 243.617L72.6465 243.618C72.8126 244.035 72.992 244.586 72.4717 245.195C72.34 245.355 72.1899 245.442 72.0566 245.521C71.9256 245.597 71.8103 245.667 71.7432 245.789C71.6671 245.928 71.6539 246.108 71.6367 246.302C71.6136 246.574 71.5784 246.875 71.3799 247.143C71.3665 247.161 71.3517 247.181 71.3369 247.201C71.195 247.397 70.9879 247.677 70.7119 247.957C70.6954 247.995 70.6786 248.033 70.6621 248.071L66.5352 235.965C66.9562 232.63 67.6666 229.354 68.6289 226.148C68.638 226.087 68.6478 226.024 68.6572 225.961C68.8386 224.737 69.09 223.197 69.4854 222.32C69.9896 221.198 70.4163 220.454 70.7793 219.854C72.1662 216.198 73.7224 212.604 75.1963 208.987C75.4979 208.248 75.7973 207.508 76.0908 206.766C76.247 206.371 76.4018 205.973 76.5557 205.576C76.9635 204.524 77.3656 203.474 77.7686 202.418C77.904 201.762 78.0104 201.128 78.1143 200.543C78.26 199.721 78.4009 198.993 78.6035 198.421C79.0899 197.044 80.0061 195.658 80.7031 194.623C80.8163 194.455 80.9234 194.297 81.0215 194.15C81.3966 193.255 81.7803 192.366 82.1826 191.472C82.2538 191.434 82.3269 191.397 82.4014 191.359C83.338 190.884 83.8043 190.006 84.6143 188.603C84.9652 187.995 85.375 187.303 85.9111 186.513C86.2607 185.998 86.6153 185.831 86.9004 185.693C86.9843 185.653 87.0629 185.614 87.1338 185.571C87.3763 185.424 87.3919 185.139 87.417 184.804C87.4495 184.366 87.4962 183.859 88.0469 183.434C89.7765 182.093 89.8653 181.171 90.0098 180.443C90.048 180.233 90.0855 180.044 90.1582 179.872C90.3948 179.315 91.0521 178.73 91.6084 178.343C92.0541 178.026 92.5734 177.144 92.9375 176.465C93.0753 176.206 93.3331 175.915 93.6455 175.567C93.9731 175.203 94.3524 174.787 94.7148 174.317C95.6275 173.143 96.1909 172.539 96.6279 172.068C96.7539 171.934 96.8728 171.81 96.9912 171.688C97.364 171.302 97.8536 170.844 98.374 170.386C98.9943 169.839 99.6279 169.329 100.123 168.932C101.519 167.998 102.935 167.159 104.373 166.402C105.102 166.023 105.871 165.694 106.394 165.455C106.922 165.217 107.19 165.056 107.189 165.054Z" fill="black"/>
<path d="M92.0537 131.433C92.0413 131.443 91.6933 131.804 91.1523 132.502C90.5985 133.209 89.8929 134.208 89.1475 135.229C87.6377 137.288 86.2035 139.39 84.8193 141.523C83.1344 144.119 81.5288 146.756 79.9346 149.374C78.8157 151.21 77.7144 153.043 76.6182 154.879C76.5054 155.068 76.3919 155.257 76.2793 155.445C75.5304 157.108 74.8246 158.774 74.2822 159.922C73.8357 160.868 73.3882 161.477 73 161.996C72.7335 162.353 72.4963 162.669 72.3174 163.027C72.2213 163.22 72.096 163.486 71.9453 163.808C71.3256 165.122 70.3191 167.362 69.1104 169.237C68.5725 170.069 67.8705 170.991 67.1953 171.871C66.2312 173.128 65.3176 174.308 65.0684 175.016C64.6311 176.259 63.863 177.538 63.1807 178.674C62.5313 179.756 61.9645 180.704 61.8711 181.358C61.7608 182.139 61.4065 182.677 60.8799 183.476C60.5148 184.03 60.0665 184.712 59.5654 185.689C58.9886 186.816 58.4634 187.568 58.0186 188.203C57.3929 189.098 56.9201 189.774 56.6924 190.995C56.4381 192.356 56.0672 193.724 55.54 194.695C55.2997 195.138 55.0857 195.67 54.8623 196.226C54.5661 196.962 54.2561 197.735 53.8555 198.392C53.5251 198.933 53.1003 199.317 52.7246 199.657C52.6075 199.763 52.4948 199.865 52.3916 199.966C52.2834 200.231 52.1766 200.496 52.0693 200.764C51.9896 200.963 51.9107 201.162 51.832 201.361C51.8375 201.451 51.8449 201.547 51.8525 201.646C51.8912 202.145 51.9388 202.757 51.8105 203.437C51.607 204.513 51.1306 205.327 50.624 206.202C50.2304 206.881 49.8218 207.589 49.5205 208.463C49.315 209.059 49.1445 209.76 48.9756 210.455C48.7228 211.493 48.4748 212.513 48.1279 213.157C47.998 213.398 47.773 213.565 47.5508 213.729C47.5497 213.729 47.548 213.73 47.5469 213.73C47.5319 213.741 47.5168 213.753 47.502 213.764C47.4197 214.025 47.3389 214.289 47.2568 214.552L43.4971 214.317L38.4102 214.919C40.2416 210.423 42.1699 205.961 44.084 201.496C44.5725 200.357 45.0614 199.215 45.5488 198.069C45.8082 197.46 46.0657 196.854 46.3232 196.245C47.0048 194.634 47.6928 193.01 48.3789 191.401C48.6811 190.419 48.9493 189.474 49.2051 188.598C49.565 187.365 49.8966 186.28 50.2568 185.416C51.1238 183.334 52.4825 181.153 53.5098 179.546C53.6775 179.283 53.8372 179.035 53.9834 178.806C54.628 177.443 55.2838 176.091 55.96 174.742C56.049 174.675 56.1405 174.609 56.2334 174.541C57.3954 173.696 58.1585 172.325 59.4307 170.189C59.9851 169.26 60.6346 168.189 61.4551 166.961C61.9845 166.17 62.4311 165.865 62.791 165.614C62.8971 165.541 62.9968 165.47 63.0889 165.396C63.4039 165.139 63.5009 164.729 63.6211 164.25C63.7761 163.627 63.978 162.885 64.7129 162.189C67.0409 159.969 67.4311 158.613 67.7764 157.598C67.8757 157.3 67.9682 157.031 68.0977 156.778C68.5181 155.958 69.4396 155 70.1982 154.326C70.799 153.791 71.6312 152.469 72.2402 151.446C72.4697 151.059 72.854 150.589 73.3105 150.04C73.7838 149.472 74.3346 148.816 74.8828 148.085C76.2747 146.238 77.0671 145.305 77.7031 144.55C77.8851 144.335 78.0564 144.137 78.2275 143.938C78.7679 143.312 79.4667 142.552 80.1836 141.802C81.0423 140.901 81.9352 140.005 82.6143 139.324C84.4869 137.656 86.3906 136.038 88.3115 134.454C89.2977 133.644 90.2826 132.905 90.9854 132.341C91.6819 131.788 92.0456 131.443 92.0537 131.433Z" fill="black"/>
<path d="M153.262 21.418C153.261 21.4185 153.373 21.6592 153.633 22.0635C153.89 22.4682 154.278 23.0103 154.668 23.5742C155.44 24.6914 156.271 25.8037 157.116 26.874C158.15 28.1878 159.22 29.4678 160.265 30.7373C161.005 31.6408 161.731 32.5156 162.466 33.415C162.541 33.5073 162.617 33.5999 162.692 33.6924C163.411 34.3609 164.143 35.0192 164.633 35.5068C165.036 35.9082 165.248 36.2482 165.431 36.5479C165.556 36.7532 165.665 36.9376 165.813 37.0957C165.893 37.1805 166.006 37.294 166.142 37.4307C166.699 37.9962 167.642 38.9138 168.337 39.9102C168.642 40.3493 168.948 40.8935 169.24 41.4209C169.658 42.1742 170.041 42.8879 170.351 43.1494C170.896 43.6097 171.37 44.2649 171.787 44.8477C172.183 45.3998 172.53 45.8867 172.852 46.0586C173.236 46.2633 173.422 46.5574 173.698 46.9971C173.889 47.3008 174.123 47.6754 174.498 48.1357C174.931 48.6669 175.178 49.097 175.387 49.4639C175.679 49.9785 175.899 50.369 176.475 50.7295C177.114 51.1298 177.723 51.5994 178.078 52.0801C178.24 52.2991 178.456 52.522 178.681 52.7539C178.978 53.0611 179.292 53.3843 179.517 53.7354C179.702 54.0246 179.777 54.3352 179.845 54.6104C179.866 54.6962 179.886 54.7793 179.908 54.8564C180.014 54.9689 180.121 55.0815 180.228 55.1934C180.307 55.2768 180.387 55.3604 180.467 55.4434C180.515 55.4582 180.567 55.4728 180.62 55.4883C180.889 55.5662 181.219 55.6623 181.532 55.8691C182.029 56.198 182.313 56.6291 182.612 57.084C182.8 57.3695 182.995 57.6642 183.252 57.9482L181.707 63.6533C180.559 62.349 179.417 61.0403 178.265 59.7461C177.821 59.2472 177.377 58.7534 176.93 58.2598C176.691 57.9969 176.452 57.7333 176.212 57.4717C175.576 56.7785 174.938 56.0881 174.298 55.3984C173.875 55.0429 173.459 54.7151 173.076 54.4082C172.538 53.977 172.064 53.5871 171.716 53.2275C170.875 52.3603 170.113 51.2064 169.556 50.3496C169.464 50.2092 169.378 50.0762 169.298 49.9541C168.759 49.3514 168.225 48.746 167.699 48.1367C167.688 48.0755 167.678 48.0126 167.668 47.9492C167.54 47.158 167.02 46.4903 166.23 45.4238C165.884 44.9556 165.485 44.411 165.048 43.751C164.766 43.3251 164.723 43.03 164.685 42.7881C164.673 42.7172 164.663 42.6503 164.647 42.5869C164.593 42.3693 164.398 42.2477 164.171 42.1006C163.876 41.9103 163.529 41.674 163.349 41.1553C162.768 39.5091 162.121 39.067 161.661 38.7168C161.525 38.6147 161.403 38.5202 161.3 38.4092C160.963 38.0466 160.674 37.3819 160.502 36.8584C160.363 36.4407 159.859 35.7854 159.447 35.2832C159.292 35.0958 159.132 34.8098 158.945 34.4736C158.752 34.1245 158.533 33.7242 158.268 33.3105C157.594 32.2542 157.276 31.6806 157.019 31.2207C156.946 31.0902 156.878 30.964 156.81 30.8389C156.594 30.4435 156.345 29.9458 156.105 29.4404C155.821 28.8395 155.541 28.2098 155.328 27.7344C154.865 26.4674 154.42 25.1693 154.019 23.9023C153.807 23.2399 153.636 22.5886 153.498 22.127C153.362 21.6637 153.264 21.4184 153.262 21.418Z" fill="black"/>
</svg>
