<svg width="208" height="205" viewBox="0 0 208 205" fill="none" xmlns="http://www.w3.org/2000/svg">
<path d="M129.093 73.3502C129.523 72.6118 130.54 71.3921 131.119 70.7454C131.13 70.7333 131.14 70.7213 131.151 70.7092C131.288 70.5539 131.415 70.4027 131.565 70.2251C131.935 69.7941 132.379 69.2444 133.481 68.1545C133.776 67.8075 134.071 67.4651 134.363 67.1317C137.556 63.482 141.054 60.1291 144.784 57.0558C144.827 57.0125 144.872 56.9684 144.917 56.9239C145.789 56.0577 146.851 55.016 147.639 54.4718C148.636 53.7828 149.336 53.3684 149.925 53.0276C152.999 50.7264 156.149 48.515 159.258 46.2707C159.896 45.8103 160.528 45.3512 161.162 44.8875C161.5 44.6406 161.837 44.393 162.173 44.1445C163.065 43.4862 163.954 42.8263 164.844 42.1653C165.321 41.7251 165.768 41.2933 166.183 40.8955C166.768 40.3365 167.293 39.8445 167.761 39.4856C168.889 38.6186 170.315 37.8479 171.377 37.2836C171.551 37.1911 171.715 37.104 171.867 37.0229C172.643 36.4717 173.419 35.9278 174.203 35.3906C174.273 35.3811 174.344 35.3723 174.416 35.3636C175.319 35.2548 176.162 34.7277 177.509 33.9292C178.099 33.5794 178.784 33.1791 179.606 32.7421C180.136 32.4608 180.473 32.4259 180.751 32.3929C180.833 32.3835 180.909 32.3745 180.983 32.3603C181.237 32.3113 181.412 32.1106 181.622 31.8773C181.893 31.5739 182.225 31.2176 182.839 31.0476C184.796 30.4955 185.417 29.8383 185.9 29.3704C186.042 29.2321 186.171 29.1082 186.316 29.0042C186.793 28.663 187.591 28.3898 188.213 28.2302C188.707 28.1023 189.546 27.6004 190.189 27.193C190.43 27.0393 190.783 26.8834 191.198 26.7035C191.629 26.5167 192.117 26.3077 192.64 26.0474C193.96 25.393 194.67 25.0899 195.239 24.8438C195.401 24.7746 195.558 24.708 195.712 24.6436C196.2 24.4389 196.811 24.2049 197.429 23.9814C198.162 23.7159 198.932 23.4548 199.511 23.2594C201.036 22.8447 202.599 22.4536 204.121 22.1101C204.919 21.9288 205.694 21.7912 206.249 21.6761C206.806 21.5635 207.106 21.4761 207.106 21.4746C207.105 21.4736 206.809 21.5737 206.298 21.8162C205.786 22.0555 205.096 22.4217 204.377 22.7916C202.955 23.5226 201.528 24.3214 200.148 25.1413C198.453 26.1457 196.793 27.1967 195.152 28.2281C193.986 28.9583 192.85 29.6794 191.692 30.4099C191.573 30.485 191.454 30.5602 191.335 30.6355C190.434 31.3623 189.551 32.1011 188.905 32.5958C188.368 33.0058 187.947 33.2137 187.573 33.3944C187.318 33.5182 187.091 33.6271 186.883 33.7772C186.772 33.8579 186.622 33.9717 186.442 34.1096C185.695 34.6753 184.475 35.6331 183.223 36.3313C182.667 36.6403 182.001 36.9436 181.353 37.2344C180.429 37.6497 179.555 38.0331 179.202 38.3516C178.578 38.9135 177.754 39.3936 177.021 39.8175C176.325 40.2199 175.715 40.5713 175.459 40.907C175.153 41.3083 174.79 41.4968 174.246 41.7766C173.868 41.9707 173.408 42.207 172.821 42.5919C172.145 43.0363 171.618 43.2848 171.17 43.4957C170.54 43.7923 170.065 44.0143 169.549 44.6164C168.976 45.2854 168.333 45.9208 167.73 46.2862C167.455 46.4527 167.165 46.6764 166.863 46.9095C166.463 47.2181 166.043 47.5429 165.611 47.7729C165.254 47.9625 164.896 48.0353 164.579 48.0997C164.48 48.1198 164.386 48.1393 164.296 48.1611C164.15 48.2713 164.005 48.3818 163.86 48.4926C163.752 48.5754 163.644 48.6584 163.536 48.7417C163.51 48.7927 163.483 48.8474 163.455 48.9043C163.314 49.1898 163.141 49.5401 162.849 49.8693C162.386 50.3908 161.853 50.6832 161.292 50.9916C160.855 51.2318 160.401 51.4823 159.949 51.8582C159.642 52.1145 159.314 52.4424 158.992 52.7654C158.513 53.2456 158.041 53.7176 157.639 53.9514C157.489 54.0391 157.312 54.0541 157.137 54.069C157.136 54.069 157.135 54.0689 157.134 54.0688C157.122 54.0698 157.11 54.071 157.099 54.072C156.247 54.8142 155.403 55.5608 154.566 56.3051C154.504 56.3825 154.441 56.4605 154.377 56.5381C154.067 56.9169 153.767 57.2827 153.623 57.5842C153.466 57.9111 152.871 58.4815 152.247 59.0762C151.832 59.4701 151.404 59.8751 151.076 60.2295C150.885 60.4367 150.615 60.5268 150.339 60.6207C150.082 60.7081 149.819 60.7991 149.605 60.9869C149.499 61.0802 149.396 61.203 149.288 61.3322C149.193 61.4462 149.092 61.5664 148.976 61.6801C148.869 61.7858 148.571 61.9508 148.192 62.1634C147.957 62.2948 147.692 62.4445 147.42 62.6086C146.797 63.1432 146.149 63.6929 145.512 64.2246C145.418 64.3811 145.355 64.5384 145.333 64.695C145.317 64.8074 145.322 64.9239 145.326 65.0426C145.331 65.2041 145.336 65.3703 145.29 65.5373C145.254 65.6678 145.167 65.7701 145.072 65.7951C145.027 65.8067 144.981 65.8018 144.939 65.7974C144.891 65.7922 144.847 65.7886 144.818 65.8107C144.797 65.8266 144.789 65.8599 144.779 65.9003C144.764 65.9649 144.743 66.0483 144.656 66.112C144.335 66.3489 143.954 66.5971 143.582 66.8393C143.169 67.1086 142.767 67.3709 142.467 67.6008C142.13 67.8593 141.571 68.1616 141.024 68.4616C140.642 68.6714 140.262 68.8822 139.952 69.079C139.652 69.2698 139.367 69.5207 139.092 69.7597C138.763 70.047 138.445 70.3182 138.118 70.4821C138.051 70.5152 137.933 70.516 137.785 70.5183C137.681 70.52 137.561 70.5227 137.436 70.5375C137.074 70.8009 136.703 71.0691 136.33 71.3371C136.322 71.3529 136.315 71.3691 136.307 71.3854C136.307 71.3857 136.307 71.386 136.307 71.3863C136.138 71.7565 135.887 72.2377 135.201 72.5347C135.028 72.6109 134.889 72.6263 134.765 72.641C134.643 72.6556 134.536 72.6685 134.418 72.7412C134.286 72.8227 134.164 72.9558 134.03 73.0986C133.843 73.2996 133.63 73.5184 133.346 73.6584C133.327 73.668 133.306 73.6783 133.284 73.6891C133.079 73.7916 132.777 73.9432 132.448 74.0604C131.653 74.6132 130.836 75.1902 130.057 75.7406C128.718 76.6953 127.414 77.6454 126.124 78.6304C125.519 79.0863 124.867 79.5698 124.442 79.9075C124.007 80.2502 123.792 80.46 123.792 80.4611C123.793 80.4616 124 80.2434 124.341 79.8053C124.677 79.3765 125.164 78.7228 125.627 78.1184C126.416 77.1037 127.213 76.0717 128.007 75.0424C128.047 74.9863 128.088 74.93 128.128 74.8739C128.437 74.4521 128.68 74.0523 128.924 73.6374C128.98 73.5423 129.036 73.4464 129.093 73.3502Z" fill="black"/>
<path d="M44.3848 138.783C44.3822 138.782 44.0256 139.031 43.4541 139.544C42.8781 140.056 42.1354 140.791 41.3594 141.524C39.8228 142.974 38.2309 144.538 36.748 146.07C34.9824 147.901 33.0986 149.9 31.3799 151.741C30.1078 153.086 28.8747 154.405 27.6738 155.697C27.5451 155.834 27.4163 155.972 27.2881 156.109C26.3795 157.385 25.5315 158.655 24.9102 159.5C24.4085 160.188 23.8972 160.626 23.4824 160.972C23.194 161.214 22.9386 161.426 22.7324 161.691C22.6217 161.833 22.475 162.033 22.3008 162.272C21.5983 163.234 20.3961 164.942 19.0947 166.243C18.5163 166.818 17.7827 167.426 17.0586 168.03C16.0328 168.884 15.0832 169.669 14.793 170.214C14.2744 171.184 13.4367 172.124 12.7168 172.937C12.249 173.465 11.8206 173.959 11.5518 174.393L0.271484 175.727C1.20778 174.205 2.51914 172.685 3.50098 171.61C3.68137 171.411 3.85254 171.223 4.01074 171.048C4.73792 169.968 5.49833 168.886 6.25586 167.853C6.34632 167.814 6.43902 167.775 6.5332 167.736C7.70337 167.258 8.59508 166.169 9.99219 164.617C10.6088 163.932 11.3388 163.14 12.2607 162.243C12.8374 161.686 13.2862 161.532 13.6484 161.405C13.7551 161.368 13.8553 161.332 13.9492 161.291C14.2713 161.147 14.4086 160.811 14.5791 160.417C14.799 159.904 15.0807 159.295 15.8564 158.864C18.2569 157.546 18.7974 156.444 19.2539 155.629C19.3861 155.39 19.5083 155.174 19.6631 154.982C20.1438 154.381 21.1036 153.794 21.8857 153.407C22.5012 153.102 23.4507 152.143 24.1396 151.404C24.3936 151.129 24.8003 150.822 25.2842 150.464C25.7851 150.094 26.3697 149.667 26.9658 149.166C28.4952 147.886 29.3018 147.297 29.9717 146.799C30.1619 146.659 30.3406 146.53 30.5195 146.401C31.0856 145.992 31.812 145.504 32.5635 145.019C33.4789 144.425 34.3431 143.903 35.0381 143.472C36.9042 142.493 38.8467 141.503 40.6982 140.594C41.6647 140.118 42.6285 139.695 43.3223 139.353C44.0176 139.016 44.3853 138.785 44.3848 138.783Z" fill="black"/>
<path d="M90.9863 165.053C90.9765 165.058 90.72 165.239 90.3271 165.643C89.9285 166.047 89.4018 166.672 88.8955 167.282C87.8485 168.524 86.916 169.835 86.0342 171.208C84.9927 172.845 84.0461 174.548 83.1025 176.251C82.4668 177.411 81.8045 178.63 81.1875 179.792C81.1228 179.914 81.0571 180.035 80.9922 180.157C80.6298 181.276 80.3118 182.391 80.043 183.146C79.8206 183.77 79.5321 184.15 79.2783 184.475C79.107 184.694 78.9532 184.887 78.8594 185.121C78.8091 185.246 78.7454 185.421 78.6699 185.632C78.3567 186.497 77.8607 187.978 77.1064 189.156C76.7697 189.679 76.2918 190.257 75.8369 190.79C75.1839 191.559 74.5513 192.286 74.4453 192.761C74.2632 193.591 73.7833 194.396 73.3477 195.118C72.933 195.807 72.569 196.407 72.5947 196.854C72.6258 197.389 72.3896 197.724 72.0332 198.223C71.7869 198.568 71.4794 199.003 71.1758 199.625C70.8241 200.345 70.4565 200.808 70.1426 201.202C69.7013 201.756 69.3633 202.18 69.3457 203C69.3309 203.678 69.2536 204.351 69.0732 204.906L65.1445 193.382C65.4161 192.745 65.6924 192.109 65.9795 191.471C66.0507 191.434 66.1238 191.396 66.1982 191.359C67.1349 190.884 67.6012 190.005 68.4111 188.602C68.762 187.995 69.1719 187.302 69.708 186.512C70.0575 185.997 70.4121 185.83 70.6973 185.693C70.7812 185.653 70.8598 185.614 70.9307 185.571C71.1731 185.424 71.1888 185.138 71.2139 184.803C71.2464 184.365 71.2931 183.858 71.8438 183.433C73.5734 182.093 73.6622 181.17 73.8066 180.443C73.8448 180.233 73.8824 180.043 73.9551 179.872C74.1917 179.315 74.849 178.73 75.4053 178.342C75.851 178.025 76.3703 177.143 76.7344 176.464C76.8722 176.206 77.1299 175.914 77.4424 175.567C77.77 175.203 78.1493 174.787 78.5117 174.317C79.4244 173.143 79.9878 172.539 80.4248 172.068C80.5508 171.934 80.6697 171.81 80.7881 171.687C81.1609 171.301 81.6505 170.844 82.1709 170.385C82.7912 169.838 83.4247 169.329 83.9199 168.931C85.3162 167.998 86.7314 167.158 88.1699 166.402C88.8993 166.023 89.6684 165.693 90.1904 165.455C90.7193 165.216 90.9869 165.056 90.9863 165.053Z" fill="black"/>
<path d="M75.8496 131.432C75.8372 131.443 75.4892 131.803 74.9482 132.501C74.3944 133.208 73.6888 134.208 72.9434 135.229C71.4336 137.287 69.9994 139.389 68.6152 141.523C66.9303 144.119 65.3247 146.756 63.7305 149.374C62.6116 151.209 61.5103 153.043 60.4141 154.878C60.3013 155.067 60.1878 155.256 60.0752 155.445C59.3263 157.107 58.6205 158.774 58.0781 159.921C57.6315 160.868 57.1841 161.476 56.7959 161.996C56.5294 162.353 56.2922 162.669 56.1133 163.027C56.0172 163.219 55.8919 163.485 55.7412 163.807C55.1215 165.122 54.115 167.362 52.9062 169.237C52.4608 169.926 51.9019 170.676 51.3398 171.414L42.8125 170.88C42.9441 170.659 43.0833 170.429 43.2266 170.189C43.781 169.259 44.4305 168.189 45.251 166.96C45.7804 166.169 46.227 165.864 46.5869 165.614C46.693 165.54 46.7927 165.47 46.8848 165.395C47.1998 165.139 47.2968 164.729 47.417 164.25C47.572 163.627 47.7739 162.884 48.5088 162.189C50.8368 159.969 51.227 158.612 51.5723 157.597C51.6716 157.3 51.7641 157.031 51.8936 156.778C52.314 155.958 53.2355 154.999 53.9941 154.326C54.5949 153.79 55.4271 152.468 56.0361 151.446C56.2656 151.059 56.6499 150.589 57.1064 150.04C57.5797 149.471 58.1305 148.816 58.6787 148.084C60.0706 146.238 60.863 145.305 61.499 144.549C61.681 144.335 61.8523 144.136 62.0234 143.938C62.5638 143.312 63.2626 142.552 63.9795 141.801C64.8382 140.901 65.7311 140.005 66.4102 139.324C68.2828 137.656 70.1865 136.038 72.1074 134.454C73.0936 133.643 74.0785 132.904 74.7812 132.34C75.4778 131.787 75.8415 131.443 75.8496 131.432Z" fill="black"/>
</svg>
