<svg width="30" height="30" viewBox="0 0 30 30" fill="none" xmlns="http://www.w3.org/2000/svg">
<path d="M15 3.75C21.2132 3.75 26.25 8.7868 26.25 15C26.25 21.2132 21.2132 26.25 15 26.25C8.7868 26.25 3.75 21.2132 3.75 15C3.75 8.7868 8.7868 3.75 15 3.75ZM20.7998 10.29C20.2695 9.84817 19.482 9.91988 19.04 10.4502L14.542 15.8467C14.1087 16.3667 13.8654 16.6551 13.6709 16.832C13.6688 16.8339 13.6661 16.8351 13.6641 16.8369C13.6615 16.835 13.6579 16.834 13.6553 16.832C13.4456 16.6734 13.1767 16.4091 12.6982 15.9307L10.8838 14.1162C10.3956 13.6281 9.60437 13.6281 9.11621 14.1162C8.62806 14.6044 8.62806 15.3956 9.11621 15.8838L10.9307 17.6982C11.357 18.1246 11.767 18.5385 12.1475 18.8262C12.5567 19.1356 13.0925 19.4267 13.7793 19.3955C14.466 19.3644 14.973 19.0259 15.3525 18.6807C15.7054 18.3597 16.0768 17.9105 16.4629 17.4473L20.96 12.0498C21.4018 11.5195 21.3301 10.732 20.7998 10.29Z" fill="#FF694F"/>
</svg>
