<svg width="24" height="24" viewBox="0 0 24 24" fill="none" xmlns="http://www.w3.org/2000/svg">
<path d="M12 0.698242C18.2418 0.698242 23.3018 5.75821 23.3018 12C23.3018 18.2418 18.2418 23.3018 12 23.3018C5.75821 23.3018 0.698242 18.2418 0.698242 12C0.698242 5.75821 5.75821 0.698242 12 0.698242ZM17.6504 6.34961C17.2599 5.9591 16.6259 5.95914 16.2354 6.34961L12 10.585L7.76465 6.34961C7.37412 5.95914 6.74011 5.9591 6.34961 6.34961C5.9591 6.74011 5.95914 7.37412 6.34961 7.76465L10.585 12L6.34961 16.2354C5.95908 16.6259 5.95908 17.2599 6.34961 17.6504C6.74013 18.0409 7.37412 18.0409 7.76465 17.6504L12 13.415L16.2354 17.6504C16.6259 18.0409 17.2599 18.0409 17.6504 17.6504C18.0409 17.2599 18.0409 16.6259 17.6504 16.2354L13.415 12L17.6504 7.76465C18.0409 7.37412 18.0409 6.74011 17.6504 6.34961Z" fill="#D9D9D9"/>
</svg>
